<svg width="636" height="636" viewBox="0 0 636 636" fill="none" xmlns="http://www.w3.org/2000/svg">
<path d="M241.235 290.842C245.697 294.313 251.047 296.457 256.671 297.028C262.296 297.599 267.967 296.575 273.036 294.072C278.105 291.569 282.367 287.689 285.333 282.876C288.299 278.064 289.85 272.513 289.807 266.86C289.764 261.207 288.13 255.68 285.092 250.912C282.054 246.145 277.734 242.329 272.628 239.903C267.522 237.477 261.835 236.538 256.22 237.194C250.605 237.85 245.288 240.075 240.879 243.613L234.29 238.525L224.483 241.59L225.602 231.783L217.334 225.359L207.539 228.412L208.659 218.605L201.548 213.085L195.57 214.942L196.257 208.963L192.072 205.707L182.685 206.623L181.413 221.047L230.588 259.271C229.06 264.997 229.255 271.047 231.149 276.663C233.043 282.278 236.551 287.211 241.235 290.842ZM277.067 280.577C276.021 281.923 274.598 282.929 272.981 283.467C271.363 284.006 269.621 284.052 267.977 283.601C266.332 283.15 264.859 282.222 263.742 280.934C262.625 279.645 261.915 278.055 261.701 276.363C261.488 274.671 261.781 272.954 262.544 271.429C263.306 269.904 264.503 268.638 265.984 267.793C267.465 266.949 269.164 266.562 270.865 266.682C272.566 266.802 274.193 267.423 275.541 268.468C277.344 269.874 278.518 271.938 278.804 274.207C279.09 276.477 278.465 278.767 277.067 280.577Z" fill="#EBEBEB"/>
<path d="M280.87 175.879C282.788 173.536 284.006 170.7 284.386 167.697C284.766 164.693 284.293 161.643 283.02 158.897C281.747 156.15 279.726 153.817 277.189 152.166C274.651 150.514 271.7 149.611 268.673 149.559C265.646 149.507 262.666 150.309 260.073 151.873C257.481 153.437 255.382 155.699 254.015 158.4C252.649 161.102 252.072 164.134 252.349 167.149C252.626 170.163 253.747 173.039 255.583 175.446L252.746 178.906L254.26 184.198L249.02 183.473L245.496 187.823L247.01 193.114L241.782 192.377L238.729 196.116L239.645 199.335L236.452 198.889L234.684 201.064L235.053 206.152L242.761 207.017L263.851 181.183C266.895 182.07 270.133 182.039 273.16 181.096C276.187 180.153 278.869 178.338 280.87 175.879ZM275.782 156.57C276.489 157.148 277.008 157.924 277.274 158.797C277.54 159.67 277.541 160.603 277.277 161.477C277.013 162.351 276.495 163.128 275.79 163.708C275.085 164.288 274.224 164.646 273.315 164.736C272.407 164.827 271.491 164.646 270.686 164.217C269.88 163.788 269.219 163.129 268.788 162.325C268.356 161.52 268.173 160.605 268.261 159.697C268.349 158.788 268.704 157.925 269.282 157.219C269.666 156.74 270.141 156.343 270.68 156.051C271.219 155.759 271.811 155.577 272.421 155.516C273.032 155.456 273.648 155.518 274.234 155.699C274.82 155.88 275.363 156.176 275.833 156.57H275.782Z" fill="#EBEBEB"/>
<path d="M212.831 66.6143V159.954H78.7496L73.9287 67.263L212.831 66.6143Z" fill="#E0E0E0"/>
<path d="M73.9287 67.2629V159.763H208.01V67.2629L73.9287 67.2629Z" fill="white"/>
<path d="M208.608 160.399H73.2925V66.627H208.608V160.399ZM74.539 159.127H207.336V67.899H74.5645L74.539 159.127Z" fill="#E0E0E0"/>
<path d="M193.471 78.749H88.4419V148.264H193.471V78.749Z" fill="white"/>
<path d="M193.484 78.7496H192.962H191.461L185.712 78.8641H164.088L88.48 79.0167L88.7853 78.7115C88.7853 99.9539 88.7853 123.486 88.7853 148.226L88.4546 147.896L193.496 147.972L193.229 148.226C193.229 127.073 193.331 109.736 193.369 97.6515C193.369 91.6095 193.369 86.9031 193.433 83.6595C193.433 82.0568 193.433 80.8357 193.433 79.9835C193.433 79.1312 193.433 78.7115 193.433 78.7115C193.433 78.7115 193.433 79.1185 193.433 79.9835C193.433 80.8484 193.433 82.0314 193.433 83.6087C193.433 86.8268 193.433 91.5332 193.433 97.6007C193.433 109.723 193.522 127.124 193.573 148.341V148.608H193.318H88.2765H87.9458V148.264C87.9458 123.524 87.9458 99.992 87.9458 78.7496V78.4443H88.2511L164.062 78.597L185.686 78.686H191.398H192.86L193.484 78.7496Z" fill="#E0E0E0"/>
<path d="M73.9155 66.9961C74.7438 67.4032 75.5209 67.907 76.2306 68.4971C77.6043 69.4892 79.4614 70.8884 81.4839 72.5039C83.5064 74.1193 85.2999 75.6457 86.5719 76.7905C87.2907 77.3616 87.9358 78.0195 88.4926 78.7494C88.3654 78.8893 85.1473 76.2054 81.115 73.0254C78.592 71.1674 76.1875 69.1538 73.9155 66.9961Z" fill="#E0E0E0"/>
<path d="M207.997 67.2627C205.8 69.4252 203.453 71.4313 200.976 73.2665C198.618 75.2657 196.123 77.0976 193.509 78.7489C195.715 76.5854 198.07 74.5793 200.556 72.745C202.905 70.745 205.391 68.913 207.997 67.2627Z" fill="#E0E0E0"/>
<path d="M207.896 159.775L192.95 147.653L207.896 159.775Z" fill="white"/>
<path d="M192.95 147.653C195.621 149.413 198.171 151.351 200.582 153.454C203.141 155.41 205.568 157.535 207.845 159.814C205.171 158.057 202.621 156.119 200.213 154.013C197.643 152.07 195.216 149.944 192.95 147.653Z" fill="#E0E0E0"/>
<path d="M73.9155 159.763C76.0997 157.62 78.4333 155.635 80.8988 153.823C83.2326 151.843 85.7021 150.028 88.2891 148.392C86.117 150.547 83.787 152.536 81.3186 154.345C78.9826 156.324 76.5086 158.135 73.9155 159.763Z" fill="#E0E0E0"/>
<path d="M109.773 100.411V123.688H175.867V100.411H109.773Z" fill="#E0E0E0"/>
<path d="M545.688 596.823C545.688 597.001 436.448 597.154 301.718 597.154C166.988 597.154 57.7104 597.001 57.7104 596.823C57.7104 596.645 166.937 596.492 301.718 596.492C436.499 596.492 545.688 596.645 545.688 596.823Z" fill="#263238"/>
<path d="M443.661 550.775L475.143 596.555L486.4 596.822L465.768 549.745L443.661 550.775Z" fill="#263238"/>
<path d="M111.453 553.104L94.8657 596.352H103.159L132.123 553.294L111.453 553.104Z" fill="#263238"/>
<path d="M104.304 395.973L105.576 451.941C105.657 455.749 107.205 459.379 109.898 462.074C112.59 464.768 116.218 466.32 120.026 466.404L433.18 473.375C435.15 473.419 437.11 473.069 438.943 472.345C440.776 471.621 442.446 470.538 443.855 469.16C445.264 467.782 446.383 466.137 447.147 464.32C447.911 462.503 448.304 460.552 448.304 458.581V391.165C448.3 381.555 444.822 372.27 438.51 365.023C432.198 357.776 423.479 353.056 413.96 351.733C356.631 343.847 238.424 331.725 142.833 348.948C131.861 350.909 121.95 356.725 114.886 365.347C107.822 373.969 104.07 384.83 104.304 395.973Z" fill="#9468F1"/>
<path d="M102.93 415.524C102.93 415.524 77.1343 403.58 71.8555 415.524C66.5767 427.468 72.5042 442.122 78.3045 450.288C84.1048 458.454 84.0794 559.349 84.0794 559.349L475.321 555.164L479.951 458.149C479.951 458.149 498.713 435.037 497.543 425.077C496.373 415.117 480.536 400.616 462.359 415.486C444.183 430.356 439.463 461.431 439.463 461.431L127.531 463.784C127.531 463.784 128.599 420.142 102.93 415.524Z" fill="#9468F1"/>
<path d="M435.508 480.816C435.508 480.994 366.196 481.147 280.718 481.147C195.24 481.147 125.928 481.032 125.928 480.816C125.928 480.6 195.214 480.485 280.718 480.485C366.222 480.485 435.508 480.663 435.508 480.816Z" fill="#263238"/>
<path d="M125.928 523.555C125.912 523.454 125.912 523.351 125.928 523.25C125.928 523.008 125.928 522.703 125.928 522.346C125.928 521.549 125.903 520.392 125.852 518.874C125.852 515.808 125.852 511.471 125.852 506.154C125.852 495.393 125.928 480.523 125.432 464.178C125.335 456.482 124.741 448.8 123.652 441.18C123.423 440.341 123.194 439.501 122.977 438.636C122.761 437.771 122.341 437.046 122.011 436.27C121.336 434.731 120.65 433.256 119.899 431.869C118.544 429.289 116.951 426.84 115.142 424.555C113.631 422.684 111.925 420.978 110.054 419.467C108.632 418.336 107.103 417.347 105.487 416.516C104.08 415.867 102.641 415.29 101.175 414.786H101.468L102.346 415.028C103.468 415.35 104.558 415.776 105.602 416.3C107.263 417.088 108.833 418.056 110.283 419.187C112.194 420.688 113.934 422.394 115.473 424.275C117.332 426.564 118.968 429.026 120.357 431.627C121.133 433.027 121.833 434.502 122.519 436.054C122.863 436.83 123.181 437.631 123.499 438.433L124.224 440.977C125.359 448.63 125.975 456.352 126.068 464.089C126.564 480.498 126.399 495.367 126.297 506.128C126.221 511.458 126.157 515.796 126.119 518.848C126.119 520.311 126.119 521.469 126.119 522.321V523.211C125.928 523.44 125.928 523.555 125.928 523.555Z" fill="#263238"/>
<path d="M99.8904 438.038C100.194 437.831 100.553 437.721 100.921 437.72C101.943 437.642 102.961 437.926 103.795 438.522C104.382 438.932 104.862 439.477 105.195 440.112C105.575 440.857 105.704 441.704 105.564 442.529C105.425 443.478 105.002 444.363 104.35 445.067C103.699 445.771 102.849 446.261 101.913 446.472C100.97 446.607 100.008 446.461 99.1482 446.051C98.2883 445.641 97.5685 444.987 97.0793 444.169C96.6508 443.456 96.4346 442.635 96.456 441.803C96.5018 440.928 96.7822 440.081 97.2678 439.352C97.7535 438.622 98.4265 438.037 99.2163 437.657C99.5407 437.482 99.9034 437.39 100.272 437.39C100.272 437.453 99.9032 437.542 99.3308 437.886C98.5308 438.381 97.8904 439.097 97.4864 439.946C97.1841 440.543 97.0395 441.206 97.0662 441.874C97.0929 442.542 97.2901 443.192 97.639 443.762C98.0747 444.46 98.7026 445.017 99.4471 445.367C100.192 445.717 101.021 445.844 101.837 445.734C102.634 445.547 103.359 445.131 103.922 444.536C104.485 443.942 104.861 443.195 105.004 442.389C105.116 441.724 105.04 441.042 104.783 440.419C104.527 439.796 104.101 439.258 103.554 438.865C102.829 438.288 101.936 437.962 101.01 437.937C100.272 437.975 99.9032 438.102 99.8904 438.038Z" fill="#263238"/>
<path d="M101.658 463.147C100.917 462.597 100.312 461.883 99.8904 461.061C98.7292 459.148 98.1025 456.959 98.0756 454.722C98.0488 452.485 98.6228 450.281 99.7378 448.341C100.143 447.509 100.73 446.779 101.455 446.204C101.544 446.28 100.883 447.082 100.183 448.557C99.2285 450.468 98.7403 452.578 98.7583 454.714C98.7933 456.852 99.3292 458.952 100.323 460.845C101.061 462.295 101.76 463.084 101.658 463.147Z" fill="#263238"/>
<path d="M97.5627 425.382C97.4935 426.028 97.3658 426.667 97.1811 427.29C96.623 430.334 97.2905 433.475 99.0382 436.028C99.4504 436.528 99.8286 437.055 100.17 437.606C100.17 437.606 99.458 437.25 98.6566 436.334C97.6245 435.073 96.9065 433.586 96.5615 431.994C96.2165 430.401 96.2545 428.75 96.6723 427.175C96.8146 426.512 97.1207 425.896 97.5627 425.382Z" fill="#263238"/>
<path d="M89.9434 439.45C90.096 439.323 91.279 440.518 93.0852 441.447C94.8914 442.375 96.5323 442.719 96.5069 442.871C95.2045 443.039 93.8849 442.741 92.7799 442.032C91.5638 441.526 90.5612 440.613 89.9434 439.45Z" fill="#263238"/>
<path d="M476.822 523.555C476.822 523.733 388.583 523.886 279.738 523.886C170.893 523.886 82.6802 523.733 82.6802 523.555C82.6802 523.377 170.906 523.225 279.84 523.225C388.774 523.225 476.822 523.365 476.822 523.555Z" fill="#263238"/>
<path d="M434.147 461.799C434.337 461.799 434.477 475.613 434.477 492.645C434.477 509.677 434.337 523.516 434.147 523.516C433.956 523.516 433.816 509.702 433.816 492.645C433.816 475.587 433.969 461.799 434.147 461.799Z" fill="#263238"/>
<path d="M303.5 355.066H302.889L301.108 355.129L294.278 355.32L269.117 355.905L186.132 357.572C178.03 357.762 170.105 357.737 162.498 358.246C155.174 358.561 147.927 359.883 140.963 362.176C134.682 364.285 129.06 367.999 124.656 372.95C122.659 375.187 120.95 377.666 119.568 380.328C118.309 382.776 117.266 385.33 116.452 387.96C115.145 392.528 114.292 397.215 113.908 401.952C113.514 406.149 113.476 409.774 113.45 412.751C113.425 415.727 113.45 418.017 113.539 419.582C113.539 420.345 113.539 420.93 113.539 421.362C113.539 421.795 113.539 421.973 113.539 421.973C113.539 421.973 113.539 421.769 113.539 421.362C113.539 420.955 113.539 420.345 113.437 419.582C113.361 418.03 113.259 415.766 113.234 412.751C113.208 409.736 113.234 406.137 113.577 401.913C113.952 397.13 114.804 392.396 116.121 387.782C116.927 385.105 117.965 382.505 119.225 380.01C120.594 377.294 122.304 374.763 124.313 372.479C128.776 367.453 134.477 363.682 140.849 361.54C147.836 359.208 155.114 357.859 162.473 357.533C170.105 357.025 178.042 357.037 186.145 356.847L269.143 355.371L294.29 355.002L301.134 354.926H302.914L303.5 355.066Z" fill="#263238"/>
<path d="M203.342 398.644C203.342 398.644 202.923 398.848 202.274 399.344C201.357 400.047 200.67 401.008 200.302 402.104C200.006 402.885 199.914 403.728 200.037 404.555C200.159 405.381 200.491 406.162 201.002 406.823C201.577 407.693 202.406 408.366 203.376 408.749C204.346 409.133 205.41 409.209 206.425 408.968C207.44 408.726 208.356 408.178 209.049 407.399C209.742 406.619 210.179 405.646 210.3 404.61C210.455 403.788 210.399 402.94 210.136 402.145C209.874 401.351 209.414 400.636 208.799 400.069C207.975 399.263 206.93 398.718 205.797 398.504C204.996 398.364 204.525 398.415 204.525 398.364C204.932 398.214 205.371 398.175 205.797 398.25C206.834 398.369 207.822 398.76 208.659 399.383C209.497 400.006 210.155 400.839 210.567 401.799C210.942 402.726 211.043 403.741 210.86 404.724C210.696 405.863 210.193 406.925 209.417 407.774C208.641 408.624 207.628 409.22 206.509 409.486C205.39 409.752 204.217 409.676 203.142 409.266C202.067 408.857 201.139 408.135 200.48 407.192C199.877 406.399 199.51 405.45 199.425 404.457C199.367 403.59 199.502 402.722 199.819 401.913C200.253 400.758 201.047 399.772 202.083 399.102C202.454 398.84 202.889 398.681 203.342 398.644Z" fill="#263238"/>
<path d="M197.987 431.602C197.503 430.377 197.178 429.094 197.02 427.786C196.4 424.68 196.469 421.475 197.224 418.399C198.039 415.282 199.996 412.585 202.706 410.843C203.525 410.336 204.424 409.97 205.364 409.762C205.701 409.656 206.056 409.621 206.407 409.66C205.196 410.048 204.035 410.578 202.948 411.237C200.441 413.009 198.64 415.608 197.86 418.577C197.142 421.568 197.013 424.669 197.478 427.71C197.783 430.126 198.089 431.577 197.987 431.602Z" fill="#263238"/>
<path d="M202.617 379.055C201.942 379.952 201.317 380.887 200.747 381.854C199.455 384.234 199.075 387.004 199.676 389.644C200.278 392.285 201.821 394.616 204.016 396.202C204.951 396.833 205.924 397.407 206.929 397.919C206.614 397.918 206.303 397.853 206.013 397.728C205.212 397.446 204.451 397.061 203.749 396.584C201.349 395.016 199.651 392.577 199.013 389.782C198.374 386.987 198.846 384.054 200.327 381.599C200.754 380.864 201.276 380.189 201.879 379.59C202.312 379.145 202.592 378.966 202.617 379.055Z" fill="#263238"/>
<path d="M201.447 404.496C199.122 404.885 196.82 405.404 194.553 406.047C192.356 406.907 190.208 407.884 188.116 408.973C191.792 405.775 196.586 404.165 201.447 404.496Z" fill="#263238"/>
<g opacity="0.3">
<path d="M160.349 482.012C172.698 491.476 188.074 496.111 203.597 495.05C200.374 510 197.16 524.954 193.955 539.913C193.103 543.895 192.301 548.334 194.387 551.845C197.313 556.767 204.118 557.251 209.842 557.174C216.202 557.085 222.842 556.933 228.49 553.982C236.491 549.809 240.79 540.956 243.894 532.485C246.997 524.013 249.681 514.931 256.067 508.558C263.397 516.91 273.318 522.558 284.241 524.598C287.421 525.183 291.034 525.362 293.578 523.326C296.122 521.291 296.847 517.704 296.198 514.55C295.352 511.44 293.942 508.513 292.039 505.913L273.417 477.038C270.873 473.133 268.151 469.012 263.889 467.155C260.544 465.692 256.754 465.883 253.116 466.048C222.713 467.819 192.537 472.379 162.969 479.671" fill="black"/>
</g>
<g opacity="0.3">
<path d="M259.844 338.861C252.314 358.755 224.228 363.321 214.32 382.109C204.563 400.731 216.66 425.357 206.611 443.877C202.884 450.72 196.435 455.821 192.848 462.715C190.406 467.346 189.147 472.891 185.216 476.313C180.612 480.32 173.476 480.244 167.942 477.649C162.409 475.054 158.161 470.398 154.218 465.73C146.84 456.979 139.908 447.515 136.41 436.589C130.482 417.801 135.926 396.546 147.858 380.85C159.789 365.153 177.457 354.557 196.117 348.21C214.777 341.863 234.519 339.471 254.146 337.627" fill="black"/>
</g>
<path d="M169.405 286.543C172.256 282.1 176.197 278.461 180.853 275.973C185.542 273.478 191.024 272.925 196.117 274.434C198.62 275.228 200.873 276.658 202.657 278.584C204.441 280.511 205.694 282.868 206.293 285.424C207.095 289.507 206.001 294.061 208.112 297.648C210.529 301.769 216.368 303.066 218.428 307.391C218.969 308.731 219.195 310.177 219.087 311.617C218.979 313.058 218.54 314.454 217.805 315.697C216.322 318.173 214.434 320.383 212.221 322.235C213.554 323.07 214.733 324.129 215.706 325.365C216.189 325.987 216.509 326.72 216.638 327.497C216.767 328.274 216.7 329.072 216.444 329.817C215.614 331.289 214.247 332.383 212.628 332.869C205.521 335.865 197.666 336.602 190.126 334.981C188.116 334.548 185.814 334.001 184.16 335.223" fill="#263238"/>
<path d="M220.323 301.641L216.24 314.094L244.046 329.88L216.062 330.783L218.148 353.463L272.017 340.234C272.017 340.234 275.248 318.266 220.323 301.641L216.507 300.725C215.819 300.564 215.18 300.237 214.646 299.774C214.112 299.311 213.699 298.725 213.442 298.067C213.005 296.996 212.19 296.122 211.152 295.612L206.56 293.221V296.859L209.104 299.822L208.697 306.857C208.59 308.363 209.023 309.858 209.918 311.075C210.813 312.291 212.112 313.15 213.582 313.496L216.126 314.094" fill="#B78876"/>
<path d="M159.407 346.671C158.3 346.671 148.035 349.215 142.159 356.643C136.282 364.072 127.785 392.183 127.785 392.183L149.409 395.923L158.746 419.366C158.746 419.366 214.014 412.128 211.076 409.19C208.235 406.576 205.264 404.11 202.172 401.799L214.892 359.429L230.156 351.187L225.004 330.021L194.26 334.18L159.407 346.671Z" fill="#FAFAFA"/>
<path d="M212.246 369.223C212.246 369.401 195.01 369.554 173.768 369.554C152.526 369.554 135.277 369.401 135.277 369.223C135.277 369.045 152.513 368.893 173.768 368.893C195.023 368.893 212.246 369.045 212.246 369.223Z" fill="#9468F1"/>
<path d="M208.799 381.676C208.799 381.855 191.563 382.007 170.321 382.007C149.078 382.007 131.83 381.855 131.83 381.676C131.83 381.498 149.053 381.346 170.321 381.346C191.589 381.346 208.799 381.498 208.799 381.676Z" fill="#9468F1"/>
<path d="M208.799 395.121C208.799 395.312 195.748 395.464 179.645 395.464C163.541 395.464 150.503 395.312 150.503 395.121C150.503 394.93 163.554 394.79 179.645 394.79C195.736 394.79 208.799 394.943 208.799 395.121Z" fill="#9468F1"/>
<path d="M213.264 408.083C213.264 408.261 200.213 408.413 184.122 408.413C168.031 408.413 154.98 408.261 154.98 408.083C154.98 407.905 168.018 407.752 184.122 407.752C200.226 407.752 213.264 407.892 213.264 408.083Z" fill="#9468F1"/>
<path d="M227.065 352.471C227.065 352.662 218.441 352.802 207.82 352.802C197.198 352.802 188.562 352.662 188.562 352.471C188.562 352.281 197.173 352.141 207.82 352.141C218.466 352.141 227.065 352.344 227.065 352.471Z" fill="#9468F1"/>
<path d="M228.464 339.267C228.464 339.458 219.878 339.801 209.295 340.043C198.712 340.285 190.101 340.348 190.101 340.17C190.101 339.992 198.674 339.636 209.27 339.382C219.865 339.127 228.464 339.089 228.464 339.267Z" fill="#9468F1"/>
<path d="M153.912 375.685C153.439 379.193 152.747 382.668 151.839 386.09C151.147 389.563 150.242 392.992 149.129 396.355C149.603 392.847 150.291 389.373 151.19 385.95C151.875 382.473 152.785 379.044 153.912 375.685Z" fill="#263238"/>
<path d="M214.078 534.507L197.974 585.298L217.385 587.257L235.625 543.118L214.078 534.507Z" fill="#B78876"/>
<path d="M228.286 567.49L219.039 590.386C219.039 590.386 239.238 607.494 237.941 611.895L192.835 595.601L205.772 559.272L228.286 567.49Z" fill="#455A64"/>
<path d="M205.797 583.415C205.315 583.39 204.841 583.544 204.466 583.847C204.09 584.149 203.839 584.58 203.762 585.056C203.718 585.536 203.859 586.015 204.157 586.393C204.456 586.772 204.888 587.022 205.365 587.091C205.875 587.117 206.376 586.953 206.773 586.631C207.169 586.31 207.433 585.853 207.514 585.349C207.514 584.382 206.56 583.275 205.606 583.415" fill="#E0E0E0"/>
<path d="M192.835 595.601L194.286 591.988L236.999 609.008C236.999 609.008 238.691 610.598 237.941 611.933L192.835 595.601Z" fill="#E0E0E0"/>
<path d="M219.853 590.462C219.764 590.678 218.581 590.386 217.309 590.691C216.037 590.996 215.057 591.734 214.892 591.569C214.727 591.404 215.503 590.297 217.131 589.903C218.759 589.508 219.967 590.271 219.853 590.462Z" fill="#263238"/>
<path d="M223.872 594.125C223.872 594.367 222.753 594.393 221.672 595.054C220.59 595.715 220.056 596.568 219.802 596.568C219.547 596.568 219.891 595.181 221.252 594.393C222.613 593.604 223.948 593.922 223.872 594.125Z" fill="#263238"/>
<path d="M224.508 600.765C224.292 600.765 224.381 599.493 225.386 598.526C226.391 597.56 227.599 597.42 227.624 597.636C227.65 597.852 226.772 598.272 225.971 599.099C225.169 599.926 224.737 600.829 224.508 600.765Z" fill="#263238"/>
<path d="M221.328 585.005C221.163 585.17 220.26 584.496 218.988 584.127C217.716 583.758 216.596 583.809 216.545 583.58C216.495 583.351 217.728 582.893 219.217 583.351C220.705 583.809 221.544 584.865 221.328 585.005Z" fill="#263238"/>
<path d="M223.16 580.337C222.349 580.267 221.572 579.982 220.908 579.51C220.143 579.073 219.438 578.538 218.809 577.92C218.426 577.565 218.072 577.178 217.754 576.763C217.553 576.531 217.39 576.269 217.27 575.987C217.181 575.779 217.164 575.547 217.222 575.328C217.28 575.109 217.408 574.916 217.588 574.779C217.754 574.665 217.943 574.591 218.142 574.565C218.341 574.538 218.544 574.559 218.733 574.626C219.021 574.732 219.294 574.873 219.547 575.046C220.001 575.337 220.426 575.669 220.819 576.038C221.457 576.659 221.993 577.375 222.409 578.162C222.864 578.847 223.095 579.656 223.071 580.477C222.943 580.477 222.689 579.638 221.913 578.455C221.463 577.768 220.924 577.144 220.31 576.598C219.954 576.268 219.566 575.974 219.153 575.72C218.72 575.427 218.313 575.275 218.123 575.44C217.932 575.605 218.033 575.542 218.123 575.707C218.222 575.912 218.346 576.104 218.491 576.28C218.786 576.669 219.1 577.042 219.433 577.399C220.012 577.995 220.642 578.54 221.315 579.027C221.96 579.42 222.576 579.858 223.16 580.337Z" fill="#263238"/>
<path d="M222.753 580.553C222.559 579.751 222.63 578.907 222.956 578.149C223.375 576.786 224.163 575.567 225.233 574.625C225.462 574.373 225.752 574.183 226.074 574.074C226.397 573.965 226.743 573.94 227.078 574.002C227.278 574.082 227.451 574.216 227.579 574.389C227.708 574.562 227.785 574.767 227.803 574.982C227.825 575.289 227.799 575.598 227.726 575.897C227.623 576.427 227.439 576.938 227.179 577.411C226.753 578.213 226.132 578.895 225.373 579.395C224.101 580.248 223.045 580.184 223.058 580.095C223.738 579.75 224.397 579.363 225.03 578.938C225.656 578.43 226.164 577.792 226.518 577.068C226.716 576.664 226.862 576.237 226.95 575.796C227.052 575.3 227.014 574.842 226.811 574.829C226.607 574.816 226.073 574.969 225.755 575.287C225.389 575.594 225.052 575.935 224.75 576.305C224.234 576.944 223.806 577.65 223.478 578.403C222.956 579.65 222.893 580.566 222.753 580.553Z" fill="#263238"/>
<path d="M275.197 486.693L299.238 528.478L318.903 515.86L294.761 473.438L275.197 486.693Z" fill="#B78876"/>
<path d="M312.111 503.915L324.538 525.336C324.538 525.336 350.436 519.891 353.12 523.618L312.518 549.186L291.797 516.635L312.111 503.915Z" fill="#455A64"/>
<path d="M310.864 531.454C310.541 531.811 310.363 532.276 310.363 532.757C310.363 533.239 310.541 533.704 310.864 534.061C311.211 534.379 311.665 534.556 312.136 534.556C312.607 534.556 313.061 534.379 313.408 534.061C313.742 533.673 313.92 533.175 313.908 532.663C313.897 532.151 313.696 531.661 313.344 531.288C312.94 530.986 312.435 530.85 311.933 530.909C311.431 530.968 310.971 531.218 310.648 531.606" fill="#E0E0E0"/>
<path d="M312.518 549.161L310.559 545.802L350.22 522.55C350.22 522.55 352.522 522.194 353.12 523.593L312.518 549.161Z" fill="#E0E0E0"/>
<path d="M325.06 524.687C325.174 524.891 324.246 525.603 323.673 526.85C323.101 528.096 323.101 529.266 322.872 529.304C322.643 529.343 322.21 528.032 322.872 526.506C323.533 524.98 324.983 524.471 325.06 524.687Z" fill="#263238"/>
<path d="M330.428 523.758C330.593 523.924 329.944 524.802 329.804 526.074C329.665 527.346 330.021 528.338 329.804 528.452C329.588 528.567 328.774 527.536 328.978 525.908C329.181 524.28 330.301 523.58 330.428 523.758Z" fill="#263238"/>
<path d="M336.063 527.333C335.897 527.498 335.007 526.684 334.791 525.272C334.574 523.86 335.274 522.856 335.465 522.957C335.656 523.059 335.465 524.013 335.605 525.171C335.745 526.328 336.241 527.193 336.063 527.333Z" fill="#263238"/>
<path d="M321.689 520.121C321.689 520.362 320.633 520.655 319.565 521.393C318.496 522.13 317.847 523.072 317.631 522.97C317.415 522.868 317.822 521.622 319.094 520.718C320.366 519.815 321.689 519.904 321.689 520.121Z" fill="#263238"/>
<path d="M319.107 515.859C319.107 515.935 318.458 516.558 317.072 517.131C316.252 517.454 315.399 517.684 314.528 517.818C314.009 517.883 313.486 517.921 312.963 517.932C312.655 517.943 312.346 517.909 312.047 517.83C311.83 517.771 311.639 517.642 311.503 517.462C311.367 517.283 311.295 517.063 311.297 516.838C311.308 516.636 311.366 516.44 311.468 516.265C311.57 516.09 311.712 515.942 311.882 515.833C312.141 515.675 312.419 515.551 312.709 515.464C314.054 515.003 315.494 514.894 316.894 515.146C318.395 515.426 319.183 515.973 319.132 516.05C319.082 516.126 318.242 515.833 316.83 515.719C316.005 515.658 315.176 515.701 314.362 515.846C313.891 515.93 313.427 516.054 312.976 516.215C312.467 516.38 312.098 516.609 312.111 516.864C312.124 517.118 312.111 516.991 312.302 517.067C312.523 517.118 312.749 517.14 312.976 517.131C314.294 517.148 315.606 516.964 316.868 516.584C317.596 516.287 318.344 516.045 319.107 515.859Z" fill="#263238"/>
<path d="M319.03 516.305C319.03 516.381 318.14 515.91 317.25 514.676C316.739 513.947 316.36 513.133 316.13 512.272C315.993 511.765 315.904 511.245 315.863 510.721C315.806 510.382 315.836 510.035 315.952 509.712C316.068 509.389 316.265 509.101 316.525 508.876C316.704 508.763 316.911 508.703 317.122 508.703C317.334 508.703 317.541 508.763 317.72 508.876C317.977 509.047 318.208 509.252 318.407 509.487C318.757 509.903 319.049 510.365 319.272 510.86C319.634 511.693 319.787 512.601 319.717 513.506C319.59 515.058 318.916 515.821 318.852 515.758C318.993 515.009 319.091 514.253 319.145 513.494C319.129 512.69 318.938 511.9 318.585 511.178C318.384 510.757 318.122 510.367 317.809 510.021C317.479 509.639 317.097 509.385 316.957 509.538C316.83 509.689 316.738 509.867 316.688 510.058C316.637 510.25 316.629 510.45 316.665 510.644C316.687 511.124 316.751 511.6 316.855 512.069C317.042 512.866 317.342 513.633 317.746 514.346C318.433 515.592 319.12 516.203 319.03 516.305Z" fill="#263238"/>
<path d="M203.634 480.816L250.851 448.711L280.629 506.676L307.697 492.01C307.697 492.01 276.52 415.944 265.326 413.527C259.055 412.154 187.137 425.878 187.137 425.878L179.098 421.846L158.746 419.366L157.474 422.66C153.921 431.656 152.287 441.295 152.677 450.96C153.067 460.624 155.472 470.1 159.738 478.781L160.73 480.803L203.634 480.816Z" fill="#263238"/>
<path d="M187.061 440.646C187.417 442.236 226.493 478.806 226.493 478.806L203.978 554.477L237.585 560.901L271.331 469.749L209.651 409.24L181.426 421.032L187.061 440.646Z" fill="#263238"/>
<path d="M250.851 448.698C250.953 448.85 240.459 456.152 227.434 465.017C214.409 473.883 203.749 480.943 203.635 480.816C203.52 480.689 214.014 473.349 227.052 464.483C240.09 455.617 250.737 448.545 250.851 448.698Z" fill="#455A64"/>
<path d="M275.083 495.863C274.648 495.319 274.265 494.736 273.938 494.12C273.239 492.976 272.272 491.284 271.089 489.198C268.736 485.013 265.607 479.162 262.3 472.662C258.992 466.162 256.067 460.171 254.019 455.833C252.989 453.658 252.174 451.89 251.627 450.669C251.306 450.051 251.046 449.404 250.852 448.735C251.236 449.316 251.576 449.924 251.869 450.554L254.413 455.642C256.626 460.031 259.59 465.895 262.859 472.395C266.128 478.894 269.219 484.797 271.471 489.032C272.552 491.08 273.455 492.772 274.142 494.057C274.502 494.634 274.817 495.237 275.083 495.863Z" fill="#455A64"/>
<path d="M233.501 465.271C232.497 468.061 231.29 470.774 229.889 473.387C228.678 476.09 227.271 478.7 225.678 481.197C227.887 475.702 230.502 470.379 233.501 465.271Z" fill="#455A64"/>
<path d="M127.785 392.183L120.153 420.37C119.168 424.016 119.623 427.901 121.425 431.22C122.962 434.074 125.395 436.343 128.348 437.679C131.302 439.014 134.612 439.341 137.77 438.611L198.254 423.715L191.894 411.148L144.245 415.282L149.333 395.922L127.785 392.183Z" fill="#B78876"/>
<path d="M154.612 434.96L155.4 430.864L188.18 424.974L197.707 374.438L258.585 367.188L248.358 421.133L154.612 434.96Z" fill="#455A64"/>
<path d="M225.042 401.659C224.343 401.629 223.669 401.385 223.112 400.96C222.554 400.536 222.14 399.951 221.925 399.285C221.709 398.618 221.703 397.901 221.906 397.231C222.11 396.561 222.513 395.969 223.063 395.534C223.612 395.1 224.281 394.844 224.981 394.8C225.68 394.757 226.376 394.929 226.974 395.292C227.573 395.656 228.047 396.194 228.331 396.834C228.616 397.474 228.698 398.186 228.566 398.874C228.464 399.709 228.037 400.469 227.377 400.991C226.717 401.513 225.878 401.753 225.042 401.659Z" fill="#EBEBEB"/>
<path d="M163.516 290.016L163.63 293.666L165.004 348.362C165.169 354.722 170.753 359.632 177.546 359.403C184.415 359.187 189.935 353.806 189.884 347.383C189.821 340.654 189.884 333.556 189.884 333.556C189.884 333.556 198.546 332.017 200.213 320.671C201.04 315.036 200.645 305.801 200.086 298.258C199.966 296.649 199.522 295.081 198.781 293.649C198.04 292.216 197.016 290.948 195.772 289.921C194.528 288.894 193.089 288.13 191.541 287.674C189.994 287.218 188.37 287.08 186.768 287.268L163.516 290.016Z" fill="#B78876"/>
<path d="M195.697 304.605C195.704 304.985 195.564 305.352 195.305 305.63C195.046 305.907 194.69 306.074 194.311 306.094C194.129 306.109 193.945 306.089 193.771 306.033C193.597 305.978 193.435 305.888 193.296 305.77C193.156 305.652 193.041 305.507 192.958 305.344C192.875 305.181 192.824 305.004 192.81 304.822C192.803 304.444 192.941 304.079 193.198 303.801C193.454 303.524 193.807 303.356 194.184 303.333C194.553 303.302 194.92 303.418 195.204 303.656C195.487 303.895 195.665 304.236 195.697 304.605Z" fill="#263238"/>
<path d="M198.14 303.13C197.962 303.321 196.868 302.519 195.29 302.532C193.713 302.545 192.594 303.359 192.416 303.168C192.238 302.977 192.517 302.736 193.014 302.367C193.683 301.892 194.482 301.635 195.303 301.629C196.116 301.621 196.912 301.866 197.58 302.329C198.063 302.736 198.229 303.041 198.14 303.13Z" fill="#263238"/>
<path d="M180.281 305.165C180.291 305.545 180.152 305.915 179.892 306.193C179.633 306.471 179.274 306.637 178.894 306.653C178.525 306.685 178.158 306.569 177.874 306.33C177.591 306.092 177.413 305.751 177.381 305.381C177.374 305.003 177.515 304.637 177.774 304.361C178.033 304.086 178.389 303.922 178.767 303.906C178.949 303.888 179.133 303.907 179.308 303.961C179.483 304.015 179.646 304.103 179.786 304.22C179.927 304.337 180.043 304.481 180.128 304.643C180.213 304.805 180.265 304.983 180.281 305.165Z" fill="#263238"/>
<path d="M182.787 303.601C182.609 303.792 181.515 302.99 179.937 303.003C178.36 303.016 177.241 303.83 177.063 303.639C176.885 303.448 177.152 303.206 177.648 302.838C178.322 302.363 179.125 302.105 179.95 302.1C180.759 302.092 181.551 302.337 182.214 302.799C182.698 303.168 182.876 303.512 182.787 303.601Z" fill="#263238"/>
<path d="M188.587 315.112C189.412 314.846 190.266 314.684 191.131 314.629C191.538 314.629 191.907 314.502 191.971 314.222C192.001 313.812 191.903 313.403 191.691 313.052L190.482 310.024C189.356 307.465 188.437 304.819 187.735 302.112C189.071 304.557 190.198 307.11 191.106 309.744L192.276 312.784C192.528 313.265 192.609 313.817 192.505 314.349C192.448 314.49 192.36 314.617 192.248 314.721C192.136 314.824 192.002 314.901 191.856 314.947C191.632 315.008 191.401 315.042 191.169 315.049C190.315 315.181 189.447 315.203 188.587 315.112Z" fill="#263238"/>
<path d="M189.884 333.594C184.54 333.765 179.255 332.444 174.62 329.778C174.62 329.778 178.436 337.512 189.706 336.316L189.884 333.594Z" fill="#AA6550"/>
<path d="M183.41 301.018C183.244 301.438 181.693 301.171 179.848 301.298C178.004 301.425 176.503 301.871 176.274 301.476C176.172 301.286 176.452 300.904 177.063 300.522C177.879 300.043 178.8 299.768 179.746 299.721C180.689 299.65 181.634 299.803 182.507 300.166C183.168 300.471 183.486 300.828 183.41 301.018Z" fill="#263238"/>
<path d="M197.491 297.648C197.211 298.004 196.13 297.648 194.845 297.648C193.56 297.648 192.454 297.915 192.199 297.546C191.945 297.177 192.199 297.012 192.721 296.669C193.361 296.255 194.11 296.043 194.871 296.058C195.633 296.074 196.372 296.318 196.995 296.758C197.453 297.165 197.605 297.534 197.491 297.648Z" fill="#263238"/>
<path d="M188.422 320.773C187.964 320.846 187.494 320.798 187.061 320.633L185.789 320.276C185.432 320.162 185.038 319.997 184.593 319.831C184.146 319.709 183.742 319.467 183.423 319.132C183.156 318.788 183.206 318.178 183.817 317.631C184.241 317.322 184.732 317.119 185.251 317.038C185.769 316.958 186.299 317.002 186.796 317.167C187.294 317.333 187.745 317.615 188.112 317.989C188.478 318.364 188.75 318.821 188.905 319.322C189.172 320.124 188.841 320.658 188.422 320.773Z" fill="#AA6550"/>
<path d="M188.638 320.632C188.485 320.747 187.722 319.182 185.89 318.712C184.77 318.551 183.628 318.678 182.57 319.08C182.57 319.08 182.774 318.673 183.397 318.355C184.221 317.945 185.165 317.845 186.056 318.076C186.949 318.302 187.731 318.844 188.256 319.602C188.65 320.174 188.714 320.607 188.638 320.632Z" fill="#263238"/>
<path d="M176.617 282.663C178.364 285.418 179.114 288.689 178.741 291.929C178.369 295.17 176.896 298.185 174.569 300.471C171.86 303.015 167.828 304.962 167.561 308.65C167.255 312.733 171.987 315.786 171.987 319.882C171.987 323.978 167.141 326.776 166.187 330.885C165.424 334.192 167.459 337.499 169.698 340.005C171.936 342.511 174.786 344.724 176.058 347.828C176.733 349.577 177.047 351.444 176.982 353.318C176.916 355.191 176.472 357.032 175.676 358.729C174.066 362.102 171.918 365.191 169.316 367.875C165.933 366.663 162.412 365.881 158.835 365.547C159.051 364.199 159.28 362.838 159.509 361.489C159.475 362.277 159.192 363.035 158.701 363.652C158.209 364.269 157.535 364.714 156.774 364.924C155.241 365.314 153.637 365.335 152.093 364.987C147.325 364.234 142.64 363.028 138.101 361.387C140.131 359.558 141.85 357.41 143.189 355.027C143.849 353.823 144.207 352.475 144.231 351.102C144.256 349.728 143.946 348.369 143.329 347.141C142.21 345.233 140.149 344.012 139.119 342.053C137.58 339.128 138.852 335.413 141.039 332.933C143.227 330.452 146.204 328.837 148.811 326.802C151.419 324.767 153.81 322.019 154.014 318.712C154.294 314.438 150.821 310.533 151.254 306.272C151.737 301.413 156.876 298.436 158.886 293.984C160.348 290.766 160.158 286.797 162.396 284.063C163.275 283.087 164.366 282.326 165.586 281.841C166.806 281.356 168.122 281.158 169.43 281.264C172.046 281.491 174.564 282.366 176.757 283.808" fill="#263238"/>
<path d="M190.8 334.815C188.765 335.935 188.88 339.051 190.126 341.023C191.373 342.994 193.37 344.406 194.604 346.39C195.647 348.202 196.011 350.326 195.631 352.381C195.251 354.437 194.152 356.29 192.53 357.61L197.415 359.454L198.483 358.856L201.485 357.152L200.073 360.624H203.202C204.865 360.658 206.503 360.226 207.933 359.377C209.362 358.528 210.525 357.296 211.29 355.82C212.056 354.344 212.392 352.683 212.262 351.025C212.132 349.368 211.541 347.78 210.555 346.441C209.283 344.661 207.273 343.249 206.828 341.099C206.306 338.491 208.278 336.138 209.232 333.67C209.991 331.586 210.07 329.314 209.457 327.182C208.845 325.05 207.572 323.167 205.823 321.803" fill="#263238"/>
<path d="M94.446 231.872C94.7326 232.015 94.9738 232.234 95.1423 232.506C95.3109 232.778 95.4001 233.092 95.4 233.412V241.883C95.3995 242.145 95.3383 242.403 95.2214 242.636C95.1044 242.87 94.9348 243.074 94.7258 243.231C94.518 243.393 94.2745 243.503 94.0156 243.552C93.7568 243.6 93.49 243.586 93.2376 243.511C92.5392 243.333 91.8119 243.297 91.0993 243.406C90.3868 243.516 89.7037 243.768 89.0909 244.147C88.5261 244.47 88.0337 244.905 87.6442 245.426C87.2548 245.946 86.9765 246.542 86.8267 247.175C86.7132 247.818 86.7314 248.478 86.88 249.114C87.0287 249.75 87.3048 250.35 87.6917 250.876C88.0937 251.473 88.6097 251.985 89.2099 252.382C89.8102 252.78 90.4829 253.054 91.1897 253.191C92.625 253.335 94.0665 252.986 95.2777 252.203C96.4888 251.419 97.3976 250.247 97.8549 248.879C97.9226 248.667 98.0314 248.47 98.1751 248.3C98.3187 248.13 98.4945 247.99 98.6924 247.888C98.8902 247.785 99.1062 247.723 99.3281 247.705C99.55 247.686 99.7734 247.711 99.9855 247.779C100.198 247.846 100.394 247.955 100.565 248.099C100.735 248.243 100.875 248.418 100.977 248.616C101.079 248.814 101.141 249.03 101.16 249.252C101.179 249.474 101.153 249.697 101.086 249.909C100.378 252.048 98.9532 253.877 97.0528 255.086C95.1524 256.296 92.8927 256.813 90.6554 256.549C89.4914 256.35 88.3803 255.915 87.3896 255.272C86.399 254.629 85.5496 253.791 84.8933 252.81C84.243 251.899 83.7838 250.866 83.5433 249.773C83.3028 248.68 83.2861 247.549 83.4941 246.45C83.7387 245.362 84.2035 244.336 84.8597 243.434C85.516 242.533 86.3499 241.776 87.3101 241.209C88.7189 240.362 90.3346 239.922 91.9783 239.937V233.412C91.9783 232.959 92.1579 232.526 92.4775 232.206C92.7972 231.887 93.2307 231.707 93.6828 231.707C93.9462 231.705 94.2068 231.762 94.446 231.872Z" fill="#9468F1"/>
<path d="M92.1052 228.311C92.1003 228.037 92.1764 227.768 92.3241 227.538C92.4717 227.307 92.6842 227.126 92.9349 227.016C93.1855 226.906 93.463 226.873 93.7325 226.921C94.002 226.968 94.2513 227.094 94.4492 227.283C94.6471 227.472 94.7846 227.716 94.8444 227.983C94.9042 228.25 94.8837 228.529 94.7854 228.784C94.6871 229.039 94.5154 229.26 94.292 229.418C94.0686 229.576 93.8034 229.664 93.5298 229.672C93.3467 229.677 93.1644 229.646 92.9934 229.58C92.8224 229.514 92.6662 229.415 92.5337 229.288C92.4012 229.162 92.2951 229.01 92.2216 228.842C92.1481 228.675 92.1085 228.494 92.1052 228.311Z" fill="#9468F1"/>
<path d="M133.56 273.67C133.56 273.67 133.14 273.67 132.44 274.027C131.482 274.439 130.674 275.136 130.125 276.024C129.736 276.631 129.488 277.318 129.4 278.033C129.302 278.855 129.448 279.686 129.82 280.425C130.201 281.302 130.841 282.041 131.656 282.542C132.47 283.043 133.419 283.282 134.373 283.227C135.328 283.171 136.243 282.824 136.993 282.232C137.744 281.64 138.295 280.831 138.571 279.916C138.856 279.138 138.905 278.292 138.711 277.486C138.533 276.786 138.208 276.131 137.757 275.566C137.103 274.746 136.216 274.144 135.213 273.836C134.488 273.632 134.056 273.658 134.056 273.62H134.361C134.488 273.609 134.616 273.609 134.743 273.62C134.91 273.629 135.076 273.655 135.239 273.696C136.316 273.95 137.28 274.549 137.986 275.4C138.488 275.98 138.85 276.668 139.042 277.41C139.251 278.251 139.211 279.135 138.928 279.954C138.617 280.883 138.053 281.707 137.299 282.333C136.497 283.023 135.493 283.438 134.437 283.516C133.381 283.558 132.339 283.264 131.461 282.676C130.636 282.147 129.975 281.398 129.553 280.514C129.175 279.723 129.029 278.84 129.133 277.97C129.241 277.209 129.519 276.483 129.947 275.846C130.556 274.916 131.448 274.207 132.491 273.823C132.653 273.765 132.819 273.719 132.987 273.683C133.107 273.647 133.231 273.625 133.356 273.62C133.426 273.627 133.494 273.645 133.56 273.67Z" fill="#263238"/>
<path d="M145.974 285.971C145.974 285.971 145.707 286.035 145.288 286.225C144.683 286.492 144.173 286.935 143.825 287.497C143.562 287.897 143.407 288.358 143.376 288.835C143.345 289.312 143.438 289.789 143.647 290.219C143.884 290.76 144.28 291.214 144.783 291.522C145.286 291.83 145.872 291.976 146.46 291.942C147.049 291.907 147.613 291.693 148.077 291.328C148.54 290.964 148.881 290.466 149.053 289.901C149.211 289.45 149.248 288.964 149.161 288.494C149.074 288.023 148.866 287.583 148.557 287.218C148.146 286.698 147.587 286.317 146.954 286.124C146.509 285.984 146.242 285.996 146.242 285.958C146.488 285.894 146.746 285.894 146.992 285.958C147.572 286.096 148.105 286.387 148.535 286.801C148.964 287.215 149.275 287.737 149.434 288.311C149.592 288.856 149.592 289.434 149.434 289.978C149.247 290.609 148.869 291.167 148.354 291.577C147.838 291.986 147.208 292.226 146.551 292.265C145.893 292.304 145.24 292.14 144.679 291.794C144.119 291.448 143.678 290.939 143.418 290.334C143.163 289.822 143.07 289.246 143.151 288.68C143.219 288.197 143.397 287.736 143.672 287.332C144.063 286.743 144.634 286.297 145.3 286.06C145.516 285.981 145.746 285.951 145.974 285.971Z" fill="#263238"/>
<path d="M131.55 248.46C131.55 248.46 131.55 248.243 131.55 247.824C131.55 247.404 131.55 246.768 131.55 245.954C131.55 245.534 131.55 245.076 131.55 244.567C131.55 244.058 131.474 243.512 131.436 242.914C131.397 242.316 131.347 241.642 131.283 240.98C131.267 240.625 131.22 240.272 131.143 239.924L130.952 238.805C130.325 235.066 129.137 231.442 127.429 228.057C125.206 223.577 122.144 219.566 118.41 216.24L116.82 214.853C116.261 214.421 115.663 214.014 115.078 213.581L114.175 212.945C113.891 212.712 113.584 212.507 113.259 212.335L111.3 211.152C110.969 210.961 110.651 210.758 110.308 210.579L109.252 210.096L107.128 209.129C106.39 208.824 105.627 208.595 104.876 208.328L103.731 207.934L103.146 207.743L102.548 207.603C100.943 207.179 99.3112 206.86 97.664 206.649C96.8245 206.56 95.9722 206.407 95.12 206.356L92.576 206.28C92.1435 206.28 91.711 206.28 91.304 206.28L90.032 206.382C89.1416 206.458 88.2512 206.484 87.3735 206.598C85.5743 206.854 83.7939 207.228 82.0438 207.717L80.7082 208.099C80.492 208.099 80.263 208.214 80.0468 208.29L79.3981 208.544L76.7777 209.562C75.9255 209.943 75.086 210.401 74.2337 210.834C73.814 211.063 73.3815 211.241 72.9617 211.495L71.6897 212.271C70.0413 213.304 68.4647 214.447 66.9706 215.693L64.8209 217.715L64.274 218.224L63.7779 218.784L62.7985 219.916L61.8063 221.035L60.9159 222.307L60.0382 223.579L59.593 224.203C59.4531 224.419 59.3259 224.635 59.1987 224.851L57.6596 227.51C57.2398 228.438 56.8073 229.367 56.3876 230.308C53.0769 238.087 52.4024 246.736 54.4669 254.934L55.3064 257.911L56.413 260.76L56.6929 261.472L57.0363 262.146L57.7232 263.507L58.3973 264.843L59.2114 266.115L60.0128 267.387L60.4071 268.01L60.865 268.595L62.684 270.936C63.9684 272.396 65.3495 273.769 66.818 275.044L67.8992 275.998C68.2553 276.316 68.6624 276.571 69.044 276.851C69.8199 277.398 70.5704 277.983 71.359 278.492L73.7758 279.84L74.3737 280.196L75.0097 280.489L76.2817 281.061C77.9342 281.815 79.6337 282.46 81.3697 282.994C82.2346 283.249 83.1123 283.414 83.9137 283.63L85.1857 283.936C85.6181 284.025 86.0506 284.05 86.4577 284.114L89.0017 284.444C89.8539 284.534 90.7061 284.444 91.5457 284.546C93.2099 284.602 94.8759 284.543 96.5319 284.368H97.1425L97.7403 284.266L98.936 284.063C99.7246 283.91 100.513 283.808 101.276 283.618L103.541 282.994L104.66 282.689L105.728 282.269L107.827 281.455C108.174 281.331 108.511 281.178 108.832 280.997L109.824 280.501C110.473 280.171 111.096 279.865 111.745 279.522L113.526 278.39C117.759 275.682 121.427 272.179 124.325 268.074C124.643 267.629 124.974 267.196 125.279 266.802L126.068 265.454L126.831 264.182C126.958 263.965 127.085 263.762 127.2 263.546C127.314 263.329 127.391 263.1 127.492 262.884L128.637 260.416C128.968 259.628 129.197 258.826 129.464 258.101L129.846 257.02C129.971 256.689 130.068 256.349 130.138 256.003L130.596 254.107C130.723 253.522 130.876 252.988 130.965 252.492C131.054 251.996 131.092 251.538 131.156 251.131C131.257 250.317 131.347 249.706 131.41 249.274C131.474 248.841 131.512 248.65 131.512 248.65C131.512 248.65 131.512 248.867 131.512 249.286L131.283 251.144C131.283 251.551 131.181 252.008 131.118 252.505C131.054 253.001 130.889 253.548 130.761 254.133C130.634 254.718 130.482 255.405 130.329 256.028C130.261 256.379 130.163 256.724 130.036 257.058C129.909 257.414 129.795 257.771 129.667 258.14C129.4 258.877 129.184 259.679 128.841 260.48C128.497 261.281 128.103 262.095 127.721 263.024L127.416 263.685C127.314 263.902 127.174 264.118 127.06 264.334C126.805 264.754 126.551 265.199 126.297 265.606C126.042 266.013 125.775 266.509 125.508 266.98C125.241 267.451 124.872 267.858 124.554 268.316C121.631 272.4 117.947 275.881 113.704 278.568L111.91 279.713C111.287 280.056 110.638 280.374 109.977 280.705L108.997 281.214C108.67 281.392 108.33 281.545 107.98 281.672L105.856 282.498L104.787 282.918L103.668 283.236L101.391 283.872C100.615 284.063 99.8137 284.165 99.025 284.317L97.8166 284.534L97.2188 284.635H96.5955C94.9316 284.819 93.2571 284.887 91.5838 284.839C90.7316 284.839 89.8666 284.839 89.0398 284.737L86.4958 284.406C86.0506 284.406 85.6181 284.317 85.2238 284.216L83.9518 283.923C83.0869 283.707 82.1965 283.541 81.3315 283.287C79.5924 282.757 77.8923 282.107 76.2435 281.341L74.9715 280.768L74.3355 280.476L73.7249 280.12L71.27 278.695C70.4813 278.186 69.7181 277.588 68.9422 277.041C68.5479 276.749 68.1409 276.494 67.7847 276.176L66.6908 275.222C65.14 273.936 63.6821 272.542 62.3278 271.05L60.4834 268.697L60.0255 268.099L59.6185 267.463L58.8171 266.191L58.003 264.919L57.3161 263.571L56.6165 262.197L56.2731 261.51L55.9678 260.76C55.5862 259.806 55.2173 258.839 54.8485 257.885C54.4796 256.931 54.2888 255.888 53.9962 254.883C51.9359 246.613 52.628 237.896 55.9678 230.054L57.2398 227.217C57.7613 226.327 58.2829 225.436 58.7917 224.546C58.9316 224.33 59.0461 224.101 59.186 223.885L59.6312 223.261L60.5343 221.989L61.4247 220.717L62.4296 219.572L63.4217 218.44L63.9178 217.881L64.4648 217.359L66.6399 215.311C68.149 214.058 69.7428 212.911 71.4099 211.877L72.6819 211.101C73.0889 210.834 73.5341 210.656 73.9539 210.427C74.8061 210.007 75.6457 209.536 76.4979 209.155L79.1437 208.124L79.8051 207.87L80.4665 207.679L81.8149 207.31C83.5766 206.816 85.3701 206.442 87.1827 206.191C88.0858 206.077 88.9762 206.038 89.8666 205.962L91.1386 205.873C91.5711 205.873 92.0163 205.873 92.4106 205.873L95.0309 205.949C95.8959 205.949 96.7354 206.153 97.5749 206.255C99.2375 206.461 100.883 206.788 102.498 207.234L103.108 207.374C103.299 207.374 103.49 207.501 103.681 207.565L104.838 207.959C105.601 208.239 106.377 208.455 107.102 208.76L109.392 209.88L110.448 210.363L111.452 210.936L113.411 212.08C113.735 212.266 114.046 212.474 114.34 212.704L115.243 213.352C115.828 213.785 116.439 214.192 116.998 214.624L118.601 216.024C122.367 219.392 125.446 223.456 127.67 227.993C129.379 231.397 130.555 235.044 131.156 238.805C131.219 239.187 131.283 239.568 131.347 239.924C131.412 240.277 131.455 240.634 131.474 240.993C131.474 241.68 131.575 242.329 131.614 242.926C131.652 243.524 131.703 244.084 131.715 244.593C131.728 245.102 131.715 245.559 131.715 245.979C131.715 246.793 131.715 247.417 131.715 247.849L131.55 248.46Z" fill="#263238"/>
<path d="M560.227 566.04C560.168 565.861 560.096 565.687 560.011 565.519C559.833 565.15 559.604 564.666 559.311 564.03C558.458 562.104 557.773 560.108 557.263 558.065C555.621 550.472 555.677 542.61 557.428 535.042C558.522 529.796 559.95 524.625 561.702 519.561C563.509 514.079 565.62 508.253 567.325 501.957C569.268 495.381 570.207 488.55 570.11 481.694C569.843 474.533 567.732 467.384 565.391 460.261C563.051 453.137 560.659 446.167 559.934 439.158C559.122 432.423 560.458 425.603 563.75 419.671C566.841 413.985 570.721 409.114 573.634 404.076C576.345 399.404 578.347 394.354 579.574 389.092C581.32 381.461 581.446 373.548 579.943 365.866C579.408 363.058 578.598 360.31 577.526 357.661C577.556 357.847 577.603 358.03 577.666 358.208C577.793 358.602 577.946 359.124 578.162 359.785C578.768 361.802 579.269 363.848 579.663 365.916C581.05 373.559 580.846 381.405 579.065 388.965C577.825 394.17 575.814 399.16 573.099 403.771C570.199 408.745 566.307 413.591 563.152 419.34C559.753 425.383 558.359 432.349 559.171 439.234C559.896 446.358 562.313 453.379 564.641 460.49C566.968 467.6 569.067 474.685 569.334 481.719C569.439 488.499 568.526 495.257 566.625 501.766C564.933 508.037 562.809 513.863 561.066 519.37C559.327 524.463 557.925 529.664 556.869 534.94C554.91 544.632 555.47 552.824 556.932 558.141C557.48 560.187 558.213 562.18 559.12 564.094L559.896 565.557C559.988 565.73 560.099 565.892 560.227 566.04Z" fill="#263238"/>
<path d="M569.741 408.999C569.741 408.999 575.643 390.123 565.048 379.069C564.966 378.979 564.86 378.914 564.743 378.881C564.625 378.849 564.501 378.849 564.385 378.884C564.268 378.918 564.163 378.985 564.082 379.076C564.002 379.168 563.948 379.28 563.928 379.4C563.369 382.516 562.656 392.005 569.741 408.999Z" fill="#9468F1"/>
<path d="M566.205 385.416C566.215 386.588 566.347 387.756 566.599 388.901C566.981 391.305 567.439 394.117 567.948 397.233C568.457 400.349 568.889 403.16 569.22 405.552C569.313 406.719 569.522 407.873 569.843 408.999C569.946 407.828 569.908 406.65 569.729 405.488C569.538 403.338 569.156 400.4 568.622 397.106C568.088 393.811 567.528 390.924 567.057 388.812C566.897 387.653 566.611 386.514 566.205 385.416Z" fill="#263238"/>
<path d="M562.809 453.506C562.809 453.506 559.196 434.07 544.67 429.249C544.556 429.212 544.433 429.207 544.316 429.234C544.199 429.261 544.092 429.32 544.005 429.403C543.919 429.487 543.857 429.593 543.826 429.709C543.795 429.825 543.797 429.948 543.831 430.063C544.785 433.078 548.601 441.804 562.809 453.506Z" fill="#9468F1"/>
<path d="M548.626 434.273C549.185 435.299 549.846 436.267 550.598 437.161L555.686 443.89C557.581 446.434 559.286 448.698 560.774 450.631C561.415 451.611 562.139 452.534 562.936 453.392C562.479 452.311 561.899 451.287 561.207 450.339C560.024 448.52 558.294 446.078 556.297 443.445C554.3 440.812 552.481 438.496 551.043 436.843C550.334 435.9 549.524 435.039 548.626 434.273Z" fill="#263238"/>
<path d="M566.727 502.288C566.727 502.288 568.927 482.635 556.423 473.808C556.325 473.738 556.209 473.697 556.089 473.688C555.968 473.68 555.848 473.704 555.74 473.759C555.633 473.814 555.542 473.898 555.479 474C555.416 474.103 555.381 474.221 555.38 474.342C555.419 477.509 556.538 486.96 566.727 502.288Z" fill="#9468F1"/>
<path d="M558.751 479.761C558.982 480.911 559.336 482.032 559.807 483.106C560.647 485.383 561.626 488.067 562.707 491.018C563.789 493.969 564.768 496.653 565.595 498.942C565.915 500.066 566.341 501.156 566.867 502.199C566.75 501.031 566.489 499.881 566.091 498.777C565.493 496.704 564.552 493.854 563.407 490.764C562.262 487.673 561.143 484.9 560.291 482.915C559.894 481.811 559.377 480.753 558.751 479.761Z" fill="#263238"/>
<path d="M555.788 551.361C555.788 551.361 557.276 531.632 544.467 523.262C544.367 523.193 544.249 523.153 544.128 523.147C544.006 523.141 543.885 523.17 543.779 523.23C543.673 523.29 543.586 523.378 543.527 523.485C543.469 523.592 543.442 523.713 543.449 523.835C543.602 526.989 545.052 536.402 555.788 551.361Z" fill="#9468F1"/>
<path d="M546.96 529.152C547.249 530.29 547.645 531.397 548.143 532.46C549.059 534.711 550.14 537.344 551.336 540.257C552.531 543.17 553.587 545.828 554.503 548.067C554.853 549.185 555.317 550.263 555.889 551.285C555.721 550.122 555.418 548.982 554.986 547.889C554.312 545.841 553.269 543.03 552.01 539.977C550.751 536.924 549.542 534.202 548.614 532.243C548.186 531.152 547.631 530.114 546.96 529.152Z" fill="#263238"/>
<path d="M578.226 392.412C578.226 392.412 595.754 383.254 596.097 367.951C596.099 367.831 596.068 367.712 596.007 367.607C595.946 367.503 595.858 367.417 595.752 367.36C595.645 367.302 595.525 367.274 595.405 367.28C595.284 367.286 595.167 367.324 595.067 367.392C592.459 369.198 585.247 375.393 578.226 392.412Z" fill="#9468F1"/>
<path d="M592.459 373.218C591.631 374.046 590.897 374.963 590.272 375.953L585.324 382.783C583.479 385.327 581.8 387.642 580.363 389.601C579.621 390.504 578.953 391.465 578.366 392.476C579.271 391.729 580.083 390.874 580.783 389.932C582.169 388.266 584.001 385.9 585.871 383.216C587.74 380.532 589.483 378.128 590.653 376.245C591.36 375.302 591.965 374.287 592.459 373.218Z" fill="#263238"/>
<path d="M559.4 432.95C559.4 432.95 577.488 424.848 578.76 409.584C578.774 409.462 578.754 409.339 578.701 409.228C578.648 409.117 578.564 409.024 578.461 408.959C578.357 408.894 578.236 408.859 578.114 408.859C577.991 408.86 577.871 408.895 577.768 408.961C575.02 410.64 567.439 416.389 559.4 432.95Z" fill="#9468F1"/>
<path d="M574.766 414.672C573.901 415.438 573.117 416.291 572.425 417.216L567.07 423.729L561.715 430.241C560.908 431.089 560.18 432.009 559.54 432.989C560.48 432.29 561.334 431.483 562.084 430.585C563.572 429.007 565.544 426.769 567.63 424.225C569.716 421.681 571.548 419.302 572.82 417.559C573.58 416.677 574.234 415.708 574.766 414.672Z" fill="#263238"/>
<path d="M569.78 478.158C569.78 478.158 582.182 462.754 576.369 448.597C576.324 448.484 576.249 448.386 576.152 448.313C576.054 448.24 575.939 448.195 575.818 448.183C575.697 448.171 575.576 448.193 575.466 448.246C575.357 448.298 575.264 448.38 575.198 448.482C573.532 451.179 569.411 459.765 569.78 478.158Z" fill="#9468F1"/>
<path d="M575.135 454.867C574.719 455.961 574.417 457.095 574.231 458.251C573.71 460.629 573.112 463.415 572.438 466.493L570.632 474.723C570.3 475.845 570.071 476.994 569.945 478.158C570.478 477.114 570.875 476.007 571.128 474.863C571.738 472.777 572.476 469.877 573.163 466.659C573.85 463.44 574.435 460.489 574.74 458.352C575 457.209 575.133 456.04 575.135 454.867Z" fill="#263238"/>
<path d="M557.505 531.365C557.505 531.365 575.415 522.996 576.432 507.719C576.441 507.599 576.417 507.479 576.362 507.373C576.307 507.266 576.223 507.177 576.12 507.115C576.017 507.053 575.899 507.02 575.779 507.022C575.659 507.023 575.542 507.057 575.44 507.121C572.756 508.8 565.277 514.677 557.505 531.365Z" fill="#9468F1"/>
<path d="M572.565 512.819C571.713 513.619 570.942 514.501 570.263 515.452L565.035 522.067C563.063 524.534 561.295 526.76 559.769 528.656C558.982 529.518 558.275 530.451 557.657 531.441C558.601 530.733 559.455 529.913 560.201 528.999C561.664 527.396 563.597 525.12 565.633 522.525C567.668 519.93 569.449 517.538 570.721 515.77C571.442 514.857 572.06 513.868 572.565 512.819Z" fill="#263238"/>
<path d="M521.825 453.621C521.825 453.621 521.825 453.774 521.825 454.054C521.825 454.333 521.825 454.817 521.825 455.326C521.889 456.521 521.952 458.124 522.041 460.121C522.27 464.344 522.601 470.221 522.983 477.255C524.255 484.404 527.905 492.341 532.803 500.036C536.39 505.709 540.155 510.874 543.411 515.669C546.36 519.858 549.013 524.249 551.348 528.809C552.89 531.899 554.137 535.127 555.075 538.451C555.393 539.634 555.622 540.55 555.762 541.186C555.815 541.513 555.905 541.833 556.029 542.14C556.008 541.806 555.966 541.475 555.902 541.147C555.813 540.511 555.622 539.57 555.355 538.374C554.512 534.998 553.327 531.717 551.819 528.58C549.539 523.959 546.916 519.516 543.971 515.288C540.753 510.454 537 505.29 533.426 499.642C528.567 492.01 524.942 484.175 523.606 477.128C523.11 470.094 522.69 464.23 522.398 460.019C522.232 458.022 522.105 456.42 522.016 455.224C522.016 454.728 521.914 454.308 521.889 453.952C521.878 453.84 521.856 453.729 521.825 453.621Z" fill="#263238"/>
<path d="M532.484 498.624C532.484 498.624 524.852 480.358 534.443 468.389C534.517 468.292 534.616 468.217 534.73 468.174C534.844 468.131 534.968 468.121 535.087 468.144C535.207 468.168 535.317 468.225 535.406 468.309C535.494 468.393 535.557 468.5 535.588 468.618C536.44 471.645 538.056 481.032 532.484 498.624Z" fill="#9468F1"/>
<path d="M533.871 474.736C533.544 475.864 533.343 477.024 533.273 478.196C533.006 480.333 532.701 483.284 532.459 486.604C532.217 489.924 532.116 492.875 532.116 495.05C532.039 496.221 532.111 497.396 532.332 498.548C532.536 497.398 532.638 496.231 532.637 495.063C532.802 492.633 532.993 489.797 533.197 486.655C533.4 483.513 533.617 480.664 533.795 478.234C533.935 477.074 533.961 475.902 533.871 474.736Z" fill="#263238"/>
<g opacity="0.3">
<path d="M532.484 498.624C532.484 498.624 524.852 480.358 534.443 468.389C534.517 468.292 534.616 468.217 534.73 468.174C534.844 468.131 534.968 468.121 535.087 468.144C535.207 468.168 535.317 468.225 535.406 468.309C535.494 468.393 535.557 468.5 535.588 468.618C536.44 471.645 538.056 481.032 532.484 498.624Z" fill="black"/>
</g>
<path d="M555.991 542.61C555.991 542.61 549.911 523.784 560.392 512.629C560.475 512.543 560.58 512.482 560.695 512.451C560.811 512.42 560.932 512.421 561.047 512.454C561.161 512.486 561.265 512.549 561.347 512.636C561.429 512.723 561.486 512.83 561.512 512.947C562.109 516.063 562.911 525.552 555.991 542.61Z" fill="#9468F1"/>
<path d="M559.299 518.977C558.88 520.072 558.586 521.212 558.421 522.373C557.976 524.484 557.441 527.461 556.933 530.679C556.424 533.897 556.08 536.912 555.902 539.074C555.758 540.24 555.758 541.419 555.902 542.585C556.195 541.455 556.391 540.301 556.487 539.138C556.844 536.734 557.263 533.91 557.759 530.793C558.255 527.677 558.663 524.866 559.031 522.462C559.239 521.312 559.329 520.144 559.299 518.977Z" fill="#263238"/>
<g opacity="0.3">
<path d="M555.991 542.61C555.991 542.61 549.911 523.784 560.392 512.629C560.475 512.543 560.58 512.482 560.695 512.451C560.811 512.42 560.932 512.421 561.047 512.454C561.161 512.486 561.265 512.549 561.347 512.636C561.429 512.723 561.486 512.83 561.512 512.947C562.109 516.063 562.911 525.552 555.991 542.61Z" fill="black"/>
</g>
<path d="M522.792 476.275C522.792 476.275 506.587 464.929 508.228 449.716C508.237 449.595 508.28 449.479 508.351 449.381C508.423 449.283 508.521 449.208 508.633 449.163C508.746 449.118 508.869 449.105 508.988 449.126C509.108 449.148 509.219 449.202 509.309 449.283C511.7 451.407 518.06 458.492 522.792 476.275Z" fill="#9468F1"/>
<g opacity="0.3">
<path d="M522.792 476.275C522.792 476.275 506.587 464.929 508.228 449.716C508.237 449.595 508.28 449.479 508.351 449.381C508.423 449.283 508.521 449.208 508.633 449.163C508.746 449.118 508.869 449.105 508.988 449.126C509.108 449.148 509.219 449.202 509.309 449.283C511.7 451.407 518.06 458.492 522.792 476.275Z" fill="black"/>
</g>
<path d="M511.191 455.376C511.52 456.5 511.972 457.583 512.54 458.607C513.456 460.566 514.804 463.237 516.356 466.137C517.908 469.037 519.434 471.632 520.591 473.451C521.164 474.478 521.856 475.435 522.652 476.3C522.217 475.213 521.681 474.17 521.049 473.184C519.879 471.06 518.505 468.554 517.004 465.794L512.985 458.378C512.49 457.319 511.889 456.314 511.191 455.376Z" fill="#263238"/>
<path d="M549.504 523.95C549.504 523.95 529.966 520.897 524.738 506.523C524.694 506.411 524.681 506.289 524.702 506.17C524.724 506.051 524.778 505.94 524.858 505.85C524.939 505.76 525.043 505.695 525.159 505.661C525.275 505.627 525.398 505.626 525.514 505.658C528.516 506.523 537.344 510.072 549.504 523.95Z" fill="#9468F1"/>
<g opacity="0.3">
<path d="M549.504 523.95C549.504 523.95 529.966 520.897 524.738 506.523C524.694 506.411 524.681 506.289 524.702 506.17C524.724 506.051 524.778 505.94 524.858 505.85C524.939 505.76 525.043 505.695 525.159 505.661C525.275 505.627 525.398 505.626 525.514 505.658C528.516 506.523 537.344 510.072 549.504 523.95Z" fill="black"/>
</g>
<path d="M529.813 510.326C530.599 511.196 531.483 511.973 532.447 512.641C534.138 513.99 536.517 515.796 539.201 517.729C541.885 519.663 544.391 521.304 546.235 522.423C547.199 523.097 548.241 523.652 549.339 524.076C548.466 523.292 547.521 522.594 546.515 521.99L539.633 517.131L532.765 512.234C531.846 511.503 530.857 510.864 529.813 510.326Z" fill="#263238"/>
<path d="M572.578 559.909L566.969 596.67L544.594 596.632L537.051 559.909H572.578Z" fill="#455A64"/>
<path d="M552.15 571.713C552.758 570.796 553.114 569.734 553.18 568.635C553.246 568.02 553.14 567.4 552.872 566.842C552.605 566.285 552.187 565.813 551.666 565.48C551.073 565.181 550.409 565.052 549.747 565.106C549.085 565.16 548.451 565.395 547.914 565.786C546.802 566.6 546.039 567.804 545.777 569.157C545.479 570.522 545.385 571.923 545.497 573.316C545.567 574.767 545.872 576.198 546.4 577.552C546.935 578.974 547.808 580.244 548.944 581.253C550.142 582.316 551.659 582.951 553.256 583.06C554.842 583.093 556.402 582.65 557.734 581.788C559.009 580.971 560.14 579.948 561.079 578.76C562.038 577.618 562.628 576.212 562.771 574.728C562.827 573.998 562.712 573.266 562.436 572.588C562.16 571.91 561.73 571.306 561.181 570.823C560.613 570.405 559.936 570.16 559.232 570.117C558.528 570.074 557.827 570.235 557.212 570.581C556.627 570.874 556.117 571.297 555.72 571.817C555.323 572.338 555.051 572.942 554.923 573.583C554.756 574.725 554.937 575.891 555.443 576.928C555.949 577.965 556.756 578.825 557.759 579.396C559.409 580.296 561.327 580.576 563.165 580.185C564.513 579.899 565.804 579.387 566.981 578.671C567.731 578.232 568.453 577.748 569.143 577.221C569.397 577.051 569.627 576.85 569.83 576.623C569.567 576.775 569.313 576.941 569.067 577.119C568.571 577.437 567.795 577.933 566.867 578.468C565.678 579.131 564.389 579.595 563.051 579.841C561.311 580.168 559.513 579.88 557.963 579.027C557.057 578.489 556.332 577.694 555.879 576.743C555.426 575.791 555.266 574.727 555.419 573.685C555.539 573.123 555.784 572.596 556.136 572.142C556.489 571.688 556.939 571.32 557.454 571.065C557.976 570.771 558.571 570.634 559.169 570.67C559.767 570.706 560.342 570.914 560.825 571.268C561.3 571.695 561.67 572.226 561.906 572.82C562.142 573.413 562.238 574.053 562.186 574.69C562.042 576.056 561.488 577.347 560.596 578.391C559.699 579.516 558.625 580.487 557.416 581.266C556.189 582.072 554.749 582.493 553.282 582.474C551.823 582.366 550.439 581.785 549.338 580.821C548.263 579.879 547.429 578.693 546.909 577.361C546.4 576.064 546.104 574.694 546.031 573.303C545.917 571.971 545.999 570.63 546.273 569.322C546.494 568.097 547.172 567.002 548.168 566.256C548.622 565.919 549.158 565.711 549.72 565.655C550.283 565.599 550.85 565.697 551.361 565.938C551.801 566.23 552.153 566.637 552.377 567.114C552.602 567.592 552.69 568.123 552.633 568.648C552.581 569.663 552.261 570.646 551.704 571.497C550.688 572.964 549.224 574.061 547.532 574.626C546.26 575.074 544.905 575.234 543.564 575.097C542.414 574.959 541.296 574.628 540.256 574.117C540.256 574.117 540.256 574.117 540.434 574.257C540.628 574.378 540.827 574.488 541.032 574.588C541.832 574.98 542.692 575.234 543.576 575.338C544.962 575.525 546.372 575.39 547.698 574.944C549.482 574.385 551.036 573.26 552.124 571.739" fill="#263238"/>
</svg>
