<svg width="345" height="523" viewBox="0 0 345 523" fill="none" xmlns="http://www.w3.org/2000/svg">
<path d="M344.567 0.631836H0.998535V522.167H344.567V0.631836Z" fill="white"/>
<path d="M343.968 27.1934H0.299316V251.641H343.968V27.1934Z" fill="#F5F5F5"/>
<path d="M84.257 283.343V288.335H91.596V290.132H84.257V296.057H82.1602V281.412H92.5113V283.343H84.257Z" fill="#263238"/>
<path d="M93.7761 290.565C93.7563 289.419 94.078 288.293 94.7004 287.33C95.3227 286.367 96.2176 285.612 97.2708 285.159C98.3241 284.707 99.4883 284.578 100.615 284.789C101.742 285.001 102.78 285.543 103.597 286.346C104.415 287.15 104.975 288.178 105.206 289.301C105.437 290.424 105.329 291.59 104.895 292.651C104.461 293.712 103.721 294.62 102.769 295.259C101.817 295.898 100.697 296.24 99.5508 296.24C98.7917 296.274 98.0337 296.152 97.324 295.881C96.6144 295.609 95.9683 295.194 95.4264 294.661C94.8844 294.129 94.4581 293.49 94.1742 292.785C93.8902 292.08 93.7547 291.325 93.7761 290.565ZM103.279 290.565C103.246 289.832 102.998 289.124 102.567 288.53C102.135 287.936 101.539 287.483 100.852 287.225C100.164 286.968 99.4163 286.918 98.7008 287.082C97.9854 287.246 97.3339 287.617 96.8275 288.148C96.321 288.679 95.9819 289.348 95.8523 290.07C95.7227 290.793 95.8083 291.537 96.0984 292.212C96.3886 292.886 96.8705 293.46 97.4843 293.862C98.0982 294.265 98.8168 294.478 99.5508 294.476C100.06 294.489 100.566 294.395 101.036 294.201C101.506 294.006 101.931 293.715 102.282 293.347C102.633 292.979 102.903 292.541 103.075 292.062C103.246 291.582 103.316 291.073 103.279 290.565Z" fill="#263238"/>
<path d="M114.062 284.908V286.855H113.596C113.108 286.826 112.62 286.906 112.166 287.088C111.712 287.269 111.304 287.549 110.97 287.907C110.636 288.264 110.385 288.691 110.235 289.156C110.085 289.621 110.04 290.114 110.102 290.599V296.124H108.088V285.008H110.018V286.855C110.446 286.187 111.05 285.652 111.764 285.308C112.478 284.964 113.274 284.826 114.062 284.908Z" fill="#263238"/>
<path d="M127.027 285.008V294.577C127.027 298.504 125.046 300.268 121.285 300.268C119.381 300.352 117.507 299.763 115.993 298.604L116.942 297.056C118.16 298.013 119.67 298.524 121.219 298.504C123.831 298.504 125.03 297.289 125.03 294.776V293.894C124.527 294.448 123.908 294.884 123.218 295.172C122.528 295.459 121.783 295.592 121.036 295.559C120.306 295.599 119.575 295.491 118.889 295.239C118.202 294.988 117.574 294.599 117.043 294.097C116.512 293.594 116.089 292.989 115.8 292.318C115.51 291.646 115.361 290.923 115.361 290.192C115.361 289.461 115.51 288.737 115.8 288.066C116.089 287.394 116.512 286.789 117.043 286.287C117.574 285.784 118.202 285.395 118.889 285.144C119.575 284.893 120.306 284.784 121.036 284.825C121.813 284.789 122.589 284.937 123.3 285.255C124.01 285.572 124.637 286.052 125.129 286.655V284.991L127.027 285.008ZM125.063 290.25C124.999 289.281 124.569 288.372 123.859 287.708C123.15 287.044 122.215 286.675 121.244 286.675C120.272 286.675 119.337 287.044 118.628 287.708C117.919 288.372 117.488 289.281 117.424 290.25C117.488 291.219 117.919 292.128 118.628 292.792C119.337 293.456 120.272 293.825 121.244 293.825C122.215 293.825 123.15 293.456 123.859 292.792C124.569 292.128 124.999 291.219 125.063 290.25Z" fill="#263238"/>
<path d="M129.839 290.565C129.819 289.419 130.141 288.293 130.763 287.33C131.386 286.367 132.281 285.612 133.334 285.159C134.387 284.707 135.551 284.578 136.678 284.789C137.805 285.001 138.843 285.543 139.661 286.346C140.478 287.15 141.038 288.178 141.269 289.301C141.5 290.424 141.392 291.59 140.958 292.651C140.524 293.712 139.784 294.62 138.832 295.259C137.881 295.898 136.76 296.24 135.614 296.24C134.855 296.274 134.097 296.152 133.387 295.881C132.677 295.609 132.031 295.194 131.489 294.661C130.947 294.129 130.521 293.49 130.237 292.785C129.953 292.08 129.818 291.325 129.839 290.565ZM139.342 290.565C139.309 289.832 139.061 289.124 138.63 288.53C138.199 287.936 137.602 287.483 136.915 287.225C136.227 286.968 135.479 286.918 134.764 287.082C134.048 287.246 133.397 287.617 132.891 288.148C132.384 288.679 132.045 289.348 131.915 290.07C131.786 290.793 131.871 291.537 132.161 292.212C132.452 292.886 132.934 293.46 133.547 293.862C134.161 294.265 134.88 294.478 135.614 294.476C136.123 294.489 136.629 294.395 137.099 294.201C137.569 294.006 137.994 293.715 138.345 293.347C138.696 292.979 138.966 292.541 139.138 292.062C139.31 291.582 139.379 291.073 139.342 290.565Z" fill="#263238"/>
<path d="M150.391 295.458C149.694 295.987 148.837 296.262 147.962 296.24C147.49 296.295 147.012 296.244 146.563 296.089C146.115 295.934 145.706 295.68 145.369 295.346C145.032 295.012 144.774 294.606 144.615 294.159C144.456 293.711 144.4 293.234 144.45 292.762V286.671H142.553V285.007H144.517V282.577H146.514V285.007H149.692V286.671H146.514V292.679C146.486 292.913 146.508 293.151 146.578 293.377C146.649 293.603 146.767 293.81 146.925 293.987C147.082 294.163 147.275 294.304 147.492 294.4C147.708 294.496 147.942 294.544 148.178 294.543C148.744 294.545 149.295 294.358 149.742 294.01L150.391 295.458Z" fill="#263238"/>
<path d="M169.929 290.566C169.969 291.316 169.852 292.067 169.585 292.769C169.318 293.471 168.907 294.11 168.379 294.644C167.851 295.178 167.218 295.596 166.519 295.871C165.82 296.146 165.071 296.272 164.32 296.241C163.579 296.264 162.844 296.111 162.173 295.796C161.502 295.481 160.915 295.012 160.459 294.427V300.169H158.446V285.008H160.376V286.755C160.835 286.15 161.433 285.664 162.119 285.339C162.806 285.015 163.561 284.861 164.32 284.891C165.071 284.86 165.82 284.986 166.519 285.261C167.218 285.536 167.851 285.954 168.379 286.489C168.907 287.023 169.318 287.662 169.585 288.364C169.852 289.066 169.969 289.816 169.929 290.566ZM167.898 290.566C167.866 289.834 167.619 289.127 167.188 288.533C166.757 287.94 166.162 287.486 165.475 287.228C164.789 286.97 164.042 286.919 163.327 287.082C162.612 287.244 161.96 287.613 161.453 288.143C160.946 288.673 160.605 289.34 160.474 290.061C160.342 290.783 160.426 291.527 160.713 292.201C161.001 292.876 161.48 293.451 162.092 293.856C162.704 294.26 163.421 294.476 164.154 294.477C164.663 294.49 165.17 294.396 165.641 294.202C166.112 294.008 166.538 293.717 166.89 293.349C167.243 292.981 167.514 292.543 167.688 292.064C167.862 291.585 167.933 291.075 167.898 290.566Z" fill="#263238"/>
<path d="M181.395 289.417V296.074H179.464V294.609C179.047 295.172 178.494 295.62 177.857 295.911C177.219 296.202 176.519 296.327 175.82 296.273C173.307 296.273 171.726 294.925 171.726 292.945C171.726 290.965 172.874 289.7 176.169 289.7H179.464V289.317C179.464 287.653 178.466 286.638 176.486 286.638C175.215 286.62 173.976 287.037 172.974 287.819L172.142 286.322C173.463 285.342 175.075 284.838 176.719 284.89C179.681 284.907 181.395 286.372 181.395 289.417ZM179.398 292.745V291.198H176.303C174.306 291.198 173.74 291.98 173.74 292.862C173.74 293.744 174.655 294.659 176.186 294.659C176.868 294.725 177.554 294.571 178.143 294.221C178.733 293.871 179.196 293.343 179.464 292.712L179.398 292.745Z" fill="#263238"/>
<path d="M183.725 294.992L184.557 293.328C185.717 294.078 187.069 294.477 188.451 294.476C190.315 294.476 191.08 293.911 191.08 292.979C191.08 290.482 184.074 292.646 184.074 288.219C184.074 286.239 185.855 284.891 188.7 284.891C190.114 284.868 191.509 285.218 192.744 285.906L191.879 287.487C190.923 286.887 189.812 286.58 188.684 286.605C186.92 286.605 186.071 287.254 186.071 288.136C186.071 290.749 193.094 288.618 193.094 292.929C193.094 294.942 191.263 296.257 188.301 296.257C186.683 296.308 185.087 295.867 183.725 294.992Z" fill="#263238"/>
<path d="M194.209 294.992L195.041 293.328C196.201 294.078 197.554 294.477 198.935 294.476C200.799 294.476 201.565 293.911 201.565 292.979C201.565 290.482 194.558 292.646 194.558 288.219C194.558 286.239 196.339 284.891 199.185 284.891C200.599 284.868 201.994 285.218 203.229 285.906L202.363 287.487C201.407 286.887 200.297 286.58 199.168 286.605C197.404 286.605 196.555 287.254 196.555 288.136C196.555 290.749 203.578 288.618 203.578 292.929C203.578 294.942 201.748 296.257 198.785 296.257C197.167 296.308 195.571 295.867 194.209 294.992Z" fill="#263238"/>
<path d="M222.733 285.007L218.589 296.09H216.659L213.463 287.769L210.218 296.09H208.288L204.111 285.007H206.091L209.32 293.827L212.648 285.007H214.312L217.641 293.877L220.969 285.007H222.733Z" fill="#263238"/>
<path d="M223.365 290.566C223.349 289.424 223.672 288.304 224.294 287.346C224.916 286.389 225.808 285.638 226.858 285.189C227.908 284.74 229.067 284.613 230.189 284.824C231.311 285.035 232.345 285.576 233.159 286.376C233.973 287.176 234.531 288.2 234.762 289.318C234.993 290.436 234.886 291.598 234.455 292.655C234.025 293.712 233.289 294.618 232.343 295.256C231.397 295.895 230.282 296.237 229.14 296.241C228.381 296.275 227.623 296.153 226.913 295.881C226.204 295.61 225.558 295.195 225.016 294.662C224.474 294.129 224.047 293.491 223.764 292.786C223.48 292.081 223.344 291.325 223.365 290.566ZM232.851 290.566C232.815 289.837 232.566 289.134 232.135 288.545C231.703 287.957 231.108 287.507 230.424 287.254C229.739 287 228.995 286.953 228.284 287.118C227.573 287.283 226.926 287.653 226.424 288.183C225.921 288.712 225.586 289.378 225.458 290.097C225.33 290.815 225.416 291.556 225.705 292.226C225.995 292.896 226.474 293.467 227.085 293.867C227.696 294.267 228.41 294.479 229.14 294.477C229.648 294.49 230.154 294.396 230.623 294.202C231.093 294.007 231.516 293.716 231.866 293.347C232.216 292.978 232.485 292.54 232.654 292.061C232.824 291.582 232.891 291.073 232.851 290.566Z" fill="#263238"/>
<path d="M243.635 284.907V286.854H243.169C242.681 286.825 242.192 286.905 241.738 287.087C241.284 287.268 240.876 287.548 240.543 287.905C240.209 288.263 239.958 288.689 239.808 289.155C239.658 289.62 239.612 290.113 239.674 290.598V296.123H237.71V285.006H239.624V286.854C240.049 286.192 240.648 285.66 241.356 285.316C242.063 284.973 242.852 284.831 243.635 284.907Z" fill="#263238"/>
<path d="M256.466 280.58V296.107H254.535V294.343C254.081 294.959 253.482 295.454 252.792 295.785C252.101 296.116 251.34 296.272 250.575 296.24C249.125 296.161 247.76 295.53 246.762 294.476C245.764 293.422 245.207 292.025 245.207 290.573C245.207 289.122 245.764 287.725 246.762 286.671C247.76 285.617 249.125 284.986 250.575 284.907C251.315 284.88 252.052 285.027 252.725 285.337C253.398 285.646 253.99 286.109 254.452 286.688V280.58H256.466ZM254.469 290.565C254.436 289.832 254.189 289.124 253.757 288.53C253.326 287.937 252.729 287.483 252.042 287.225C251.355 286.968 250.607 286.918 249.891 287.082C249.176 287.246 248.524 287.617 248.018 288.148C247.511 288.679 247.172 289.348 247.043 290.07C246.913 290.793 246.999 291.538 247.289 292.212C247.579 292.886 248.061 293.46 248.675 293.863C249.288 294.265 250.007 294.478 250.741 294.476C251.25 294.489 251.756 294.395 252.226 294.201C252.697 294.006 253.121 293.716 253.472 293.347C253.823 292.979 254.093 292.541 254.265 292.062C254.437 291.583 254.506 291.073 254.469 290.565Z" fill="#263238"/>
<path d="M266.817 285.323C266.817 283.992 265.719 283.076 263.822 283.076C263.11 283.037 262.4 283.167 261.749 283.457C261.098 283.746 260.525 284.186 260.077 284.741L258.563 283.659C259.213 282.866 260.043 282.24 260.984 281.832C261.924 281.424 262.948 281.246 263.972 281.312C266.984 281.312 268.964 282.71 268.964 285.04C268.964 288.535 265.27 288.751 265.27 291.497H263.173C263.139 288.202 266.817 287.736 266.817 285.323ZM262.84 294.892C262.877 294.558 263.036 294.25 263.286 294.026C263.536 293.802 263.86 293.678 264.196 293.678C264.532 293.678 264.856 293.802 265.106 294.026C265.357 294.25 265.516 294.558 265.553 294.892C265.516 295.226 265.357 295.534 265.106 295.758C264.856 295.982 264.532 296.106 264.196 296.106C263.86 296.106 263.536 295.982 263.286 295.758C263.036 295.534 262.877 295.226 262.84 294.892Z" fill="#263238"/>
<path d="M308.621 326.162C308.621 326.412 249.743 326.595 177.151 326.595C104.56 326.595 45.6816 326.412 45.6816 326.162C45.6816 325.913 104.543 325.729 177.151 325.729C249.759 325.729 308.621 325.929 308.621 326.162Z" fill="black"/>
<path d="M252.488 340.225C252.488 340.458 218.756 340.657 177.135 340.657C135.514 340.657 101.764 340.458 101.764 340.225C101.764 339.992 135.514 339.792 177.135 339.792C218.756 339.792 252.488 339.925 252.488 340.225Z" fill="black"/>
<path d="M228.724 162.008C234.229 156.874 238.175 150.293 240.113 143.019C242.051 135.746 241.9 128.073 239.68 120.881C237.459 113.689 233.257 107.268 227.556 102.353C221.855 97.438 214.885 94.2281 207.444 93.0909C200.004 91.9536 192.393 92.9351 185.484 95.9228C178.575 98.9105 172.648 103.784 168.38 109.984C164.112 116.185 161.677 123.462 161.354 130.982C161.03 138.502 162.831 145.961 166.551 152.506L158.396 160.111L160.36 173.641L147.696 170.179L137.494 179.698L139.524 193.145L126.877 189.6L118.107 197.771L119.305 206.092L111.583 203.928L106.491 208.688L105.725 221.219L124.414 225.929L185.073 169.347C192.266 172.544 200.241 173.553 208.003 172.248C215.766 170.943 222.972 167.381 228.724 162.008ZM222.733 112.732C224.286 114.394 225.311 116.48 225.678 118.726C226.045 120.971 225.737 123.274 224.795 125.345C223.852 127.416 222.317 129.16 220.382 130.358C218.448 131.555 216.202 132.152 213.928 132.073C211.655 131.994 209.456 131.242 207.61 129.913C205.763 128.583 204.353 126.736 203.557 124.605C202.76 122.474 202.614 120.155 203.136 117.94C203.659 115.726 204.826 113.717 206.491 112.166C208.721 110.089 211.684 108.982 214.729 109.088C217.775 109.194 220.653 110.505 222.733 112.732Z" fill="#263238"/>
<path d="M222.733 112.732C222.733 112.732 221.984 112.033 220.453 111.068C218.276 109.767 215.735 109.212 213.214 109.487C211.171 109.707 209.229 110.492 207.607 111.754C205.985 113.016 204.746 114.704 204.029 116.63C203.313 118.556 203.146 120.644 203.549 122.659C203.952 124.674 204.908 126.537 206.31 128.04C207.712 129.542 209.505 130.625 211.488 131.166C213.47 131.707 215.564 131.685 217.535 131.103C219.506 130.521 221.276 129.402 222.647 127.871C224.017 126.34 224.935 124.457 225.296 122.434C225.759 119.941 225.378 117.365 224.214 115.112C223.382 113.447 222.65 112.782 222.733 112.715C222.816 112.649 222.949 112.865 223.282 113.214C223.771 113.718 224.201 114.277 224.564 114.879C225.917 117.174 226.423 119.871 225.995 122.501C225.746 124.065 225.186 125.564 224.348 126.908C223.509 128.252 222.41 129.414 221.114 130.325C219.818 131.236 218.352 131.878 216.804 132.211C215.255 132.545 213.655 132.565 212.099 132.269C209.592 131.81 207.299 130.555 205.561 128.69C203.822 126.826 202.73 124.451 202.447 121.918C202.26 120.346 202.391 118.753 202.831 117.232C203.272 115.711 204.013 114.295 205.01 113.066C206.008 111.837 207.243 110.82 208.64 110.077C210.038 109.334 211.571 108.878 213.147 108.738C215.807 108.492 218.469 109.187 220.669 110.702C221.278 111.093 221.837 111.556 222.334 112.083C222.733 112.515 222.833 112.715 222.733 112.732Z" fill="#263238"/>
<path d="M228.724 162.008C228.724 162.008 228.541 162.208 228.142 162.557L226.378 164.221C223.986 166.169 221.385 167.843 218.623 169.214C213.364 171.733 207.622 173.08 201.793 173.164C195.963 173.247 190.185 172.064 184.857 169.696H185.189L124.63 226.378L124.464 226.561H124.214L105.525 221.868L105.143 221.785V221.386C105.376 217.475 105.625 213.198 105.891 208.854V208.455L106.025 208.322L111.233 203.463L111.416 203.279H111.683L119.405 205.443L118.789 205.975C118.406 203.396 118.007 200.567 117.591 197.655V197.405L117.774 197.239L126.544 189.051L126.744 188.851H127.01L139.658 192.396L139.042 192.945C138.426 188.651 137.76 184.058 137.095 179.415V179.149L137.294 178.983L139.99 176.453L147.496 169.463L147.696 169.264H147.962L160.626 172.808L159.994 173.358C159.339 168.798 158.69 164.288 158.047 159.828V159.578L158.23 159.395L166.384 151.79L166.301 152.389C163.145 146.783 161.361 140.51 161.092 134.083C160.937 130.978 161.16 127.865 161.758 124.814C162.303 121.813 163.197 118.887 164.42 116.093C167.507 109.029 172.549 102.994 178.952 98.6997C185.355 94.4055 192.852 92.031 200.559 91.8561C208.267 91.6812 215.864 93.7132 222.455 97.7125C229.046 101.712 234.357 107.512 237.761 114.429C240.953 120.955 242.316 128.225 241.705 135.464C241.283 140.861 239.753 146.112 237.211 150.891C236.962 151.391 236.712 151.856 236.463 152.322L235.647 153.587C235.098 154.403 234.649 155.251 234.116 155.867C233.034 157.165 232.202 158.33 231.387 159.195L229.39 161.409L228.741 162.008C228.741 162.008 228.924 161.775 229.323 161.342L231.121 159.428C231.903 158.596 232.785 157.415 233.767 156.1C234.266 155.418 234.699 154.619 235.231 153.82C235.497 153.404 235.764 152.988 236.03 152.539L236.762 151.124C239.22 146.395 240.702 141.218 241.118 135.904C241.534 130.59 240.876 125.246 239.183 120.192C237.491 115.137 234.798 110.475 231.266 106.483C227.734 102.49 223.435 99.2498 218.624 96.9539C213.814 94.658 208.59 93.3539 203.265 93.1191C197.939 92.8843 192.621 93.7236 187.627 95.5872C182.633 97.4507 178.065 100.3 174.196 103.966C170.326 107.632 167.234 112.039 165.103 116.925C163.916 119.658 163.045 122.516 162.507 125.446C161.938 128.428 161.725 131.467 161.874 134.499C162.158 140.753 163.908 146.853 166.983 152.306L167.166 152.639L166.883 152.905L158.746 160.51L158.895 160.077C159.539 164.515 160.188 169.031 160.842 173.624L160.959 174.373L160.21 174.173L147.562 170.628L148.045 170.512L140.54 177.501L137.86 179.981L138.01 179.532C138.676 184.175 139.341 188.785 139.957 193.061L140.074 193.827L139.325 193.627L126.677 190.066L127.143 189.949C124.131 192.779 121.135 195.558 118.373 198.137L118.539 197.704C118.939 200.55 119.338 203.379 119.721 206.025L119.821 206.758L119.105 206.558L111.4 204.394L111.849 204.278L106.74 209.038L106.89 208.721C106.624 213.065 106.357 217.342 106.124 221.253L105.775 220.77L124.464 225.48L124.048 225.596L184.79 169.114L184.94 168.981H185.123C190.377 171.345 196.079 172.548 201.84 172.508C207.601 172.468 213.286 171.185 218.506 168.748C221.26 167.436 223.87 165.841 226.295 163.988L228.108 162.474L228.724 162.008Z" fill="#263238"/>
<path d="M227.376 157.464C232.878 152.333 236.823 145.756 238.761 138.486C240.698 131.217 240.549 123.549 238.331 116.36C236.112 109.171 231.915 102.752 226.218 97.8386C220.521 92.9249 213.555 89.7148 206.119 88.5759C198.682 87.437 191.075 88.4154 184.169 91.399C177.263 94.3827 171.336 99.2509 167.068 105.446C162.8 111.642 160.363 118.914 160.036 126.43C159.709 133.946 161.505 141.402 165.219 147.945L157.081 155.534L159.029 169.08L146.381 165.519L136.196 175.054L138.143 188.584L125.495 185.039L116.725 193.227L117.907 201.548L110.202 199.401L105.093 204.161L104.327 216.692L123.016 221.385L183.675 164.803C190.873 168.018 198.859 169.036 206.633 167.73C214.407 166.425 221.623 162.853 227.376 157.464ZM221.452 108.188C223.005 109.851 224.029 111.936 224.396 114.182C224.763 116.427 224.456 118.731 223.513 120.801C222.571 122.872 221.035 124.616 219.101 125.814C217.167 127.011 214.921 127.608 212.647 127.529C210.373 127.45 208.174 126.698 206.328 125.369C204.482 124.039 203.071 122.192 202.275 120.061C201.479 117.93 201.333 115.611 201.855 113.396C202.377 111.182 203.545 109.173 205.209 107.622C206.312 106.592 207.608 105.789 209.021 105.259C210.435 104.73 211.939 104.485 213.448 104.537C214.956 104.59 216.44 104.939 217.813 105.566C219.187 106.192 220.423 107.083 221.452 108.188Z" fill="#9468F1"/>
<path d="M221.452 108.189C221.452 108.189 220.703 107.49 219.172 106.525C217.017 105.181 214.475 104.596 211.949 104.861C209.911 105.085 207.976 105.871 206.36 107.133C204.743 108.394 203.51 110.079 202.797 112.002C202.083 113.924 201.919 116.006 202.322 118.016C202.725 120.026 203.679 121.885 205.078 123.384C206.477 124.883 208.265 125.963 210.242 126.504C212.22 127.044 214.309 127.024 216.275 126.446C218.242 125.867 220.009 124.753 221.379 123.227C222.748 121.702 223.667 119.826 224.031 117.808C224.49 115.313 224.103 112.736 222.933 110.486C222.101 108.822 221.385 108.156 221.452 108.089C221.518 108.023 221.668 108.239 222.017 108.589C222.501 109.094 222.925 109.652 223.282 110.253C224.641 112.552 225.147 115.256 224.713 117.891C224.463 119.453 223.902 120.949 223.064 122.291C222.226 123.632 221.128 124.793 219.834 125.703C218.541 126.613 217.078 127.256 215.532 127.592C213.986 127.928 212.389 127.951 210.834 127.66C208.328 127.225 206.028 125.995 204.275 124.152C202.521 122.309 201.408 119.95 201.099 117.425C200.917 115.854 201.051 114.262 201.493 112.744C201.935 111.225 202.677 109.81 203.674 108.582C204.671 107.354 205.903 106.338 207.299 105.593C208.694 104.848 210.224 104.39 211.799 104.245C214.461 104.003 217.124 104.704 219.321 106.226C219.934 106.612 220.493 107.076 220.986 107.607C221.335 107.973 221.485 108.173 221.452 108.189Z" fill="#263238"/>
<path d="M227.376 157.465C227.376 157.465 227.193 157.664 226.81 158.014L225.046 159.578C222.651 161.52 220.051 163.194 217.291 164.571C212.03 167.089 206.285 168.436 200.453 168.519C194.62 168.602 188.839 167.42 183.508 165.053H183.841L123.299 221.735L123.115 221.901H122.882L104.177 217.208L103.811 217.109V216.726C104.044 212.815 104.31 208.538 104.56 204.195V203.995L104.693 203.878L109.802 199.102L110.002 198.919H110.268L117.973 201.066L117.357 201.615C116.991 199.036 116.575 196.206 116.159 193.294V193.045L116.359 192.862L125.112 184.69L125.312 184.491L125.595 184.574L138.243 188.119L137.61 188.668L135.663 175.171V174.905L135.846 174.722L138.559 172.209L146.048 165.22L146.247 165.02L146.53 165.103L159.178 168.648L158.546 169.197C157.891 164.637 157.242 160.127 156.599 155.667V155.401L156.798 155.235L164.953 147.629L164.853 148.228C161.697 142.622 159.913 136.35 159.644 129.922C159.497 126.817 159.72 123.705 160.31 120.653C160.858 117.653 161.751 114.727 162.972 111.933C166.759 103.13 173.555 95.9612 182.143 91.7103C190.732 87.4594 200.552 86.4034 209.848 88.7314C219.144 91.0594 227.308 96.6193 232.88 104.416C238.451 112.213 241.066 121.738 240.257 131.287C239.832 136.683 238.303 141.934 235.763 146.714L235.015 148.145L234.199 149.41C233.65 150.225 233.201 151.074 232.685 151.69C231.603 152.988 230.771 154.153 229.955 155.018L228.025 156.865C227.609 157.281 227.376 157.481 227.376 157.481C227.376 157.481 227.576 157.232 227.975 156.799L229.756 154.902C230.538 154.07 231.42 152.888 232.402 151.573C232.901 150.908 233.35 150.109 233.883 149.293L234.682 148.029L235.397 146.597C237.857 141.845 239.324 136.641 239.708 131.304C240.415 121.958 237.793 112.663 232.306 105.064C226.82 97.4648 218.822 92.0517 209.728 89.7822C200.634 87.5127 191.031 88.5333 182.617 92.6633C174.203 96.7932 167.522 103.766 163.755 112.349C162.573 115.081 161.708 117.94 161.175 120.869C160.597 123.85 160.385 126.89 160.543 129.922C160.822 136.175 162.566 142.275 165.635 147.729L165.835 148.062L165.552 148.328L157.397 155.933L157.547 155.501C158.202 159.939 158.851 164.448 159.494 169.031L159.611 169.796L158.879 169.58L146.181 166.018L146.647 165.902L139.158 172.908L136.445 175.421L136.595 174.988C137.278 179.631 137.927 184.224 138.542 188.518L138.659 189.284L137.927 189.067L125.262 185.522L125.745 185.406L116.975 193.577L117.124 193.161C117.524 196.007 117.94 198.819 118.306 201.399L118.406 202.148L117.69 201.948L109.985 199.784L110.434 199.668L105.342 204.428L105.492 204.095C105.226 208.438 104.959 212.732 104.71 216.626L104.36 216.143L123.049 220.87L122.633 220.986L183.375 164.504L183.525 164.371L183.708 164.454C188.965 166.806 194.666 168.003 200.425 167.963C206.184 167.923 211.868 166.647 217.091 164.221C219.849 162.906 222.465 161.311 224.896 159.462L226.694 157.947L227.376 157.465Z" fill="#263238"/>
<path d="M223.698 154.336C225.675 152.221 227.478 149.95 229.09 147.546C230.916 144.697 232.302 141.589 233.201 138.327C234.431 134.003 234.82 129.484 234.349 125.013C233.802 119.611 231.995 114.413 229.074 109.836C225.708 104.597 221.01 100.346 215.461 97.5212C212.488 95.9736 209.294 94.8957 205.992 94.326C204.293 94.0087 202.575 93.8085 200.849 93.7269C199.087 93.6997 197.325 93.7887 195.574 93.9931C188.221 94.8364 181.333 98.015 175.921 103.062C170.508 108.109 166.857 114.759 165.502 122.034C165.176 123.766 164.965 125.517 164.87 127.277C164.836 129.005 164.919 130.735 165.12 132.452C165.455 135.787 166.308 139.049 167.649 142.121C170.079 147.856 173.997 152.837 178.999 156.549C183.352 159.791 188.41 161.958 193.76 162.873C198.171 163.655 202.69 163.582 207.073 162.657C210.391 161.976 213.588 160.804 216.559 159.179C219.068 157.745 221.456 156.109 223.698 154.286C223.698 154.286 223.582 154.436 223.299 154.686L222.051 155.817C221.382 156.43 220.664 156.987 219.904 157.481C218.904 158.239 217.847 158.917 216.742 159.512C213.764 161.217 210.543 162.458 207.19 163.19C199.098 164.997 190.628 163.914 183.25 160.13C175.873 156.345 170.053 150.098 166.8 142.471C165.412 139.299 164.525 135.93 164.171 132.485C163.694 128.97 163.801 125.399 164.487 121.918C165.869 114.432 169.62 107.587 175.187 102.395C180.755 97.2022 187.843 93.936 195.407 93.0778C198.971 92.6192 202.585 92.7429 206.108 93.444C209.498 94.053 212.775 95.1753 215.827 96.7723C221.51 99.6881 226.308 104.072 229.723 109.47C232.419 113.756 234.172 118.566 234.866 123.582C235.561 128.597 235.18 133.703 233.75 138.56C232.79 141.861 231.325 144.993 229.407 147.846C228.747 148.904 228.001 149.906 227.177 150.841C226.623 151.567 226.01 152.246 225.346 152.872L224.131 154.037C223.865 154.22 223.715 154.353 223.698 154.336Z" fill="#263238"/>
<path d="M222.084 125.895C222.001 125.895 222.916 125.03 224.031 123.249C225.6 120.708 226.268 117.713 225.929 114.745C225.698 112.572 224.923 110.491 223.675 108.696C222.427 106.902 220.747 105.451 218.789 104.478C216.502 103.307 213.917 102.849 211.367 103.163C209.365 103.404 207.446 104.107 205.761 105.216C204.077 106.325 202.673 107.81 201.66 109.554C200.647 111.298 200.052 113.253 199.923 115.266C199.794 117.278 200.134 119.294 200.916 121.153C201.832 123.292 203.289 125.155 205.143 126.561C206.776 127.777 208.666 128.603 210.668 128.974C213.608 129.516 216.644 129.053 219.288 127.659C221.152 126.678 222.001 125.812 222.084 125.895C222.167 125.979 221.901 126.145 221.485 126.528C220.879 127.104 220.202 127.602 219.472 128.009C217.193 129.329 214.579 129.957 211.95 129.819C209.32 129.68 206.787 128.779 204.66 127.227C202.532 125.687 200.886 123.574 199.914 121.135C198.941 118.695 198.683 116.029 199.169 113.447C199.705 110.523 201.17 107.848 203.347 105.822C205.523 103.796 208.295 102.525 211.251 102.198C213.993 101.866 216.771 102.371 219.222 103.645C221.433 104.798 223.295 106.522 224.614 108.638C226.004 110.871 226.72 113.458 226.676 116.089C226.632 118.719 225.829 121.281 224.364 123.466C223.888 124.163 223.329 124.8 222.7 125.363C222.334 125.746 222.101 125.929 222.084 125.895Z" fill="#263238"/>
<path d="M118.09 219.09C117.907 218.89 131.553 205.776 148.594 189.95C165.635 174.124 179.598 161.343 179.781 161.542C179.964 161.742 166.317 174.856 149.276 190.682C132.235 206.508 118.273 219.289 118.09 219.09Z" fill="#263238"/>
<path d="M125.612 139.675L126.178 138.443L126.91 139.575C127.508 140.479 128.351 141.195 129.339 141.639L130.588 142.188L129.456 142.937C128.544 143.53 127.822 144.374 127.376 145.366L126.827 146.598L126.078 145.466C125.482 144.56 124.639 143.843 123.648 143.403L122.417 142.853L123.548 142.105C124.46 141.515 125.178 140.67 125.612 139.675Z" fill="#9468F1"/>
<path d="M88.484 130.423L88.8002 129.707L89.2329 130.356C89.5756 130.886 90.0679 131.303 90.6474 131.554L91.363 131.887L90.6974 132.32C90.1745 132.664 89.7592 133.148 89.4992 133.718L89.183 134.45L88.7503 133.784C88.4075 133.254 87.9153 132.837 87.3358 132.586L86.6201 132.253L87.2692 131.837C87.7965 131.486 88.2168 130.997 88.484 130.423Z" fill="#9468F1"/>
<path d="M205.426 193.71L205.742 192.994L206.175 193.66C206.531 194.178 207.019 194.592 207.589 194.858L208.305 195.174L207.656 195.607C207.125 195.95 206.708 196.442 206.458 197.021L206.125 197.737L205.692 197.088C205.351 196.559 204.866 196.138 204.294 195.873L203.562 195.557L204.228 195.124C204.758 194.782 205.175 194.289 205.426 193.71Z" fill="#9468F1"/>
<path d="M262.673 161.26L263.222 160.028L263.971 161.16C264.566 162.067 265.41 162.784 266.401 163.224L267.633 163.773L266.501 164.522C265.593 165.116 264.876 165.959 264.437 166.951L263.871 168.183L263.139 167.051C262.536 166.151 261.695 165.437 260.71 164.988L259.461 164.438L260.593 163.69C261.505 163.096 262.227 162.252 262.673 161.26Z" fill="#9468F1"/>
<path d="M255.234 115.794L256.166 113.714L257.414 115.628C258.417 117.149 259.831 118.355 261.492 119.106L263.572 120.021L261.658 121.269C260.139 122.282 258.934 123.7 258.18 125.363L257.248 127.443L256 125.53C254.997 124.008 253.583 122.802 251.923 122.051L249.842 121.119L251.756 119.871C253.278 118.868 254.484 117.455 255.234 115.794Z" fill="#9468F1"/>
<path d="M114.079 101.781L115.011 99.7012L116.259 101.598C117.257 103.124 118.673 104.331 120.337 105.076L122.417 106.008L120.52 107.257C118.989 108.249 117.781 109.666 117.042 111.334L116.11 113.414L114.862 111.517C113.861 109.987 112.439 108.779 110.768 108.039L108.704 107.107L110.601 105.859C112.127 104.861 113.334 103.446 114.079 101.781Z" fill="#9468F1"/>
<path d="M290.765 418.657C290.765 418.657 291.297 418.657 292.329 418.523C292.978 418.513 293.624 418.441 294.259 418.307L295.474 418.107L296.855 417.741C299.272 417.118 301.567 416.094 303.645 414.713C308.213 411.723 311.619 407.259 313.298 402.065C313.97 399.942 314.339 397.734 314.396 395.508C314.396 394.343 314.396 393.128 314.396 391.93L314.296 390.099C314.296 389.484 314.113 388.868 314.013 388.252C313.531 385.68 312.638 383.201 311.367 380.913C308.488 375.82 303.821 371.977 298.27 370.129C295.256 369.167 292.094 368.75 288.934 368.898H278.849L63.5216 369.031C58.344 369.035 53.3129 370.749 49.2097 373.907C47.2058 375.471 45.4545 377.335 44.0174 379.432C42.6198 381.536 41.5691 383.851 40.9054 386.288C40.5775 387.501 40.3383 388.736 40.1899 389.983C40.1899 391.231 40.0235 392.479 40.0567 393.761C39.9853 396.255 40.2882 398.745 40.9554 401.149C41.641 403.511 42.679 405.755 44.0341 407.806C45.431 409.819 47.1127 411.619 49.0266 413.148C50.9317 414.66 53.0668 415.857 55.3505 416.693C56.4735 417.112 57.6246 417.451 58.7953 417.708C59.977 417.929 61.1725 418.068 62.3733 418.124C67.1828 418.241 72.0422 418.124 76.8017 418.124H104.776L201.581 418.207L266.85 418.357L284.591 418.44H289.217H290.781C290.781 418.44 290.249 418.44 289.217 418.44H284.591L266.85 418.523L201.581 418.657L104.776 418.756H76.785C72.0089 418.756 67.2161 418.756 62.3068 418.756C61.0674 418.7 59.8331 418.561 58.6123 418.34C57.3963 418.069 56.2007 417.713 55.0343 417.275C52.6709 416.416 50.4623 415.18 48.4941 413.614C44.4583 410.457 41.5418 406.088 40.1732 401.149C39.4903 398.668 39.1763 396.1 39.2413 393.528C39.2413 392.263 39.2413 390.948 39.3744 389.667C39.5325 388.375 39.7827 387.095 40.1233 385.839C40.8157 383.309 41.9054 380.905 43.3518 378.716C44.8377 376.537 46.6573 374.605 48.7437 372.992C53.0013 369.739 58.2138 367.984 63.5715 367.999L278.899 368.116H288.984C292.207 367.988 295.428 368.422 298.503 369.397C304.153 371.319 308.894 375.26 311.816 380.464C313.111 382.804 314.016 385.339 314.496 387.969L314.779 389.85C314.779 390.482 314.779 391.098 314.779 391.714C314.779 392.945 314.779 394.127 314.779 395.325C314.706 397.586 314.319 399.827 313.63 401.982C312.979 403.925 312.09 405.781 310.984 407.507C309.132 410.412 306.667 412.877 303.762 414.729C301.646 416.1 299.318 417.112 296.872 417.725L295.474 418.058L294.243 418.241C293.606 418.356 292.96 418.418 292.312 418.424L290.765 418.657Z" fill="#263238"/>
<path d="M290.765 429.357H63.5049C50.3159 429.357 39.624 440.049 39.624 453.238V455.518C39.624 468.707 50.3159 479.399 63.5049 479.399H290.765C303.954 479.399 314.645 468.707 314.645 455.518V453.238C314.645 440.049 303.954 429.357 290.765 429.357Z" fill="#9468F1"/>
<path d="M94.8413 403.613C94.8088 403.12 94.8088 402.625 94.8413 402.132C94.8413 401.1 94.8413 399.752 94.7581 398.088C94.7581 394.527 94.6583 389.601 94.575 383.66L94.9246 383.993L65.1857 384.092L65.6184 383.66V388.885C65.6184 390.549 65.6184 392.313 65.6184 393.978C65.6184 397.306 65.6184 400.534 65.6184 403.58L65.219 403.18L86.5371 403.38L92.6945 403.48H94.3587H94.9578C94.2618 403.559 93.5613 403.593 92.8609 403.58L86.7867 403.68L65.1525 403.879H64.6366V403.48C64.6366 400.435 64.6366 397.223 64.6366 393.878C64.6366 392.214 64.6366 390.549 64.6366 388.785V383.693C64.2538 384.076 65.1691 383.16 65.0693 383.244L94.8081 383.344H95.1575V383.693C95.0743 389.734 95.0078 394.726 94.9745 398.338C94.9745 400.002 94.9745 401.3 94.8746 402.315C94.893 402.748 94.8818 403.182 94.8413 403.613Z" fill="#263238"/>
<path d="M94.8413 383.659C93.554 385.091 92.1635 386.425 90.6808 387.653C88.0514 390.05 84.357 393.295 80.2631 396.856H79.6141L79.5142 396.773L79.3145 396.606L78.9318 396.274L78.1829 395.625L76.7184 394.343L73.9392 391.897L69.2796 387.736C67.7969 386.509 66.4064 385.174 65.1191 383.742C66.7097 384.772 68.2176 385.923 69.629 387.187L74.4052 391.215L77.2177 393.611L78.6988 394.876L79.4643 395.541L79.8304 395.874L80.0301 396.024L80.13 396.107H79.6141C83.7246 392.563 87.469 389.451 90.2149 387.104C91.6636 385.835 93.2105 384.683 94.8413 383.659Z" fill="#263238"/>
<path d="M75.8363 392.945C74.3993 395.015 72.7236 396.909 70.8438 398.587C69.1463 400.46 67.2426 402.134 65.1689 403.579C66.6169 401.518 68.2916 399.626 70.1615 397.938C71.8634 396.07 73.7665 394.395 75.8363 392.945Z" fill="#263238"/>
<path d="M94.8411 403.612C92.8584 402.039 91.0657 400.241 89.4991 398.254C87.7199 396.459 86.1459 394.472 84.8062 392.329C86.7835 393.908 88.5756 395.706 90.1481 397.688C91.9334 399.477 93.508 401.465 94.8411 403.612Z" fill="#263238"/>
<path d="M112.798 397.622V398.288H105.892V388.303H112.548V388.968H106.591V392.912H111.916V393.562H106.591V397.655L112.798 397.622Z" fill="#263238"/>
<path d="M127.492 393.927V398.287H126.777V393.977C126.777 392.313 125.895 391.397 124.447 391.397C124.068 391.381 123.69 391.446 123.339 391.589C122.988 391.732 122.672 391.95 122.413 392.226C122.154 392.503 121.958 392.832 121.838 393.192C121.718 393.551 121.677 393.933 121.718 394.31V398.287H121.002V393.977C121.002 392.313 120.12 391.397 118.672 391.397C118.294 391.381 117.916 391.446 117.565 391.589C117.214 391.732 116.898 391.95 116.638 392.226C116.379 392.503 116.183 392.832 116.063 393.192C115.943 393.551 115.902 393.933 115.943 394.31V398.287H115.228V390.815H115.91V392.479C116.167 391.948 116.577 391.506 117.087 391.21C117.597 390.913 118.184 390.776 118.772 390.815C119.363 390.766 119.953 390.916 120.447 391.242C120.942 391.568 121.314 392.05 121.502 392.612C121.768 392.047 122.197 391.575 122.734 391.255C123.27 390.935 123.89 390.781 124.514 390.815C124.924 390.785 125.336 390.846 125.72 390.994C126.104 391.142 126.451 391.373 126.735 391.67C127.02 391.967 127.235 392.324 127.366 392.714C127.497 393.104 127.54 393.518 127.492 393.927Z" fill="#263238"/>
<path d="M135.813 393.544V398.287H135.131V396.955C134.852 397.411 134.452 397.781 133.977 398.024C133.501 398.268 132.968 398.376 132.435 398.337C130.771 398.337 129.756 397.488 129.756 396.207C129.756 394.925 130.471 394.126 132.535 394.126H135.098V393.527C135.129 393.233 135.092 392.935 134.99 392.657C134.889 392.378 134.725 392.127 134.512 391.922C134.298 391.716 134.041 391.562 133.759 391.471C133.477 391.38 133.178 391.355 132.885 391.397C131.941 391.388 131.025 391.718 130.305 392.329L129.956 391.813C130.792 391.12 131.848 390.748 132.934 390.765C133.317 390.709 133.707 390.742 134.074 390.86C134.442 390.978 134.778 391.18 135.056 391.448C135.334 391.716 135.547 392.045 135.678 392.408C135.809 392.771 135.856 393.16 135.813 393.544ZM135.098 396.073V394.676H132.552C131.004 394.676 130.471 395.325 130.471 396.173C130.471 397.022 131.22 397.754 132.535 397.754C133.086 397.788 133.634 397.642 134.095 397.339C134.557 397.036 134.909 396.592 135.098 396.073Z" fill="#263238"/>
<path d="M138.526 388.436C138.526 388.359 138.541 388.284 138.57 388.213C138.599 388.142 138.642 388.078 138.696 388.024C138.751 387.97 138.815 387.927 138.885 387.898C138.956 387.869 139.032 387.854 139.108 387.854C139.224 387.854 139.336 387.888 139.432 387.952C139.528 388.016 139.602 388.107 139.646 388.213C139.691 388.32 139.702 388.437 139.68 388.55C139.657 388.663 139.602 388.766 139.52 388.848C139.439 388.929 139.335 388.985 139.222 389.007C139.109 389.03 138.992 389.018 138.885 388.974C138.779 388.93 138.688 388.855 138.624 388.76C138.56 388.664 138.526 388.551 138.526 388.436ZM138.742 390.816H139.524V398.288H138.809L138.742 390.816Z" fill="#263238"/>
<path d="M142.47 387.67H143.185V398.287H142.47V387.67Z" fill="#263238"/>
<path d="M122.333 461.093L119.637 457.315C119.272 457.34 118.905 457.34 118.539 457.315H115.31V461.01H114.562V449.76H118.605C121.435 449.76 123.149 451.174 123.149 453.571C123.187 454.375 122.943 455.167 122.46 455.811C121.977 456.455 121.285 456.91 120.503 457.099L123.332 461.043L122.333 461.093ZM118.539 456.683C120.952 456.683 122.25 455.551 122.25 453.621C122.25 451.69 120.952 450.542 118.539 450.542H115.31V456.683H118.539Z" fill="white"/>
<path d="M132.951 457.082H125.712C125.711 457.54 125.804 457.993 125.986 458.412C126.167 458.832 126.433 459.21 126.768 459.522C127.102 459.835 127.497 460.075 127.928 460.228C128.359 460.38 128.817 460.443 129.273 460.411C129.781 460.428 130.286 460.333 130.752 460.132C131.218 459.93 131.634 459.628 131.969 459.246L132.435 459.778C132.041 460.229 131.551 460.585 131.001 460.821C130.451 461.057 129.855 461.167 129.257 461.143C128.685 461.171 128.114 461.08 127.58 460.876C127.045 460.671 126.559 460.358 126.153 459.956C125.746 459.554 125.427 459.072 125.216 458.54C125.006 458.008 124.908 457.438 124.93 456.866C124.894 456.317 124.972 455.766 125.158 455.247C125.344 454.729 125.634 454.254 126.011 453.853C126.388 453.451 126.843 453.131 127.348 452.912C127.853 452.693 128.398 452.58 128.949 452.58C129.499 452.58 130.044 452.693 130.549 452.912C131.055 453.131 131.51 453.451 131.886 453.853C132.263 454.254 132.553 454.729 132.739 455.247C132.925 455.766 133.003 456.317 132.968 456.866C132.968 456.866 132.951 456.999 132.951 457.082ZM125.728 456.45H132.185C132.185 455.594 131.845 454.773 131.24 454.167C130.634 453.562 129.813 453.222 128.957 453.222C128.101 453.222 127.28 453.562 126.674 454.167C126.069 454.773 125.728 455.594 125.728 456.45Z" fill="white"/>
<path d="M134.232 460.078L134.599 459.429C135.47 460.09 136.534 460.447 137.627 460.445C139.408 460.445 140.124 459.829 140.124 458.864C140.124 456.417 134.532 458.231 134.532 454.92C134.532 453.655 135.597 452.623 137.727 452.623C138.752 452.604 139.759 452.888 140.623 453.438L140.24 454.087C139.497 453.575 138.613 453.307 137.711 453.322C136.046 453.322 135.347 454.004 135.347 454.903C135.347 457.432 140.922 455.652 140.922 458.864C140.922 460.228 139.741 461.16 137.594 461.16C136.382 461.198 135.195 460.816 134.232 460.078Z" fill="white"/>
<path d="M150.292 457.082H143.053C143.051 457.54 143.145 457.992 143.326 458.412C143.508 458.832 143.774 459.21 144.108 459.522C144.443 459.835 144.837 460.075 145.269 460.227C145.7 460.38 146.158 460.443 146.614 460.411C147.122 460.428 147.627 460.333 148.093 460.132C148.559 459.93 148.975 459.628 149.31 459.246L149.776 459.778C149.38 460.227 148.889 460.582 148.34 460.818C147.79 461.054 147.195 461.165 146.597 461.143C146.025 461.171 145.453 461.08 144.918 460.876C144.383 460.671 143.896 460.359 143.488 459.957C143.08 459.555 142.759 459.073 142.547 458.541C142.335 458.009 142.235 457.438 142.254 456.866C142.222 456.316 142.303 455.766 142.492 455.249C142.681 454.732 142.974 454.26 143.353 453.86C143.732 453.461 144.189 453.144 144.696 452.928C145.202 452.712 145.747 452.602 146.298 452.606C146.845 452.6 147.387 452.707 147.89 452.92C148.394 453.134 148.848 453.449 149.224 453.845C149.601 454.242 149.891 454.712 150.078 455.226C150.264 455.74 150.343 456.287 150.308 456.833C150.308 456.833 150.292 456.999 150.292 457.082ZM143.069 456.45H149.51C149.451 455.636 149.086 454.874 148.489 454.318C147.891 453.762 147.106 453.453 146.289 453.453C145.473 453.453 144.687 453.762 144.09 454.318C143.493 454.874 143.128 455.636 143.069 456.45Z" fill="white"/>
<path d="M156.982 460.561C156.515 460.95 155.925 461.162 155.317 461.16C155.009 461.191 154.697 461.154 154.405 461.049C154.113 460.945 153.848 460.776 153.629 460.556C153.41 460.336 153.244 460.069 153.141 459.777C153.039 459.484 153.004 459.172 153.037 458.863V453.371H151.49V452.672H153.037V450.842H153.836V452.672H156.516V453.371H153.836V458.797C153.836 459.878 154.369 460.461 155.401 460.461C155.882 460.475 156.35 460.309 156.715 459.995L156.982 460.561Z" fill="white"/>
<path d="M172.225 453.621C172.225 455.984 170.561 457.398 167.682 457.398H164.487V461.093H163.655V449.76H167.715C170.511 449.76 172.225 451.224 172.225 453.621ZM171.393 453.621C171.393 451.657 170.095 450.542 167.682 450.542H164.487V456.666H167.715C170.095 456.666 171.393 455.551 171.393 453.621Z" fill="white"/>
<path d="M180.746 455.751V461.093H179.964V459.595C179.655 460.113 179.208 460.533 178.673 460.81C178.137 461.086 177.536 461.207 176.935 461.16C175.055 461.16 173.906 460.194 173.906 458.763C173.906 457.332 174.705 456.4 177.052 456.4H179.931V455.734C179.967 455.401 179.927 455.064 179.813 454.749C179.699 454.434 179.515 454.149 179.274 453.916C179.033 453.683 178.742 453.509 178.423 453.406C178.104 453.302 177.766 453.274 177.434 453.321C176.366 453.309 175.33 453.688 174.522 454.386L174.123 453.804C175.061 453.034 176.238 452.617 177.451 452.622C177.885 452.553 178.329 452.585 178.748 452.716C179.168 452.846 179.552 453.071 179.87 453.374C180.189 453.676 180.434 454.048 180.586 454.46C180.737 454.872 180.792 455.314 180.746 455.751ZM179.931 458.613V457.032H177.068C175.321 457.032 174.705 457.765 174.705 458.697C174.705 459.628 175.554 460.461 177.052 460.461C177.666 460.504 178.279 460.347 178.797 460.014C179.316 459.681 179.713 459.19 179.931 458.613Z" fill="white"/>
<path d="M182.793 460.079L183.159 459.43C184.026 460.099 185.093 460.456 186.188 460.445C187.969 460.445 188.668 459.829 188.668 458.864C188.668 456.418 183.093 458.231 183.093 454.92C183.093 453.655 184.158 452.623 186.288 452.623C187.307 452.602 188.31 452.886 189.167 453.439L188.801 454.088C188.057 453.577 187.173 453.31 186.271 453.322C184.607 453.322 183.891 454.004 183.891 454.903C183.891 457.433 189.483 455.652 189.483 458.864C189.483 460.228 188.301 461.16 186.155 461.16C184.942 461.201 183.754 460.818 182.793 460.079Z" fill="white"/>
<path d="M190.531 460.078L190.897 459.429C191.769 460.09 192.833 460.447 193.926 460.445C195.707 460.445 196.422 459.829 196.422 458.864C196.422 456.417 190.831 458.231 190.831 454.92C190.831 453.655 191.896 452.623 194.026 452.623C195.05 452.604 196.058 452.888 196.922 453.438L196.539 454.087C195.796 453.575 194.912 453.307 194.009 453.322C192.345 453.322 191.646 454.004 191.646 454.903C191.646 457.432 197.221 455.652 197.221 458.864C197.221 460.228 196.04 461.16 193.893 461.16C192.681 461.198 191.494 460.816 190.531 460.078Z" fill="white"/>
<path d="M211.35 452.673L208.155 461.094H207.389L204.56 453.788L201.698 461.094H200.966L197.771 452.673H198.536L201.348 460.195L204.228 452.673H204.91L207.772 460.178L210.601 452.673H211.35Z" fill="white"/>
<path d="M212.066 456.883C212.079 456.053 212.337 455.245 212.808 454.561C213.28 453.877 213.943 453.347 214.714 453.039C215.486 452.731 216.331 452.658 217.143 452.83C217.956 453.001 218.7 453.409 219.282 454.002C219.863 454.595 220.256 455.347 220.412 456.163C220.567 456.979 220.477 457.822 220.154 458.587C219.831 459.353 219.289 460.005 218.596 460.463C217.903 460.921 217.09 461.163 216.259 461.16C215.697 461.177 215.137 461.077 214.615 460.867C214.093 460.657 213.62 460.341 213.227 459.939C212.833 459.537 212.526 459.058 212.326 458.532C212.127 458.007 212.038 457.445 212.066 456.883ZM219.654 456.883C219.612 456.236 219.382 455.615 218.991 455.096C218.601 454.578 218.067 454.186 217.457 453.966C216.846 453.747 216.185 453.712 215.554 453.863C214.923 454.015 214.351 454.348 213.906 454.821C213.462 455.294 213.166 455.886 213.054 456.526C212.942 457.165 213.02 457.822 213.277 458.418C213.534 459.014 213.959 459.521 214.501 459.878C215.043 460.235 215.677 460.426 216.326 460.428C216.782 460.429 217.233 460.336 217.652 460.155C218.07 459.975 218.447 459.71 218.759 459.378C219.071 459.045 219.312 458.652 219.466 458.223C219.62 457.794 219.684 457.338 219.654 456.883Z" fill="white"/>
<path d="M226.96 452.624V453.406H226.76C224.896 453.406 223.781 454.654 223.781 456.734V461.111H222.982V452.69H223.748V454.537C224.014 453.921 224.468 453.405 225.045 453.062C225.621 452.718 226.291 452.565 226.96 452.624Z" fill="white"/>
<path d="M236.579 449.128V461.093H235.797V459.113C235.476 459.745 234.981 460.274 234.371 460.636C233.761 460.998 233.061 461.18 232.352 461.16C231.266 461.092 230.247 460.613 229.502 459.82C228.757 459.027 228.342 457.979 228.342 456.891C228.342 455.803 228.757 454.756 229.502 453.963C230.247 453.17 231.266 452.691 232.352 452.623C233.055 452.605 233.748 452.784 234.354 453.14C234.96 453.495 235.454 454.014 235.78 454.636V449.128H236.579ZM235.78 456.883C235.738 456.236 235.508 455.615 235.117 455.096C234.727 454.578 234.193 454.186 233.583 453.966C232.972 453.747 232.311 453.712 231.68 453.863C231.049 454.015 230.477 454.348 230.033 454.821C229.588 455.294 229.292 455.886 229.18 456.526C229.069 457.165 229.146 457.822 229.403 458.418C229.66 459.014 230.086 459.521 230.627 459.878C231.169 460.235 231.803 460.426 232.452 460.428C232.908 460.429 233.359 460.336 233.778 460.155C234.196 459.975 234.573 459.71 234.885 459.378C235.197 459.045 235.438 458.652 235.592 458.223C235.746 457.794 235.81 457.338 235.78 456.883Z" fill="white"/>
<path d="M343.951 27.1934C343.951 27.4264 267.017 27.6261 172.125 27.6261C77.2341 27.6261 0.299316 27.4264 0.299316 27.1934C0.299316 26.9604 77.2175 26.7607 172.125 26.7607C267.033 26.7607 343.951 26.9604 343.951 27.1934Z" fill="#263238"/>
<path d="M19.7037 13.5472C19.7004 14.3727 19.4527 15.1786 18.9917 15.8633C18.5307 16.5481 17.8772 17.0809 17.1137 17.3945C16.3501 17.7081 15.5108 17.7884 14.7016 17.6254C13.8924 17.4623 13.1497 17.0632 12.5672 16.4784C11.9847 15.8935 11.5885 15.1492 11.4287 14.3394C11.2688 13.5296 11.3525 12.6906 11.6691 11.9283C11.9858 11.166 12.5212 10.5146 13.2077 10.0563C13.8943 9.59809 14.7012 9.35352 15.5267 9.35352C16.0766 9.35351 16.6211 9.4621 17.129 9.67306C17.6369 9.88402 18.0981 10.1932 18.4862 10.5828C18.8743 10.9725 19.1816 11.4349 19.3906 11.9436C19.5995 12.4523 19.7059 12.9973 19.7037 13.5472Z" fill="#263238"/>
<path d="M31.7858 13.5472C31.7825 14.3727 31.5347 15.1786 31.0737 15.8633C30.6127 16.5481 29.9592 17.0809 29.1957 17.3945C28.4321 17.7081 27.5928 17.7884 26.7836 17.6254C25.9745 17.4623 25.2317 17.0632 24.6492 16.4784C24.0667 15.8935 23.6705 15.1492 23.5107 14.3394C23.3509 13.5296 23.4346 12.6906 23.7512 11.9283C24.0678 11.166 24.6032 10.5146 25.2898 10.0563C25.9763 9.59809 26.7832 9.35352 27.6087 9.35352C28.1586 9.35351 28.7032 9.4621 29.211 9.67306C29.7189 9.88402 30.1801 10.1932 30.5682 10.5828C30.9563 10.9725 31.2636 11.4349 31.4726 11.9436C31.6815 12.4523 31.788 12.9973 31.7858 13.5472Z" fill="#263238"/>
<path d="M43.8009 13.5466C43.7976 14.3741 43.5485 15.182 43.0853 15.8678C42.622 16.5535 41.9655 17.0862 41.1991 17.3983C40.4326 17.7104 39.5908 17.7878 38.7803 17.6206C37.9698 17.4535 37.2272 17.0494 36.6467 16.4595C36.0662 15.8697 35.674 15.1207 35.5199 14.3077C35.3657 13.4946 35.4566 12.6541 35.7809 11.8927C36.1052 11.1314 36.6483 10.4835 37.3414 10.0313C38.0345 9.57909 38.8463 9.34295 39.6738 9.35284C40.7758 9.366 41.828 9.81417 42.6011 10.5997C43.3741 11.3852 43.8054 12.4444 43.8009 13.5466Z" fill="#263238"/>
<path d="M344.567 522.152C344.567 518.591 344.401 307.573 344.168 0.632959L344.567 1.03236H0.432676L0.865352 0.599675C0.865352 197.405 0.865357 378.85 0.765506 522.119L0.432676 521.786L344.601 522.119L0.432676 522.468H0.0832138V522.119C0.0832138 378.85 0.0832087 197.405 0 0.599675V0.166992H0.465967H344.601H345V0.566397C344.734 307.573 344.567 518.607 344.567 522.152Z" fill="#263238"/>
</svg>
