<svg width="345" height="523" viewBox="0 0 345 523" fill="none" xmlns="http://www.w3.org/2000/svg">
<path d="M344.567 0.631836H0.998535V522.167H344.567V0.631836Z" fill="white"/>
<path d="M343.968 27.1934H0.299316V251.641H343.968V27.1934Z" fill="#F5F5F5"/>
<path d="M228.724 162.008C234.229 156.874 238.175 150.293 240.113 143.019C242.051 135.746 241.9 128.073 239.68 120.881C237.459 113.689 233.257 107.268 227.556 102.353C221.855 97.438 214.885 94.2281 207.444 93.0909C200.004 91.9536 192.393 92.9351 185.484 95.9228C178.575 98.9105 172.648 103.784 168.38 109.984C164.112 116.185 161.677 123.462 161.354 130.982C161.03 138.502 162.831 145.961 166.551 152.506L158.396 160.111L160.36 173.641L147.696 170.179L137.494 179.698L139.524 193.145L126.877 189.6L118.107 197.771L119.305 206.092L111.583 203.928L106.491 208.688L105.725 221.219L124.414 225.929L185.073 169.347C192.266 172.544 200.241 173.553 208.003 172.248C215.766 170.943 222.972 167.381 228.724 162.008ZM222.733 112.732C224.286 114.394 225.311 116.48 225.678 118.726C226.045 120.971 225.737 123.274 224.795 125.345C223.852 127.416 222.317 129.16 220.382 130.358C218.448 131.555 216.202 132.152 213.928 132.073C211.655 131.994 209.456 131.242 207.61 129.913C205.763 128.583 204.353 126.736 203.557 124.605C202.76 122.474 202.614 120.155 203.136 117.94C203.659 115.726 204.826 113.717 206.491 112.166C208.721 110.089 211.684 108.982 214.729 109.088C217.775 109.194 220.653 110.505 222.733 112.732Z" fill="#263238"/>
<path d="M222.733 112.732C222.733 112.732 221.984 112.033 220.453 111.068C218.276 109.767 215.735 109.212 213.214 109.487C211.171 109.707 209.229 110.492 207.607 111.754C205.985 113.016 204.746 114.704 204.029 116.63C203.313 118.556 203.146 120.644 203.549 122.659C203.952 124.674 204.908 126.537 206.31 128.04C207.712 129.542 209.505 130.625 211.488 131.166C213.47 131.707 215.564 131.685 217.535 131.103C219.506 130.521 221.276 129.402 222.647 127.871C224.017 126.34 224.935 124.457 225.296 122.434C225.759 119.941 225.378 117.365 224.214 115.112C223.382 113.447 222.65 112.782 222.733 112.715C222.816 112.649 222.949 112.865 223.282 113.214C223.771 113.718 224.201 114.277 224.564 114.879C225.917 117.174 226.423 119.871 225.995 122.501C225.746 124.065 225.186 125.564 224.348 126.908C223.509 128.252 222.41 129.414 221.114 130.325C219.818 131.236 218.352 131.878 216.804 132.211C215.255 132.545 213.655 132.565 212.099 132.269C209.592 131.81 207.299 130.555 205.561 128.69C203.822 126.826 202.73 124.451 202.447 121.918C202.26 120.346 202.391 118.753 202.831 117.232C203.272 115.711 204.013 114.295 205.01 113.066C206.008 111.837 207.243 110.82 208.64 110.077C210.038 109.334 211.571 108.878 213.147 108.738C215.807 108.492 218.469 109.187 220.669 110.702C221.278 111.093 221.837 111.556 222.334 112.083C222.733 112.515 222.833 112.715 222.733 112.732Z" fill="#263238"/>
<path d="M228.724 162.008C228.724 162.008 228.541 162.208 228.142 162.557L226.378 164.221C223.986 166.169 221.385 167.843 218.623 169.214C213.364 171.733 207.622 173.08 201.793 173.164C195.963 173.247 190.185 172.064 184.857 169.696H185.189L124.63 226.378L124.464 226.561H124.214L105.525 221.868L105.143 221.785V221.386C105.376 217.475 105.625 213.198 105.891 208.854V208.455L106.025 208.322L111.233 203.463L111.416 203.279H111.683L119.405 205.443L118.789 205.975C118.406 203.396 118.007 200.567 117.591 197.655V197.405L117.774 197.239L126.544 189.051L126.744 188.851H127.01L139.658 192.396L139.042 192.945C138.426 188.651 137.76 184.058 137.095 179.415V179.149L137.294 178.983L139.99 176.453L147.496 169.463L147.696 169.264H147.962L160.626 172.808L159.994 173.358C159.339 168.798 158.69 164.288 158.047 159.828V159.578L158.23 159.395L166.384 151.79L166.301 152.389C163.145 146.783 161.361 140.51 161.092 134.083C160.937 130.978 161.16 127.865 161.758 124.814C162.303 121.813 163.197 118.887 164.42 116.093C167.507 109.029 172.549 102.994 178.952 98.6997C185.355 94.4055 192.852 92.031 200.559 91.8561C208.267 91.6812 215.864 93.7132 222.455 97.7125C229.046 101.712 234.357 107.512 237.761 114.429C240.953 120.955 242.316 128.225 241.705 135.464C241.283 140.861 239.753 146.112 237.211 150.891C236.962 151.391 236.712 151.856 236.463 152.322L235.647 153.587C235.098 154.403 234.649 155.251 234.116 155.867C233.034 157.165 232.202 158.33 231.387 159.195L229.39 161.409L228.741 162.008C228.741 162.008 228.924 161.775 229.323 161.342L231.121 159.428C231.903 158.596 232.785 157.415 233.767 156.1C234.266 155.418 234.699 154.619 235.231 153.82C235.497 153.404 235.764 152.988 236.03 152.539L236.762 151.124C239.22 146.395 240.702 141.218 241.118 135.904C241.534 130.59 240.876 125.246 239.183 120.192C237.491 115.137 234.798 110.475 231.266 106.483C227.734 102.49 223.435 99.2498 218.624 96.9539C213.814 94.658 208.59 93.3539 203.265 93.1191C197.939 92.8843 192.621 93.7236 187.627 95.5872C182.633 97.4507 178.065 100.3 174.196 103.966C170.326 107.632 167.234 112.039 165.103 116.925C163.916 119.658 163.045 122.516 162.507 125.446C161.938 128.428 161.725 131.467 161.874 134.499C162.158 140.753 163.908 146.853 166.983 152.306L167.166 152.639L166.883 152.905L158.746 160.51L158.895 160.077C159.539 164.515 160.188 169.031 160.842 173.624L160.959 174.373L160.21 174.173L147.562 170.628L148.045 170.512L140.54 177.501L137.86 179.981L138.01 179.532C138.676 184.175 139.341 188.785 139.957 193.061L140.074 193.827L139.325 193.627L126.677 190.066L127.143 189.949C124.131 192.779 121.135 195.558 118.373 198.137L118.539 197.704C118.939 200.55 119.338 203.379 119.721 206.025L119.821 206.758L119.105 206.558L111.4 204.394L111.849 204.278L106.74 209.038L106.89 208.721C106.624 213.065 106.357 217.342 106.124 221.253L105.775 220.77L124.464 225.48L124.048 225.596L184.79 169.114L184.94 168.981H185.123C190.377 171.345 196.079 172.548 201.84 172.508C207.601 172.468 213.286 171.185 218.506 168.748C221.26 167.436 223.87 165.841 226.295 163.988L228.108 162.474L228.724 162.008Z" fill="#263238"/>
<path d="M227.376 157.464C232.878 152.333 236.823 145.756 238.761 138.486C240.698 131.217 240.549 123.549 238.331 116.36C236.112 109.171 231.915 102.752 226.218 97.8386C220.521 92.9249 213.555 89.7148 206.119 88.5759C198.682 87.437 191.075 88.4154 184.169 91.399C177.263 94.3827 171.336 99.2509 167.068 105.446C162.8 111.642 160.363 118.914 160.036 126.43C159.709 133.946 161.505 141.402 165.219 147.945L157.081 155.534L159.029 169.08L146.381 165.519L136.196 175.054L138.143 188.584L125.495 185.039L116.725 193.227L117.907 201.548L110.202 199.401L105.093 204.161L104.327 216.692L123.016 221.385L183.675 164.803C190.873 168.018 198.859 169.036 206.633 167.73C214.407 166.425 221.623 162.853 227.376 157.464ZM221.452 108.188C223.005 109.851 224.029 111.936 224.396 114.182C224.763 116.427 224.456 118.731 223.513 120.801C222.571 122.872 221.035 124.616 219.101 125.814C217.167 127.011 214.921 127.608 212.647 127.529C210.373 127.45 208.174 126.698 206.328 125.369C204.482 124.039 203.071 122.192 202.275 120.061C201.479 117.93 201.333 115.611 201.855 113.396C202.377 111.182 203.545 109.173 205.209 107.622C206.312 106.592 207.608 105.789 209.021 105.259C210.435 104.73 211.939 104.485 213.448 104.537C214.956 104.59 216.44 104.939 217.813 105.566C219.187 106.192 220.423 107.083 221.452 108.188Z" fill="#9468F1"/>
<path d="M221.452 108.189C221.452 108.189 220.703 107.49 219.172 106.525C217.017 105.181 214.475 104.596 211.949 104.861C209.911 105.085 207.976 105.871 206.36 107.133C204.743 108.394 203.51 110.079 202.797 112.002C202.083 113.924 201.919 116.006 202.322 118.016C202.725 120.026 203.679 121.885 205.078 123.384C206.477 124.883 208.265 125.963 210.242 126.504C212.22 127.044 214.309 127.024 216.275 126.446C218.242 125.867 220.009 124.753 221.379 123.227C222.748 121.702 223.667 119.826 224.031 117.808C224.49 115.313 224.103 112.736 222.933 110.486C222.101 108.822 221.385 108.156 221.452 108.089C221.518 108.023 221.668 108.239 222.017 108.589C222.501 109.094 222.925 109.652 223.282 110.253C224.641 112.552 225.147 115.256 224.713 117.891C224.463 119.453 223.902 120.949 223.064 122.291C222.226 123.632 221.128 124.793 219.834 125.703C218.541 126.613 217.078 127.256 215.532 127.592C213.986 127.928 212.389 127.951 210.834 127.66C208.328 127.225 206.028 125.995 204.275 124.152C202.521 122.309 201.408 119.95 201.099 117.425C200.917 115.854 201.051 114.262 201.493 112.744C201.935 111.225 202.677 109.81 203.674 108.582C204.671 107.354 205.903 106.338 207.299 105.593C208.694 104.848 210.224 104.39 211.799 104.245C214.461 104.003 217.124 104.704 219.321 106.226C219.934 106.612 220.493 107.076 220.986 107.607C221.335 107.973 221.485 108.173 221.452 108.189Z" fill="#263238"/>
<path d="M227.376 157.465C227.376 157.465 227.193 157.664 226.81 158.014L225.046 159.578C222.651 161.52 220.051 163.194 217.291 164.571C212.03 167.089 206.285 168.436 200.453 168.519C194.62 168.602 188.839 167.42 183.508 165.053H183.841L123.299 221.735L123.115 221.901H122.882L104.177 217.208L103.811 217.109V216.726C104.044 212.815 104.31 208.538 104.56 204.195V203.995L104.693 203.878L109.802 199.102L110.002 198.919H110.268L117.973 201.066L117.357 201.615C116.991 199.036 116.575 196.206 116.159 193.294V193.045L116.359 192.862L125.112 184.69L125.312 184.491L125.595 184.574L138.243 188.119L137.61 188.668L135.663 175.171V174.905L135.846 174.722L138.559 172.209L146.048 165.22L146.247 165.02L146.53 165.103L159.178 168.648L158.546 169.197C157.891 164.637 157.242 160.127 156.599 155.667V155.401L156.798 155.235L164.953 147.629L164.853 148.228C161.697 142.622 159.913 136.35 159.644 129.922C159.497 126.817 159.72 123.705 160.31 120.653C160.858 117.653 161.751 114.727 162.972 111.933C166.759 103.13 173.555 95.9612 182.143 91.7103C190.732 87.4594 200.552 86.4034 209.848 88.7314C219.144 91.0594 227.308 96.6193 232.88 104.416C238.451 112.213 241.066 121.738 240.257 131.287C239.832 136.683 238.303 141.934 235.763 146.714L235.015 148.145L234.199 149.41C233.65 150.225 233.201 151.074 232.685 151.69C231.603 152.988 230.771 154.153 229.955 155.018L228.025 156.865C227.609 157.281 227.376 157.481 227.376 157.481C227.376 157.481 227.576 157.232 227.975 156.799L229.756 154.902C230.538 154.07 231.42 152.888 232.402 151.573C232.901 150.908 233.35 150.109 233.883 149.293L234.682 148.029L235.397 146.597C237.857 141.845 239.324 136.641 239.708 131.304C240.415 121.958 237.793 112.663 232.306 105.064C226.82 97.4648 218.822 92.0517 209.728 89.7822C200.634 87.5127 191.031 88.5333 182.617 92.6633C174.203 96.7932 167.522 103.766 163.755 112.349C162.573 115.081 161.708 117.94 161.175 120.869C160.597 123.85 160.385 126.89 160.543 129.922C160.822 136.175 162.566 142.275 165.635 147.729L165.835 148.062L165.552 148.328L157.397 155.933L157.547 155.501C158.202 159.939 158.851 164.448 159.494 169.031L159.611 169.796L158.879 169.58L146.181 166.018L146.647 165.902L139.158 172.908L136.445 175.421L136.595 174.988C137.278 179.631 137.927 184.224 138.542 188.518L138.659 189.284L137.927 189.067L125.262 185.522L125.745 185.406L116.975 193.577L117.124 193.161C117.524 196.007 117.94 198.819 118.306 201.399L118.406 202.148L117.69 201.948L109.985 199.784L110.434 199.668L105.342 204.428L105.492 204.095C105.226 208.438 104.959 212.732 104.71 216.626L104.36 216.143L123.049 220.87L122.633 220.986L183.375 164.504L183.525 164.371L183.708 164.454C188.965 166.806 194.666 168.003 200.425 167.963C206.184 167.923 211.868 166.647 217.091 164.221C219.849 162.906 222.465 161.311 224.896 159.462L226.694 157.947L227.376 157.465Z" fill="#263238"/>
<path d="M223.698 154.336C225.675 152.221 227.478 149.95 229.09 147.546C230.916 144.697 232.302 141.589 233.201 138.327C234.431 134.003 234.82 129.484 234.349 125.013C233.802 119.611 231.995 114.413 229.074 109.836C225.708 104.597 221.01 100.346 215.461 97.5212C212.488 95.9736 209.294 94.8957 205.992 94.326C204.293 94.0087 202.575 93.8085 200.849 93.7269C199.087 93.6997 197.325 93.7887 195.574 93.9931C188.221 94.8364 181.333 98.015 175.921 103.062C170.508 108.109 166.857 114.759 165.502 122.034C165.176 123.766 164.965 125.517 164.87 127.277C164.836 129.005 164.919 130.735 165.12 132.452C165.455 135.787 166.308 139.049 167.649 142.121C170.079 147.856 173.997 152.837 178.999 156.549C183.352 159.791 188.41 161.958 193.76 162.873C198.171 163.655 202.69 163.582 207.073 162.657C210.391 161.976 213.588 160.804 216.559 159.179C219.068 157.745 221.456 156.109 223.698 154.286C223.698 154.286 223.582 154.436 223.299 154.686L222.051 155.817C221.382 156.43 220.664 156.987 219.904 157.481C218.904 158.239 217.847 158.917 216.742 159.512C213.764 161.217 210.543 162.458 207.19 163.19C199.098 164.997 190.628 163.914 183.25 160.13C175.873 156.345 170.053 150.098 166.8 142.471C165.412 139.299 164.525 135.93 164.171 132.485C163.694 128.97 163.801 125.399 164.487 121.918C165.869 114.432 169.62 107.587 175.187 102.395C180.755 97.2022 187.843 93.936 195.407 93.0778C198.971 92.6192 202.585 92.7429 206.108 93.444C209.498 94.053 212.775 95.1753 215.827 96.7723C221.51 99.6881 226.308 104.072 229.723 109.47C232.419 113.756 234.172 118.566 234.866 123.582C235.561 128.597 235.18 133.703 233.75 138.56C232.79 141.861 231.325 144.993 229.407 147.846C228.747 148.904 228.001 149.906 227.177 150.841C226.623 151.567 226.01 152.246 225.346 152.872L224.131 154.037C223.865 154.22 223.715 154.353 223.698 154.336Z" fill="#263238"/>
<path d="M222.084 125.895C222.001 125.895 222.916 125.03 224.031 123.249C225.6 120.708 226.268 117.713 225.929 114.745C225.698 112.572 224.923 110.491 223.675 108.696C222.427 106.902 220.747 105.451 218.789 104.478C216.502 103.307 213.917 102.849 211.367 103.163C209.365 103.404 207.446 104.107 205.761 105.216C204.077 106.325 202.673 107.81 201.66 109.554C200.647 111.298 200.052 113.253 199.923 115.266C199.794 117.278 200.134 119.294 200.916 121.153C201.832 123.292 203.289 125.155 205.143 126.561C206.776 127.777 208.666 128.603 210.668 128.974C213.608 129.516 216.644 129.053 219.288 127.659C221.152 126.678 222.001 125.812 222.084 125.895C222.167 125.979 221.901 126.145 221.485 126.528C220.879 127.104 220.202 127.602 219.472 128.009C217.193 129.329 214.579 129.957 211.95 129.819C209.32 129.68 206.787 128.779 204.66 127.227C202.532 125.687 200.886 123.574 199.914 121.135C198.941 118.695 198.683 116.029 199.169 113.447C199.705 110.523 201.17 107.848 203.347 105.822C205.523 103.796 208.295 102.525 211.251 102.198C213.993 101.866 216.771 102.371 219.222 103.645C221.433 104.798 223.295 106.522 224.614 108.638C226.004 110.871 226.72 113.458 226.676 116.089C226.632 118.719 225.829 121.281 224.364 123.466C223.888 124.163 223.329 124.8 222.7 125.363C222.334 125.746 222.101 125.929 222.084 125.895Z" fill="#263238"/>
<path d="M118.09 219.09C117.907 218.89 131.553 205.776 148.594 189.95C165.635 174.124 179.598 161.343 179.781 161.542C179.964 161.742 166.317 174.856 149.276 190.682C132.235 206.508 118.273 219.289 118.09 219.09Z" fill="#263238"/>
<path d="M125.612 139.675L126.178 138.443L126.91 139.575C127.508 140.479 128.351 141.195 129.339 141.639L130.588 142.188L129.456 142.937C128.544 143.53 127.822 144.374 127.376 145.366L126.827 146.598L126.078 145.466C125.482 144.56 124.639 143.843 123.648 143.403L122.417 142.853L123.548 142.105C124.46 141.515 125.178 140.67 125.612 139.675Z" fill="#9468F1"/>
<path d="M88.484 130.423L88.8002 129.707L89.2329 130.356C89.5756 130.886 90.0679 131.303 90.6474 131.554L91.363 131.887L90.6974 132.32C90.1745 132.664 89.7592 133.148 89.4992 133.718L89.183 134.45L88.7503 133.784C88.4075 133.254 87.9153 132.837 87.3358 132.586L86.6201 132.253L87.2692 131.837C87.7965 131.486 88.2168 130.997 88.484 130.423Z" fill="#9468F1"/>
<path d="M205.426 193.71L205.742 192.994L206.175 193.66C206.531 194.178 207.019 194.592 207.589 194.858L208.305 195.174L207.656 195.607C207.125 195.95 206.708 196.442 206.458 197.021L206.125 197.737L205.692 197.088C205.351 196.559 204.866 196.138 204.294 195.873L203.562 195.557L204.228 195.124C204.758 194.782 205.175 194.289 205.426 193.71Z" fill="#9468F1"/>
<path d="M262.673 161.26L263.222 160.028L263.971 161.16C264.566 162.067 265.41 162.784 266.401 163.224L267.633 163.773L266.501 164.522C265.593 165.116 264.876 165.959 264.437 166.951L263.871 168.183L263.139 167.051C262.536 166.151 261.695 165.437 260.71 164.988L259.461 164.438L260.593 163.69C261.505 163.096 262.227 162.252 262.673 161.26Z" fill="#9468F1"/>
<path d="M255.234 115.794L256.166 113.714L257.414 115.628C258.417 117.149 259.831 118.355 261.492 119.106L263.572 120.021L261.658 121.269C260.139 122.282 258.934 123.7 258.18 125.363L257.248 127.443L256 125.53C254.997 124.008 253.583 122.802 251.923 122.051L249.842 121.119L251.756 119.871C253.278 118.868 254.484 117.455 255.234 115.794Z" fill="#9468F1"/>
<path d="M114.079 101.781L115.011 99.7012L116.259 101.598C117.257 103.124 118.673 104.331 120.337 105.076L122.417 106.008L120.52 107.257C118.989 108.249 117.781 109.666 117.042 111.334L116.11 113.414L114.862 111.517C113.861 109.987 112.439 108.779 110.768 108.039L108.704 107.107L110.601 105.859C112.127 104.861 113.334 103.446 114.079 101.781Z" fill="#9468F1"/>
<path d="M343.951 27.1934C343.951 27.4264 267.017 27.6261 172.125 27.6261C77.2341 27.6261 0.299316 27.4264 0.299316 27.1934C0.299316 26.9604 77.2175 26.7607 172.125 26.7607C267.033 26.7607 343.951 26.9604 343.951 27.1934Z" fill="#263238"/>
<path d="M19.7037 13.5472C19.7004 14.3727 19.4527 15.1786 18.9917 15.8633C18.5307 16.5481 17.8772 17.0809 17.1137 17.3945C16.3501 17.7081 15.5108 17.7884 14.7016 17.6254C13.8924 17.4623 13.1497 17.0632 12.5672 16.4784C11.9847 15.8935 11.5885 15.1492 11.4287 14.3394C11.2688 13.5296 11.3525 12.6906 11.6691 11.9283C11.9858 11.166 12.5212 10.5146 13.2077 10.0563C13.8943 9.59809 14.7012 9.35352 15.5267 9.35352C16.0766 9.35351 16.6211 9.4621 17.129 9.67306C17.6369 9.88402 18.0981 10.1932 18.4862 10.5828C18.8743 10.9725 19.1816 11.4349 19.3906 11.9436C19.5995 12.4523 19.7059 12.9973 19.7037 13.5472Z" fill="#263238"/>
<path d="M31.7858 13.5472C31.7825 14.3727 31.5347 15.1786 31.0737 15.8633C30.6127 16.5481 29.9592 17.0809 29.1957 17.3945C28.4321 17.7081 27.5928 17.7884 26.7836 17.6254C25.9745 17.4623 25.2317 17.0632 24.6492 16.4784C24.0667 15.8935 23.6705 15.1492 23.5107 14.3394C23.3509 13.5296 23.4346 12.6906 23.7512 11.9283C24.0678 11.166 24.6032 10.5146 25.2898 10.0563C25.9763 9.59809 26.7832 9.35352 27.6087 9.35352C28.1586 9.35351 28.7032 9.4621 29.211 9.67306C29.7189 9.88402 30.1801 10.1932 30.5682 10.5828C30.9563 10.9725 31.2636 11.4349 31.4726 11.9436C31.6815 12.4523 31.788 12.9973 31.7858 13.5472Z" fill="#263238"/>
<path d="M43.8009 13.5466C43.7976 14.3741 43.5485 15.182 43.0853 15.8678C42.622 16.5535 41.9655 17.0862 41.1991 17.3983C40.4326 17.7104 39.5908 17.7878 38.7803 17.6206C37.9698 17.4535 37.2272 17.0494 36.6467 16.4595C36.0662 15.8697 35.674 15.1207 35.5199 14.3077C35.3657 13.4946 35.4566 12.6541 35.7809 11.8927C36.1052 11.1314 36.6483 10.4835 37.3414 10.0313C38.0345 9.57909 38.8463 9.34295 39.6738 9.35284C40.7758 9.366 41.828 9.81417 42.6011 10.5997C43.3741 11.3852 43.8054 12.4444 43.8009 13.5466Z" fill="#263238"/>
<path d="M344.567 522.152C344.567 518.591 344.401 307.573 344.168 0.632959L344.567 1.03236H0.432676L0.865352 0.599675C0.865352 197.405 0.865357 378.85 0.765506 522.119L0.432676 521.786L344.601 522.119L0.432676 522.468H0.0832138V522.119C0.0832138 378.85 0.0832087 197.405 0 0.599675V0.166992H0.465967H344.601H345V0.566397C344.734 307.573 344.567 518.607 344.567 522.152Z" fill="#263238"/>
</svg>
