<svg width="329" height="247" viewBox="0 0 329 247" fill="none" xmlns="http://www.w3.org/2000/svg">
<g clip-path="url(#clip0_33_146)">
<path d="M314.792 229.313H67.1626C63.3958 229.308 59.7846 227.807 57.1211 225.138C54.4576 222.47 52.9593 218.851 52.9551 215.077V82.6402C52.9593 78.8659 54.4576 75.2474 57.1211 72.5786C59.7846 69.9098 63.3958 68.4086 67.1626 68.4043H314.792C318.559 68.4086 322.17 69.9098 324.834 72.5786C327.497 75.2474 328.996 78.8659 329 82.6402V215.077C328.996 218.851 327.497 222.47 324.834 225.138C322.17 227.807 318.559 229.308 314.792 229.313Z" fill="#F8FAFC"/>
<path d="M314.792 229.313H67.1626C63.3958 229.308 59.7846 227.807 57.1211 225.138C54.4576 222.47 52.9593 218.851 52.9551 215.077V82.6402C52.9593 78.8659 54.4576 75.2474 57.1211 72.5786C59.7846 69.9098 63.3958 68.4086 67.1626 68.4043H314.792C318.559 68.4086 322.17 69.9098 324.834 72.5786C327.497 75.2474 328.996 78.8659 329 82.6402V215.077C328.996 218.851 327.497 222.47 324.834 225.138C322.17 227.807 318.559 229.308 314.792 229.313ZM67.1626 69.2671C63.6241 69.2711 60.2317 70.6813 57.7297 73.1884C55.2276 75.6955 53.8202 79.0946 53.8161 82.6402V215.077C53.8202 218.622 55.2276 222.022 57.7297 224.529C60.2317 227.036 63.6241 228.446 67.1626 228.45H314.792C318.331 228.446 321.723 227.036 324.225 224.529C326.727 222.022 328.135 218.622 328.139 215.077V82.6402C328.135 79.0946 326.727 75.6955 324.225 73.1884C321.723 70.6813 318.331 69.2711 314.792 69.2671H67.1626Z" fill="#F2F2F2"/>
<path d="M314.793 218.96H67.1629C66.1356 218.958 65.1507 218.549 64.4243 217.821C63.6979 217.093 63.2893 216.106 63.2881 215.077V82.6403C63.2893 81.611 63.6979 80.6241 64.4243 79.8963C65.1507 79.1684 66.1356 78.759 67.1629 78.7578H314.793C315.82 78.759 316.805 79.1684 317.531 79.8963C318.258 80.6241 318.666 81.611 318.667 82.6403V215.077C318.666 216.106 318.258 217.093 317.531 217.821C316.805 218.549 315.82 218.958 314.793 218.96ZM67.1629 79.6206C66.3639 79.6215 65.5978 79.9399 65.0328 80.506C64.4678 81.0722 64.15 81.8397 64.1491 82.6403V215.077C64.15 215.878 64.4678 216.645 65.0328 217.211C65.5978 217.777 66.3639 218.096 67.1629 218.097H314.793C315.592 218.096 316.358 217.777 316.923 217.211C317.488 216.645 317.805 215.878 317.806 215.077V82.6403C317.805 81.8397 317.488 81.0722 316.923 80.506C316.358 79.9399 315.592 79.6215 314.793 79.6206H67.1629Z" fill="#F2F2F2"/>
<path d="M251.768 219.59L12.4054 156.013C8.76545 155.042 5.65863 152.664 3.76652 149.4C1.87441 146.137 1.35152 142.254 2.31258 138.605L36.1795 10.5895C37.1488 6.94234 39.5223 3.82933 42.7794 1.93344C46.0364 0.0375568 49.911 -0.48637 53.5531 0.476607L292.916 64.0538C296.556 65.025 299.663 67.4033 301.555 70.6668C303.447 73.9304 303.97 77.8127 303.009 81.4621L269.142 209.477C268.172 213.125 265.799 216.238 262.542 218.133C259.285 220.029 255.41 220.553 251.768 219.59Z" fill="#F2F2F2"/>
<path d="M251.768 219.59L12.4054 156.013C8.76545 155.042 5.65863 152.664 3.76652 149.4C1.87441 146.137 1.35152 142.254 2.31258 138.605L36.1795 10.5895C37.1488 6.94234 39.5223 3.82933 42.7794 1.93344C46.0364 0.0375568 49.911 -0.48637 53.5531 0.476607L292.916 64.0538C296.556 65.025 299.663 67.4033 301.555 70.6668C303.447 73.9304 303.97 77.8127 303.009 81.4621L269.142 209.477C268.172 213.125 265.799 216.238 262.542 218.133C259.285 220.029 255.41 220.553 251.768 219.59ZM53.3325 1.31058C49.9111 0.405986 46.2713 0.898165 43.2117 2.67915C40.152 4.46013 37.9223 7.38447 37.0118 10.8106L3.1449 138.826C2.24211 142.254 2.73331 145.901 4.51075 148.967C6.28818 152.033 9.20669 154.267 12.626 155.179L251.989 218.756C255.41 219.661 259.05 219.169 262.109 217.388C265.169 215.607 267.399 212.682 268.309 209.256L302.176 81.241C303.079 77.8128 302.588 74.1658 300.81 71.1C299.033 68.0342 296.114 65.8001 292.695 64.8877L53.3325 1.31058Z" fill="#E6E6E6"/>
<path d="M254.416 209.582L15.0528 146.005C14.0601 145.74 13.2128 145.092 12.6968 144.202C12.1808 143.312 12.0382 142.253 12.3003 141.257L46.1672 13.2422C46.4315 12.2475 47.0789 11.3985 47.9671 10.8814C48.8554 10.3644 49.9121 10.2215 50.9054 10.4841L290.268 74.0613C291.261 74.3262 292.108 74.9748 292.624 75.8648C293.14 76.7549 293.283 77.8137 293.021 78.809L259.154 206.824C258.889 207.819 258.242 208.668 257.354 209.185C256.465 209.702 255.409 209.845 254.416 209.582ZM50.6848 11.3181C49.9122 11.1138 49.0903 11.2249 48.3994 11.6271C47.7086 12.0293 47.2051 12.6896 46.9995 13.4632L13.1326 141.479C12.9287 142.253 13.0396 143.076 13.441 143.768C13.8423 144.461 14.5014 144.965 15.2735 145.171L254.636 208.748C255.409 208.953 256.231 208.842 256.921 208.439C257.612 208.037 258.116 207.377 258.321 206.603L292.188 78.5879C292.392 77.8138 292.281 76.9903 291.88 76.298C291.479 75.6057 290.82 75.1013 290.047 74.8952L50.6848 11.3181Z" fill="#F8FAFC"/>
<path d="M261.837 247H14.2075C10.4408 246.996 6.82949 245.495 4.16599 242.826C1.50248 240.157 0.00425493 236.539 0 232.764V100.328C0.00425493 96.5534 1.50248 92.9349 4.16599 90.2661C6.82949 87.5973 10.4408 86.0961 14.2075 86.0918H261.837C265.604 86.0961 269.215 87.5973 271.879 90.2661C274.542 92.9349 276.04 96.5534 276.045 100.328V232.764C276.04 236.539 274.542 240.157 271.879 242.826C269.215 245.495 265.604 246.996 261.837 247Z" fill="#F8FAFC"/>
<path d="M194.558 235.784H34.6464C34.4462 235.785 34.2461 235.78 34.0488 235.769L109.68 193.09C111.12 192.261 114.351 191.969 116.896 192.438C117.594 192.545 118.27 192.766 118.898 193.09L169.656 221.731L172.087 223.101L194.558 235.784Z" fill="#E6E6E6"/>
<path d="M245.009 235.784H106.698L133.5 223.101L135.429 222.187L170.354 205.659C172.644 204.575 178.152 204.508 180.844 205.454C181.025 205.519 181.193 205.587 181.347 205.659L245.009 235.784Z" fill="#E6E6E6"/>
<path d="M14.2078 86.9541C10.6693 86.9581 7.27692 88.3684 4.77485 90.8754C2.27277 93.3825 0.86534 96.7817 0.861328 100.327V232.764C0.86534 236.309 2.27277 239.709 4.77485 242.216C7.27692 244.723 10.6693 246.133 14.2078 246.137H261.837C265.376 246.133 268.768 244.723 271.27 242.216C273.772 239.709 275.18 236.309 275.184 232.764V100.327C275.18 96.7817 273.772 93.3825 271.27 90.8754C268.768 88.3684 265.376 86.9581 261.837 86.9541H14.2078Z" fill="#292524"/>
<path d="M261.837 236.647H14.2078C13.1805 236.646 12.1956 236.236 11.4692 235.509C10.7428 234.781 10.3342 233.794 10.333 232.764V100.328C10.3342 99.2985 10.7428 98.3116 11.4692 97.5838C12.1956 96.8559 13.1805 96.4465 14.2078 96.4453H261.837C262.865 96.4465 263.85 96.8559 264.576 97.5838C265.302 98.3116 265.711 99.2985 265.712 100.328V232.764C265.711 233.794 265.302 234.781 264.576 235.509C263.85 236.236 262.865 236.646 261.837 236.647ZM14.2078 97.3081C13.4088 97.309 12.6427 97.6274 12.0778 98.1935C11.5128 98.7597 11.195 99.5272 11.1941 100.328V232.764C11.195 233.565 11.5128 234.333 12.0778 234.899C12.6427 235.465 13.4088 235.783 14.2078 235.784H261.837C262.636 235.783 263.402 235.465 263.967 234.899C264.532 234.333 264.85 233.565 264.851 232.764V100.328C264.85 99.5272 264.532 98.7597 263.967 98.1935C263.402 97.6274 262.636 97.309 261.837 97.3081H14.2078Z" fill="#CCCCCC"/>
<path d="M206.662 120.686C221.381 120.686 233.313 108.73 233.313 93.9817C233.313 79.2333 221.381 67.2773 206.662 67.2773C191.943 67.2773 180.011 79.2333 180.011 93.9817C180.011 108.73 191.943 120.686 206.662 120.686Z" fill="#1E3A8A"/>
<path d="M217.804 191.208C236.446 191.208 251.559 172.254 251.559 148.873C251.559 125.491 236.446 106.537 217.804 106.537C199.161 106.537 184.049 125.491 184.049 148.873C184.049 172.254 199.161 191.208 217.804 191.208Z" fill="#F2F2F2"/>
<path d="M217.897 140.359H217.989L219.659 236.251H216.135L217.897 140.359Z" fill="#CCCCCC"/>
<path d="M223.654 203.842C223.757 204.038 223.778 204.268 223.713 204.48C223.647 204.691 223.5 204.868 223.304 204.972L218.463 207.526L217.686 206.046L222.527 203.492C222.723 203.388 222.952 203.367 223.163 203.433C223.374 203.499 223.551 203.646 223.654 203.842Z" fill="#CCCCCC"/>
<path d="M120.76 191.208C139.402 191.208 154.515 172.254 154.515 148.873C154.515 125.491 139.402 106.537 120.76 106.537C102.117 106.537 87.0049 125.491 87.0049 148.873C87.0049 172.254 102.117 191.208 120.76 191.208Z" fill="#F2F2F2"/>
<path d="M126.61 205.428C126.507 205.232 126.33 205.085 126.119 205.019C125.907 204.953 125.679 204.974 125.483 205.078L122.103 206.861L120.945 140.359H120.853L119.091 236.251H122.615L122.136 208.734L126.26 206.558C126.456 206.454 126.603 206.277 126.669 206.065C126.734 205.854 126.713 205.624 126.61 205.428Z" fill="#CCCCCC"/>
<path d="M169.164 51.3086C192.786 51.3086 211.986 95.9067 211.986 125.533C211.986 155.16 192.836 179.177 169.215 179.177C145.593 179.177 126.443 155.16 126.443 125.533C126.443 95.9067 145.542 51.3086 169.164 51.3086Z" fill="#9468F1" fill-opacity="0.77"/>
<path d="M176.627 196.764C176.562 196.64 176.474 196.531 176.367 196.442C176.261 196.353 176.137 196.286 176.005 196.245C175.872 196.204 175.733 196.189 175.594 196.202C175.456 196.215 175.322 196.255 175.199 196.32L170.916 198.579L169.45 114.314H169.332L167.1 235.82H171.565L170.958 200.952L176.184 198.195C176.307 198.13 176.416 198.042 176.505 197.935C176.594 197.827 176.66 197.704 176.702 197.571C176.743 197.438 176.757 197.298 176.744 197.16C176.732 197.021 176.692 196.887 176.627 196.764Z" fill="#292524"/>
<path d="M262.699 246.137H15.0688C11.3021 246.133 7.69082 244.631 5.02731 241.963C2.36381 239.294 0.865583 235.675 0.861328 231.901V99.4644C0.865583 95.6901 2.36381 92.0716 5.02731 89.4028C7.69082 86.734 11.3021 85.2328 15.0688 85.2285H262.699C266.465 85.2328 270.077 86.734 272.74 89.4028C275.404 92.0716 276.902 95.6901 276.906 99.4644V231.901C276.902 235.675 275.404 239.294 272.74 241.963C270.077 244.631 266.465 246.133 262.699 246.137Z" fill="#F8FAFC"/>
<path d="M195.42 234.921H35.5077C35.3075 234.922 35.1075 234.917 34.9102 234.906L110.541 192.227C111.981 191.397 115.212 191.105 117.758 191.575C118.456 191.682 119.132 191.902 119.759 192.227L170.517 220.867L172.949 222.238L195.42 234.921Z" fill="#E6E6E6"/>
<path d="M245.87 234.921H107.56L134.361 222.238L136.29 221.325L171.216 204.796C173.505 203.713 179.014 203.646 181.706 204.592C181.886 204.657 182.054 204.725 182.209 204.796L245.87 234.921Z" fill="#E6E6E6"/>
<path d="M262.699 246.137H15.0688C11.3021 246.133 7.69082 244.631 5.02731 241.963C2.36381 239.294 0.865583 235.675 0.861328 231.901V99.4644C0.865583 95.6901 2.36381 92.0716 5.02731 89.4028C7.69082 86.734 11.3021 85.2328 15.0688 85.2285H262.699C266.465 85.2328 270.077 86.734 272.74 89.4028C275.404 92.0716 276.902 95.6901 276.906 99.4644V231.901C276.902 235.675 275.404 239.294 272.74 241.963C270.077 244.631 266.465 246.133 262.699 246.137ZM15.0688 86.0913C11.5304 86.0953 8.13798 87.5056 5.63591 90.0126C3.13383 92.5197 1.7264 95.9189 1.72239 99.4644V231.901C1.7264 235.447 3.13383 238.846 5.63591 241.353C8.13798 243.86 11.5304 245.27 15.0688 245.274H262.699C266.237 245.27 269.629 243.86 272.131 241.353C274.634 238.846 276.041 235.447 276.045 231.901V99.4644C276.041 95.9189 274.634 92.5197 272.131 90.0126C269.629 87.5056 266.237 86.0953 262.699 86.0913H15.0688Z" fill="#292524"/>
<path d="M262.698 235.784H15.0681C14.0408 235.783 13.056 235.373 12.3296 234.645C11.6031 233.917 11.1945 232.931 11.1934 231.901V99.4645C11.1945 98.4352 11.6031 97.4484 12.3296 96.7205C13.056 95.9926 14.0408 95.5832 15.0681 95.582H262.698C263.725 95.5832 264.71 95.9926 265.436 96.7205C266.163 97.4484 266.571 98.4352 266.573 99.4645V231.901C266.571 232.931 266.163 233.917 265.436 234.645C264.71 235.373 263.725 235.783 262.698 235.784ZM15.0681 96.4448C14.2691 96.4457 13.5031 96.7641 12.9381 97.3303C12.3731 97.8964 12.0553 98.6639 12.0544 99.4645V231.901C12.0553 232.702 12.3731 233.469 12.9381 234.035C13.5031 234.602 14.2691 234.92 15.0681 234.921H262.698C263.497 234.92 264.263 234.602 264.828 234.035C265.393 233.469 265.711 232.702 265.712 231.901V99.4645C265.711 98.6639 265.393 97.8964 264.828 97.3303C264.263 96.7641 263.497 96.4457 262.698 96.4448H15.0681Z" fill="#CCCCCC"/>
<path d="M207.523 119.824C222.242 119.824 234.174 107.868 234.174 93.1194C234.174 78.371 222.242 66.415 207.523 66.415C192.804 66.415 180.872 78.371 180.872 93.1194C180.872 107.868 192.804 119.824 207.523 119.824Z" fill="#1E3A8A"/>
<path d="M218.665 190.345C237.307 190.345 252.42 171.39 252.42 148.009C252.42 124.628 237.307 105.674 218.665 105.674C200.023 105.674 184.91 124.628 184.91 148.009C184.91 171.39 200.023 190.345 218.665 190.345Z" fill="#F2F2F2"/>
<path d="M218.758 139.496H218.851L220.52 235.388H216.996L218.758 139.496Z" fill="#CCCCCC"/>
<path d="M224.515 202.98C224.619 203.176 224.64 203.405 224.574 203.617C224.509 203.829 224.362 204.006 224.166 204.109L219.324 206.663L218.547 205.183L223.388 202.629C223.584 202.526 223.813 202.505 224.024 202.571C224.236 202.636 224.412 202.784 224.515 202.98Z" fill="#CCCCCC"/>
<path d="M121.62 190.345C140.263 190.345 155.375 171.39 155.375 148.009C155.375 124.628 140.263 105.674 121.62 105.674C102.978 105.674 87.8652 124.628 87.8652 148.009C87.8652 171.39 102.978 190.345 121.62 190.345Z" fill="#F2F2F2"/>
<path d="M127.47 204.565C127.367 204.369 127.191 204.221 126.979 204.156C126.768 204.09 126.539 204.111 126.343 204.214L122.963 205.997L121.806 139.496H121.713L119.951 235.388H123.475L122.996 207.87L127.121 205.694C127.317 205.591 127.463 205.414 127.529 205.202C127.595 204.99 127.573 204.761 127.47 204.565Z" fill="#CCCCCC"/>
<path d="M170.025 50.4453C193.647 50.4453 212.847 95.0434 212.847 124.67C212.847 154.296 193.698 178.313 170.076 178.313C146.454 178.313 127.305 154.296 127.305 124.67C127.305 95.0434 146.403 50.4453 170.025 50.4453Z" fill="#9468F1" fill-opacity="0.77"/>
<path d="M177.488 195.9C177.424 195.777 177.335 195.668 177.229 195.579C177.122 195.49 176.999 195.423 176.866 195.382C176.733 195.341 176.594 195.326 176.456 195.339C176.317 195.352 176.183 195.391 176.06 195.456L171.778 197.715L170.311 113.451H170.193L167.961 234.956H172.426L171.819 200.089L177.045 197.331C177.168 197.267 177.277 197.178 177.366 197.071C177.455 196.964 177.522 196.841 177.563 196.708C177.604 196.575 177.619 196.435 177.606 196.297C177.593 196.158 177.553 196.023 177.488 195.9Z" fill="#292524"/>
</g>
<defs>
<clipPath id="clip0_33_146">
<rect width="329" height="247" fill="white"/>
</clipPath>
</defs>
</svg>
