<svg width="134" height="101" viewBox="0 0 134 101" fill="none" xmlns="http://www.w3.org/2000/svg">
<g clip-path="url(#clip0_27_417)">
<path d="M128.213 93.7673H27.355C25.8208 93.7655 24.35 93.1516 23.2651 92.0603C22.1803 90.9691 21.5701 89.4894 21.5684 87.9461V33.7918C21.5701 32.2485 22.1803 30.7689 23.2651 29.6776C24.35 28.5863 25.8208 27.9724 27.355 27.9707H128.213C129.747 27.9724 131.218 28.5863 132.303 29.6776C133.388 30.7689 133.998 32.2485 134 33.7918V87.9461C133.998 89.4894 133.388 90.9691 132.303 92.0603C131.218 93.1516 129.747 93.7655 128.213 93.7673Z" fill="#F8FAFC"/>
<path d="M128.213 93.7673H27.355C25.8208 93.7655 24.35 93.1516 23.2651 92.0603C22.1803 90.9691 21.5701 89.4894 21.5684 87.9461V33.7918C21.5701 32.2485 22.1803 30.7689 23.2651 29.6776C24.35 28.5863 25.8208 27.9724 27.355 27.9707H128.213C129.747 27.9724 131.218 28.5863 132.303 29.6776C133.388 30.7689 133.998 32.2485 134 33.7918V87.9461C133.998 89.4894 133.388 90.9691 132.303 92.0603C131.218 93.1516 129.747 93.7655 128.213 93.7673ZM27.355 28.3235C25.9138 28.3251 24.5321 28.9018 23.513 29.927C22.4939 30.9521 21.9207 32.3421 21.9191 33.7918V87.9461C21.9207 89.3959 22.4939 90.7858 23.513 91.811C24.5321 92.8362 25.9138 93.4128 27.355 93.4145H128.213C129.654 93.4128 131.036 92.8362 132.055 91.811C133.074 90.7858 133.648 89.3959 133.649 87.9461V33.7918C133.648 32.3421 133.074 30.9521 132.055 29.927C131.036 28.9018 129.654 28.3251 128.213 28.3235H27.355Z" fill="#F2F2F2"/>
<path d="M128.213 89.5345H27.355C26.9366 89.534 26.5355 89.3666 26.2396 89.069C25.9438 88.7714 25.7773 88.3678 25.7769 87.9469V33.7927C25.7773 33.3718 25.9438 32.9682 26.2396 32.6706C26.5355 32.373 26.9366 32.2056 27.355 32.2051H128.213C128.632 32.2056 129.033 32.373 129.329 32.6706C129.625 32.9682 129.791 33.3718 129.791 33.7927V87.9469C129.791 88.3678 129.625 88.7714 129.329 89.069C129.033 89.3666 128.632 89.534 128.213 89.5345ZM27.355 32.5579C27.0296 32.5582 26.7176 32.6885 26.4875 32.9199C26.2574 33.1514 26.1279 33.4653 26.1276 33.7927V87.9469C26.1279 88.2743 26.2574 88.5882 26.4875 88.8196C26.7176 89.0511 27.0296 89.1814 27.355 89.1817H128.213C128.539 89.1814 128.851 89.0511 129.081 88.8196C129.311 88.5882 129.44 88.2743 129.441 87.9469V33.7927C129.44 33.4653 129.311 33.1514 129.081 32.9199C128.851 32.6885 128.539 32.5582 128.213 32.5579H27.355Z" fill="#F2F2F2"/>
<path d="M102.544 89.7919L5.05249 63.7948C3.56997 63.3977 2.30458 62.4252 1.53393 61.0907C0.763283 59.7562 0.550313 58.1687 0.941747 56.6764L14.7356 4.33009C15.1303 2.83873 16.0971 1.5658 17.4237 0.790555C18.7502 0.0153138 20.3284 -0.198923 21.8118 0.194844L119.303 26.192C120.785 26.5891 122.051 27.5616 122.821 28.8961C123.592 30.2306 123.805 31.8181 123.414 33.3104L109.62 85.6567C109.225 87.1481 108.258 88.421 106.932 89.1962C105.605 89.9715 104.027 90.1857 102.544 89.7919Z" fill="#F2F2F2"/>
<path d="M102.544 89.7919L5.05249 63.7948C3.56997 63.3977 2.30458 62.4252 1.53393 61.0907C0.763283 59.7562 0.550313 58.1687 0.941747 56.6764L14.7356 4.33009C15.1303 2.83873 16.0971 1.5658 17.4237 0.790555C18.7502 0.0153138 20.3284 -0.198923 21.8118 0.194844L119.303 26.192C120.785 26.5891 122.051 27.5616 122.821 28.8961C123.592 30.2306 123.805 31.8181 123.414 33.3104L109.62 85.6567C109.225 87.1481 108.258 88.421 106.932 89.1962C105.605 89.9715 104.027 90.1857 102.544 89.7919ZM21.7219 0.535862C20.3284 0.165967 18.8459 0.367223 17.5997 1.09548C16.3536 1.82373 15.4454 3.01952 15.0746 4.42049L1.28075 56.7668C0.913045 58.1686 1.11311 59.6599 1.83705 60.9136C2.56099 62.1672 3.74968 63.0807 5.14235 63.4538L102.634 89.4509C104.027 89.8208 105.509 89.6196 106.756 88.8913C108.002 88.1631 108.91 86.9673 109.281 85.5663L123.075 33.22C123.442 31.8181 123.242 30.3268 122.518 29.0732C121.794 27.8196 120.606 26.9061 119.213 26.533L21.7219 0.535862Z" fill="#E6E6E6"/>
<path d="M103.622 85.6996L6.13092 59.7025C5.7266 59.5942 5.3815 59.3289 5.17132 58.965C4.96115 58.601 4.90306 58.1681 5.00981 57.7611L18.8036 5.41477C18.9113 5.00804 19.175 4.66088 19.5367 4.44945C19.8985 4.23802 20.3289 4.17959 20.7335 4.28698L118.225 30.2841C118.629 30.3924 118.974 30.6577 119.184 31.0216C119.394 31.3856 119.453 31.8185 119.346 32.2255L105.552 84.5718C105.444 84.9786 105.181 85.3257 104.819 85.5372C104.457 85.7486 104.027 85.807 103.622 85.6996ZM20.6436 4.628C20.329 4.54447 19.9942 4.58991 19.7128 4.75436C19.4314 4.9188 19.2264 5.18882 19.1426 5.50517L5.34881 57.8515C5.26577 58.168 5.31095 58.5048 5.47442 58.7879C5.63789 59.0709 5.90631 59.2772 6.22078 59.3615L103.712 85.3586C104.027 85.4421 104.361 85.3967 104.643 85.2322C104.924 85.0678 105.129 84.7978 105.213 84.4814L119.007 32.1351C119.09 31.8186 119.045 31.4818 118.881 31.1987C118.718 30.9157 118.449 30.7094 118.135 30.6251L20.6436 4.628Z" fill="#F8FAFC"/>
<path d="M106.645 101H5.78665C4.25247 100.998 2.78162 100.384 1.69678 99.2928C0.611953 98.2015 0.00173301 96.7219 0 95.1785V41.0243C0.00173301 39.4809 0.611953 38.0013 1.69678 36.91C2.78162 35.8187 4.25247 35.2049 5.78665 35.2031H106.645C108.179 35.2049 109.65 35.8187 110.735 36.91C111.82 38.0013 112.43 39.4809 112.432 41.0243V95.1785C112.43 96.7219 111.82 98.2015 110.735 99.2928C109.65 100.384 108.179 100.998 106.645 101Z" fill="#F8FAFC"/>
<path d="M79.2429 96.4139H14.1115C14.03 96.4142 13.9485 96.4121 13.8682 96.4076L44.6723 78.9558C45.2589 78.6168 46.5748 78.4974 47.6116 78.6892C47.8958 78.7332 48.1711 78.8233 48.4268 78.9558L69.1002 90.6673L70.0906 91.2277L79.2429 96.4139Z" fill="#E6E6E6"/>
<path d="M99.791 96.414H43.4578L54.374 91.2278L55.1596 90.8542L69.3845 84.0956C70.3171 83.6527 72.5606 83.6251 73.6571 84.0121C73.7307 84.0385 73.799 84.0663 73.8619 84.0956L99.791 96.414Z" fill="#E6E6E6"/>
<path d="M5.78653 35.5566C4.34533 35.5583 2.96362 36.1349 1.94454 37.1601C0.925458 38.1853 0.35222 39.5752 0.350586 41.025V95.1793C0.35222 96.629 0.925458 98.019 1.94454 99.0441C2.96362 100.069 4.34533 100.646 5.78653 100.648H106.645C108.086 100.646 109.468 100.069 110.487 99.0441C111.506 98.019 112.079 96.629 112.081 95.1793V41.025C112.079 39.5752 111.506 38.1853 110.487 37.1601C109.468 36.1349 108.086 35.5583 106.645 35.5566H5.78653Z" fill="#292524"/>
<path d="M106.645 96.766H5.78667C5.36826 96.7655 4.96712 96.5981 4.67126 96.3004C4.3754 96.0028 4.20898 95.5993 4.2085 95.1784V41.0241C4.20898 40.6032 4.3754 40.1997 4.67126 39.9021C4.96712 39.6044 5.36826 39.437 5.78667 39.4365H106.645C107.063 39.437 107.465 39.6044 107.76 39.9021C108.056 40.1997 108.223 40.6032 108.223 41.0241V95.1784C108.223 95.5993 108.056 96.0028 107.76 96.3004C107.465 96.5981 107.063 96.7655 106.645 96.766ZM5.78667 39.7893C5.46124 39.7897 5.14924 39.9199 4.91912 40.1514C4.68901 40.3829 4.55957 40.6967 4.5592 41.0241V95.1784C4.55957 95.5057 4.68901 95.8196 4.91912 96.0511C5.14924 96.2826 5.46124 96.4128 5.78667 96.4132H106.645C106.97 96.4128 107.282 96.2826 107.513 96.0511C107.743 95.8196 107.872 95.5057 107.872 95.1784V41.0241C107.872 40.6967 107.743 40.3829 107.513 40.1514C107.282 39.9199 106.97 39.7897 106.645 39.7893H5.78667Z" fill="#CCCCCC"/>
<path d="M84.1723 49.3499C90.1673 49.3499 95.0272 44.4611 95.0272 38.4303C95.0272 32.3996 90.1673 27.5107 84.1723 27.5107C78.1773 27.5107 73.3174 32.3996 73.3174 38.4303C73.3174 44.4611 78.1773 49.3499 84.1723 49.3499Z" fill="#1E3A8A"/>
<path d="M88.7104 78.186C96.3033 78.186 102.459 70.4354 102.459 60.8747C102.459 51.314 96.3033 43.5635 88.7104 43.5635C81.1174 43.5635 74.9622 51.314 74.9622 60.8747C74.9622 70.4354 81.1174 78.186 88.7104 78.186Z" fill="#F2F2F2"/>
<path d="M88.7482 57.3936H88.7859L89.4658 96.6042H88.0305L88.7482 57.3936Z" fill="#CCCCCC"/>
<path d="M91.0931 83.3526C91.1351 83.4328 91.1437 83.5266 91.117 83.6132C91.0903 83.6998 91.0304 83.7722 90.9507 83.8145L88.9788 84.8588L88.6621 84.2536L90.634 83.2093C90.7137 83.167 90.8069 83.1584 90.893 83.1853C90.9791 83.2121 91.0511 83.2723 91.0931 83.3526Z" fill="#CCCCCC"/>
<path d="M49.1847 78.186C56.7777 78.186 62.933 70.4354 62.933 60.8747C62.933 51.314 56.7777 43.5635 49.1847 43.5635C41.5918 43.5635 35.4365 51.314 35.4365 60.8747C35.4365 70.4354 41.5918 78.186 49.1847 78.186Z" fill="#F2F2F2"/>
<path d="M51.5674 84.0006C51.5254 83.9204 51.4534 83.8602 51.3673 83.8333C51.2812 83.8064 51.188 83.8151 51.1082 83.8573L49.7317 84.5864L49.2602 57.3936H49.2224L48.5049 96.6044H49.9401L49.745 85.3523L51.425 84.4625C51.5048 84.4202 51.5646 84.3478 51.5913 84.2612C51.618 84.1746 51.6094 84.0809 51.5674 84.0006Z" fill="#CCCCCC"/>
<path d="M68.8997 20.9805C78.5207 20.9805 86.3407 39.2169 86.3407 51.3314C86.3407 63.4459 78.5413 73.2666 68.9202 73.2666C59.2992 73.2666 51.4998 63.4459 51.4998 51.3314C51.4998 39.2169 59.2786 20.9805 68.8997 20.9805Z" fill="#3B82F6"/>
<path d="M71.9393 80.4581C71.913 80.4078 71.877 80.3631 71.8336 80.3268C71.7901 80.2904 71.7399 80.263 71.6859 80.2462C71.6318 80.2293 71.575 80.2233 71.5187 80.2285C71.4624 80.2338 71.4077 80.2501 71.3576 80.2766L69.6133 81.2004L69.016 46.7441H68.9681L68.0588 96.4284H69.8774L69.6302 82.1708L71.7589 81.0434C71.809 81.0169 71.8533 80.9807 71.8895 80.937C71.9257 80.8932 71.9529 80.8427 71.9696 80.7884C71.9864 80.734 71.9923 80.6769 71.9871 80.6202C71.9819 80.5635 71.9657 80.5085 71.9393 80.4581Z" fill="#292524"/>
<path d="M106.996 100.647H6.13724C4.60305 100.645 3.1322 100.032 2.04737 98.9402C0.962539 97.8489 0.352319 96.3693 0.350586 94.826V40.6717C0.352319 39.1284 0.962539 37.6488 2.04737 36.5575C3.1322 35.4662 4.60305 34.8523 6.13724 34.8506H106.996C108.53 34.8523 110.001 35.4662 111.085 36.5575C112.17 37.6488 112.78 39.1284 112.782 40.6717V94.826C112.78 96.3693 112.17 97.8489 111.085 98.9402C110.001 100.032 108.53 100.645 106.996 100.647Z" fill="#F8FAFC"/>
<path d="M79.5935 96.0604H14.4621C14.3806 96.0607 14.2991 96.0586 14.2188 96.0541L45.0229 78.6023C45.6094 78.2632 46.9254 78.1439 47.9622 78.3357C48.2464 78.3797 48.5217 78.4698 48.7773 78.6023L69.4508 90.3138L70.4412 90.8742L79.5935 96.0604Z" fill="#E6E6E6"/>
<path d="M100.142 96.0605H43.8083L54.7246 90.8743L55.5102 90.5007L69.7351 83.7421C70.6677 83.2991 72.9112 83.2716 74.0076 83.6585C74.0813 83.6849 74.1496 83.7128 74.2125 83.7421L100.142 96.0605Z" fill="#E6E6E6"/>
<path d="M106.996 100.647H6.13724C4.60305 100.645 3.1322 100.032 2.04737 98.9402C0.962539 97.8489 0.352319 96.3693 0.350586 94.826V40.6717C0.352319 39.1284 0.962539 37.6488 2.04737 36.5575C3.1322 35.4662 4.60305 34.8523 6.13724 34.8506H106.996C108.53 34.8523 110.001 35.4662 111.085 36.5575C112.17 37.6488 112.78 39.1284 112.782 40.6717V94.826C112.78 96.3693 112.17 97.8489 111.085 98.9402C110.001 100.032 108.53 100.645 106.996 100.647ZM6.13724 35.2034C4.69603 35.205 3.31433 35.7817 2.29525 36.8068C1.27616 37.832 0.702926 39.2219 0.701292 40.6717V94.826C0.702926 96.2758 1.27616 97.6657 2.29525 98.6909C3.31433 99.716 4.69603 100.293 6.13724 100.294H106.996C108.437 100.293 109.818 99.716 110.838 98.6909C111.857 97.6657 112.43 96.2758 112.431 94.826V40.6717C112.43 39.2219 111.857 37.832 110.838 36.8068C109.818 35.7817 108.437 35.205 106.996 35.2034H6.13724Z" fill="#292524"/>
<path d="M106.996 96.4134H6.13726C5.71885 96.4129 5.31771 96.2455 5.02185 95.9479C4.72599 95.6503 4.55956 95.2467 4.55908 94.8258V40.6716C4.55956 40.2507 4.72599 39.8471 5.02185 39.5495C5.31771 39.2519 5.71885 39.0845 6.13726 39.084H106.996C107.414 39.0845 107.815 39.2519 108.111 39.5495C108.407 39.8471 108.573 40.2507 108.574 40.6716V94.8258C108.573 95.2467 108.407 95.6503 108.111 95.9479C107.815 96.2455 107.414 96.4129 106.996 96.4134ZM6.13726 39.4368C5.81183 39.4371 5.49983 39.5674 5.26971 39.7988C5.03959 40.0303 4.91015 40.3442 4.90979 40.6716V94.8258C4.91015 95.1532 5.03959 95.4671 5.26971 95.6986C5.49983 95.93 5.81183 96.0603 6.13726 96.0606H106.996C107.321 96.0603 107.633 95.93 107.863 95.6986C108.093 95.4671 108.223 95.1532 108.223 94.8258V40.6716C108.223 40.3442 108.093 40.0303 107.863 39.7988C107.633 39.5674 107.321 39.4371 106.996 39.4368H6.13726Z" fill="#CCCCCC"/>
<path d="M84.5231 48.9964C90.5181 48.9964 95.378 44.1076 95.378 38.0768C95.378 32.0461 90.5181 27.1572 84.5231 27.1572C78.5281 27.1572 73.6682 32.0461 73.6682 38.0768C73.6682 44.1076 78.5281 48.9964 84.5231 48.9964Z" fill="#1E3A8A"/>
<path d="M89.0612 77.8334C96.6542 77.8334 102.809 70.0829 102.809 60.5222C102.809 50.9614 96.6542 43.2109 89.0612 43.2109C81.4683 43.2109 75.313 50.9614 75.313 60.5222C75.313 70.0829 81.4683 77.8334 89.0612 77.8334Z" fill="#F2F2F2"/>
<path d="M89.0991 57.041H89.1368L89.8166 96.2517H88.3813L89.0991 57.041Z" fill="#CCCCCC"/>
<path d="M91.4439 83C91.4859 83.0803 91.4945 83.174 91.4678 83.2607C91.4411 83.3473 91.3813 83.4197 91.3015 83.4619L89.3297 84.5062L89.0129 83.9011L90.9848 82.8568C91.0646 82.8145 91.1577 82.8059 91.2439 82.8327C91.33 82.8596 91.4019 82.9198 91.4439 83Z" fill="#CCCCCC"/>
<path d="M49.5353 77.8334C57.1283 77.8334 63.2836 70.0829 63.2836 60.5222C63.2836 50.9614 57.1283 43.2109 49.5353 43.2109C41.9424 43.2109 35.7871 50.9614 35.7871 60.5222C35.7871 70.0829 41.9424 77.8334 49.5353 77.8334Z" fill="#F2F2F2"/>
<path d="M51.9183 83.6481C51.8763 83.5678 51.8043 83.5076 51.7182 83.4808C51.632 83.4539 51.5389 83.4625 51.4591 83.5048L50.0825 84.2338L49.611 57.041H49.5733L48.8557 96.2518H50.2909L50.0958 84.9997L51.7758 84.11C51.8556 84.0677 51.9154 83.9953 51.9421 83.9087C51.9688 83.8221 51.9602 83.7283 51.9183 83.6481Z" fill="#CCCCCC"/>
<path d="M69.2505 20.6279C78.8716 20.6279 86.6915 38.8644 86.6915 50.9789C86.6915 63.0933 78.8921 72.9141 69.2711 72.9141C59.65 72.9141 51.8506 63.0933 51.8506 50.9789C51.8506 38.8644 59.6294 20.6279 69.2505 20.6279Z" fill="#3B82F6"/>
<path d="M72.2902 80.1046C72.2638 80.0543 72.2279 80.0096 72.1844 79.9733C72.1409 79.9369 72.0907 79.9095 72.0367 79.8926C71.9827 79.8758 71.9259 79.8698 71.8696 79.875C71.8132 79.8802 71.7585 79.8966 71.7084 79.9231L69.9641 80.8469L69.3668 46.3906H69.319L68.4097 96.0749H70.2282L69.981 81.8173L72.1098 80.6899C72.1598 80.6634 72.2042 80.6272 72.2403 80.5834C72.2765 80.5397 72.3037 80.4892 72.3205 80.4348C72.3372 80.3805 72.3432 80.3233 72.338 80.2667C72.3328 80.21 72.3165 80.155 72.2902 80.1046Z" fill="#292524"/>
</g>
<defs>
<clipPath id="clip0_27_417">
<rect width="134" height="101" fill="white"/>
</clipPath>
</defs>
</svg>
