<svg width="25" height="25" viewBox="0 0 25 25" fill="none" xmlns="http://www.w3.org/2000/svg">
<path d="M12.1094 0C5.42202 0 0 5.42397 0 12.1094C0 18.7987 5.42202 24.2188 12.1094 24.2188C18.7967 24.2188 24.2188 18.7987 24.2188 12.1094C24.2188 5.42397 18.7967 0 12.1094 0ZM12.1094 5.37109C13.242 5.37109 14.1602 6.28926 14.1602 7.42188C14.1602 8.55449 13.242 9.47266 12.1094 9.47266C10.9768 9.47266 10.0586 8.55449 10.0586 7.42188C10.0586 6.28926 10.9768 5.37109 12.1094 5.37109ZM14.8438 17.7734C14.8438 18.097 14.5814 18.3594 14.2578 18.3594H9.96094C9.63735 18.3594 9.375 18.097 9.375 17.7734V16.6016C9.375 16.278 9.63735 16.0156 9.96094 16.0156H10.5469V12.8906H9.96094C9.63735 12.8906 9.375 12.6283 9.375 12.3047V11.1328C9.375 10.8092 9.63735 10.5469 9.96094 10.5469H13.0859C13.4095 10.5469 13.6719 10.8092 13.6719 11.1328V16.0156H14.2578C14.5814 16.0156 14.8438 16.278 14.8438 16.6016V17.7734Z" fill="#DCDCDC"/>
</svg>
