<svg width="714" height="569" viewBox="0 0 714 569" fill="none" xmlns="http://www.w3.org/2000/svg">
<g clip-path="url(#clip0_110_601)">
<path d="M477.072 124.634C476.967 124.652 476.81 124.679 476.62 124.71C472.905 125.325 450.442 128.791 427.794 120.164C418.199 116.509 421.472 115.598 400.104 102.892C375.052 87.9954 368.623 88.0995 366.758 81.1535C363.033 67.2835 382.924 45.4796 396.089 46.9152C399.556 47.2931 403.268 49.3596 409.041 47.9584C410.31 47.6506 415.863 46.303 418.57 41.7065C420.985 37.6062 418.94 34.6484 419.911 31.2855C422.46 22.4585 443.711 18.0533 462.342 21.1658C473.057 22.956 481.392 27.8433 497.624 37.5449C525.876 54.4308 540.002 62.8738 543.177 75.8094C546.186 88.0699 538.964 93.3529 544.217 106.477C549.108 118.698 556.876 117.882 559.549 127.768C563.851 143.676 547.885 161.135 541.234 168.408C533.942 176.383 526.968 180.759 517.71 186.569C506.089 193.862 500.279 197.508 493.293 197.137C480.627 196.464 442.992 198.754 442.501 188.273C442.317 184.345 396.672 187.561 419.148 145.274C421.905 140.087 475.911 145.627 476.623 142.648" fill="#292524"/>
<path d="M498.93 151.694L537.75 209.598L426.317 232.132L433.415 159.639L498.93 151.694Z" fill="#FECDD3"/>
<path opacity="0.1" d="M498.93 151.694L537.75 209.598L426.317 232.132L433.415 159.639L498.93 151.694Z" fill="#020617"/>
<path d="M417.971 194.575L538.158 189.567L591.574 218.779L589.07 406.566L644.99 512.562L362.886 459.146L384.586 379.024L374.571 210.433L417.971 194.575Z" fill="#9468F1"/>
<path d="M3.23675 559.386C-0.600286 553.338 -1.05343 545.865 2.02483 539.396L47.7683 443.286C51.1822 436.113 58.5213 431.479 66.4653 431.479H644.241C651.964 431.479 658.99 435.727 662.577 442.566L711.608 536.027C714.997 542.488 714.774 550.076 711.011 556.326C707.249 562.576 700.648 566.324 693.353 566.353L20.8032 569H20.719C13.5894 569 7.05823 565.411 3.23675 559.386Z" fill="#F8FAFC"/>
<path d="M3.23675 559.386C-0.600286 553.338 -1.05343 545.865 2.02483 539.396L47.7683 443.286C51.1822 436.113 58.5213 431.479 66.4653 431.479H644.241C651.964 431.479 658.99 435.727 662.577 442.566L711.608 536.027C714.997 542.488 714.774 550.076 711.011 556.326C707.249 562.576 700.648 566.324 693.353 566.353L20.8032 569H20.719C13.5894 569 7.05823 565.411 3.23675 559.386ZM66.4653 433.652C59.3551 433.652 52.7864 437.8 49.7308 444.22L3.98739 540.33C1.2321 546.119 1.63749 552.808 5.07197 558.222C8.49265 563.614 14.3375 566.827 20.7194 566.827H20.7947L693.344 564.18C699.873 564.154 705.782 560.799 709.149 555.205C712.517 549.611 712.716 542.819 709.683 537.038L660.652 443.575C657.442 437.455 651.153 433.652 644.241 433.652H66.4653Z" fill="#111827"/>
<path d="M590.448 532.258L352.016 515.866C348.496 515.624 345.688 513.251 344.864 509.82C344.039 506.389 345.461 503 348.487 501.185L401.211 469.55C402.55 468.746 404.086 468.356 405.642 468.431L611.884 477.806C614.611 477.929 617.046 479.418 618.399 481.789C619.752 484.159 619.795 487.013 618.514 489.423L597.98 528.075C596.602 530.67 593.9 532.277 590.991 532.277C590.811 532.277 590.63 532.27 590.448 532.258Z" fill="#111827"/>
<path d="M349.949 506.302L587.401 522.576L606.18 482.098L402.575 474.113L349.949 506.302Z" fill="#F8FAFC"/>
<path d="M466.796 171.199C506.204 171.199 538.151 139.254 538.151 99.8466C538.151 60.4397 506.204 28.4941 466.796 28.4941C427.389 28.4941 395.442 60.4397 395.442 99.8466C395.442 139.254 427.389 171.199 466.796 171.199Z" fill="#FEE7CD"/>
<path d="M489.78 104.464C489.675 104.482 489.518 104.509 489.329 104.54C485.613 105.155 463.149 108.621 440.502 99.9937C430.907 96.339 434.18 95.4281 412.812 82.722C387.76 67.8255 381.331 67.9296 379.466 60.9836C375.741 47.1136 395.632 25.3097 408.797 26.7452C412.264 27.1232 415.976 29.1897 421.75 27.7885C423.018 27.4806 428.571 26.133 431.278 21.5366C433.693 17.4363 431.648 14.4784 432.619 11.1156C435.168 2.28855 456.419 -2.11662 475.05 0.995869C485.765 2.78607 494.1 7.67339 510.332 17.375C538.584 34.2609 552.71 42.7039 555.885 55.6394C558.894 67.9 551.672 73.1829 556.925 86.3075C561.816 98.528 569.584 97.7118 572.257 107.598C576.559 123.506 560.593 140.965 553.942 148.239C546.65 156.213 539.676 160.589 530.418 166.399C518.797 173.692 512.987 177.338 506.001 176.967C493.335 176.294 480.738 164.817 480.247 154.336C480.063 150.408 481.702 149.23 485.757 135.727C487.447 130.102 488.619 125.458 489.331 122.478" fill="#292524"/>
<path d="M538.686 486.753C543.276 486.935 546.77 491.048 547.023 495.504C547.286 500.129 544.07 504.39 540.206 506.592C535.68 509.171 530.031 509.585 524.935 509.141C520.351 508.742 515.363 507.316 512.413 503.531C509.931 500.346 509.018 495.534 511.129 491.919C513.222 488.334 517.673 487.345 521.396 488.783C525.337 490.305 527.814 493.889 527.839 498.123C527.867 502.818 525.156 507.155 521.351 509.75C517.248 512.55 512.084 513.45 507.2 513.439C501.878 513.426 496.579 512.31 491.684 510.236C487.097 508.292 482.514 505.49 479.235 501.683C476.16 498.113 474.319 493.161 476.026 488.531C477.426 484.734 480.962 482.406 485.012 482.728C488.721 483.022 492.471 485.174 494.117 488.6C495.974 492.465 495.14 497.103 492.777 500.559C490.048 504.55 485.735 506.792 480.945 507.116C475.848 507.461 470.8 505.649 466.607 502.849C462.724 500.257 459.311 496.938 455.143 494.781C453.137 493.743 450.953 493.083 448.682 493.086C445.79 493.089 443.009 494.039 440.196 494.59C437.812 495.057 435.355 495.329 433.003 494.567C430.989 493.915 429.105 492.721 427.837 491.007C426.638 489.386 426.217 487.356 426.896 485.431C427.429 483.922 429.849 484.572 429.311 486.097C428.068 489.616 432.331 492.202 435.314 492.525C437.578 492.769 439.914 492.115 442.097 491.605C444.373 491.072 446.701 490.528 449.054 490.586C457.391 490.791 462.903 497.917 469.625 501.784C476.692 505.849 487.041 506.132 491.369 498.054C492.941 495.12 493.266 491.22 491.106 488.479C489.307 486.196 486.112 484.829 483.215 485.272C479.578 485.828 477.766 489.292 477.898 492.736C478.06 496.952 480.998 500.376 484.131 502.901C491.106 508.52 500.355 511.383 509.276 510.881C513.462 510.645 517.91 509.555 521.162 506.768C523.971 504.361 525.889 500.445 525.214 496.694C524.629 493.448 521.907 490.986 518.617 490.659C515.253 490.325 512.623 492.714 512.473 496.075C512.304 499.856 514.55 503.012 517.805 504.733C521.493 506.684 525.961 506.925 530.047 506.713C534.385 506.487 538.906 505.344 541.942 502.04C544.532 499.222 545.513 495.042 543.127 491.781C542.074 490.342 540.49 489.328 538.686 489.257C537.08 489.194 537.072 486.69 538.686 486.753Z" fill="#1D4ED8"/>
<path d="M424.569 484.071L425.846 476.178L496.684 340.788C497.857 338.545 500.637 337.675 502.879 338.849C505.122 340.022 505.992 342.801 504.819 345.044L434.012 480.374L428.223 485.983C427.538 486.643 426.551 486.785 425.707 486.343C424.865 485.902 424.418 485.01 424.569 484.071Z" fill="#111827"/>
<path d="M472.855 397.933C480.847 399.438 488.362 402.834 494.772 407.839L495.133 407.917L495.206 407.557L572.411 419.65L566.817 316.963L625.329 284.916L611.499 458.492C608.504 469.577 596.999 476.052 585.969 472.859L487.691 444.591L487.936 443.382L487.593 443.289C479.738 445.408 471.491 445.614 463.541 443.89C443.596 439.854 429.511 426.292 432.082 413.599C434.653 400.907 452.903 393.893 472.855 397.933Z" fill="#FECDD3"/>
<path d="M525.639 237.14L591.574 218.778C591.574 218.778 626.211 244.234 630.385 271.776C630.881 275.052 632.258 427.636 630.802 431.604C620.017 460.998 560.693 414.077 560.693 414.077L525.639 237.14Z" fill="#9468F1"/>
<path d="M239.641 511.384L232.805 505.525C231.787 504.652 230.55 504.074 229.226 503.854L76.921 478.47C73.4447 477.89 70.8768 475.38 70.2191 471.917C69.5617 468.455 71.0305 465.178 74.0527 463.364L128.388 430.764C130.204 429.674 132.341 429.331 134.409 429.798L327.52 473.426C331.274 474.274 333.78 477.307 333.903 481.154C334.026 485.001 331.719 488.189 328.026 489.276L247.283 513.023C246.517 513.249 245.736 513.359 244.961 513.359C243.034 513.359 241.148 512.676 239.641 511.384Z" fill="#111827"/>
<path d="M166.294 322.061C173.843 325.084 180.559 329.872 185.879 336.022L186.218 336.169L186.359 335.83L259.762 362.64L338.136 235.744L381.463 262.596L290.591 408.315C285.506 418.611 272.966 422.735 262.762 417.468L171.816 370.709L172.291 369.57L171.972 369.412C163.856 369.97 155.725 368.576 148.259 365.346C129.472 357.525 118.28 341.492 123.259 329.538C128.239 317.583 147.502 314.235 166.294 322.061Z" fill="#FECDD3"/>
<path d="M422.21 258.653L387.545 206.815C387.545 206.815 346.294 214.98 329.301 237.054C327.177 239.813 254.215 345.628 253.745 350.246C250.454 382.571 334.311 397.717 334.311 397.717L422.21 258.653Z" fill="#9468F1"/>
<path d="M235.868 512.941L61.279 488.811C55.4358 488.004 50.613 483.817 48.9919 478.145L8.89342 337.804C7.5347 333.047 8.54905 328.122 11.6765 324.289C14.8039 320.457 19.4245 318.476 24.3585 318.853L200.257 332.329C206.621 332.816 211.963 337.298 213.551 343.479L252.339 494.475C253.577 499.293 252.339 504.387 249.028 508.099C246.176 511.297 242.133 513.082 237.918 513.082C237.238 513.082 236.553 513.036 235.868 512.941Z" fill="#111827"/>
<path d="M196.952 225.483C197.973 226.605 201.676 225.462 209.041 223.129C214.64 221.355 215.502 220.71 216.034 220.248C217.906 218.621 218.397 216.91 220.252 209.354C223.58 195.791 223.683 194.444 225.392 191.566C225.981 190.575 227.467 188.211 227.105 187.918C226.732 187.617 225.123 190.08 222.15 191.01C219.252 191.917 217.947 190.465 215.473 190.835C212.275 191.313 210.373 194.351 207.39 199.268C204.748 203.623 204.416 205.375 200.713 214.027C199.663 216.478 198.819 218.375 198.17 219.875C190.899 226.661 183.687 233.537 176.541 240.472C176.679 240.262 176.809 240.063 176.921 239.89C180.086 235.03 180.517 232.425 180.471 230.473C180.396 227.31 178.886 224.901 175.867 220.211C172.91 215.616 170.107 212.584 166.731 208.966C162.305 204.223 160.092 201.852 159.211 202.008C152.916 203.122 151.233 245.981 159.153 253.646C158.041 254.44 157.12 255.272 156.455 256.09C149.675 248.563 138.061 240.154 125.196 239.119C117.265 238.48 112.887 240.969 111.526 241.824C105.235 245.775 101.494 253.684 103.373 255.915C105.125 257.996 110.184 253.266 120.1 253.526C127.019 253.708 132.424 256.218 135.633 257.708C142.364 260.835 144.826 263.908 149.788 266.013C147.462 267.93 145.619 270.323 144.461 272.555C144.06 272.968 143.661 273.383 143.26 273.797C138.14 270.911 132.373 268.794 126.329 268.308C118.397 267.67 114.02 270.158 112.659 271.013C108.419 273.677 105.346 278.132 104.363 281.441C103.72 281.57 103.125 281.718 102.581 281.877C100.659 277.533 94.9387 272.952 89.6202 270.644C80.4652 266.67 68.5729 267.723 67.3004 271.502C67.2599 271.622 67.2497 271.741 67.2317 271.86C68.2353 263.763 69.5979 255.723 71.3004 247.741C71.358 247.969 71.4306 248.199 71.5271 248.442C73.7871 254.118 79.894 259.566 88.2183 262.392C94.7517 264.611 97.4883 263.461 98.1833 263.14C98.8474 262.833 101.716 261.602 102.418 259.154C103.721 254.615 95.7424 241.203 90.7095 245.702C74.5392 260.156 72.3202 248.452 71.5775 246.481C72.9523 240.171 74.5347 233.897 76.3095 227.658C76.3401 227.696 76.3666 227.734 76.3984 227.772C79.9313 232.057 86.7302 235.075 94.7199 235.209C100.991 235.313 103.039 233.558 103.552 233.087C104.041 232.637 106.182 230.774 106.11 228.461C105.976 224.171 98.3447 220.677 92.2386 220.071C86.6118 219.513 80.5528 221.236 77.5472 223.417C78.9447 218.745 80.4479 214.094 82.0513 209.462C86.1578 211.14 91.9747 210.914 97.6892 208.36C102.402 206.253 103.318 204.231 103.536 203.701C103.744 203.195 104.691 201.06 103.832 199.36C102.238 196.208 95.3298 196.261 90.5655 197.937C88.6032 198.627 86.7383 199.688 85.14 200.888C87.9815 193.297 91.079 185.76 94.4102 178.279L91.0717 177.444C86.8162 187.001 83.106 196.683 79.9174 206.472C79.5209 203.601 78.5274 200.542 77.2192 198.058C73.3725 190.752 65.1562 185.271 62.3776 187.049C61.8217 187.405 61.5878 187.984 61.3763 188.674C59.673 194.224 60.9557 201.894 65.4414 208.942C68.9619 214.473 71.6735 215.249 72.3797 215.425C72.9761 215.573 75.2785 216.209 77.1709 215.39C75.8982 219.751 74.7214 224.131 73.6484 228.53C72.3571 225.324 69.8125 221.908 67.1213 219.546C60.9156 214.1 51.2821 211.92 49.3235 214.575C48.9319 215.106 48.9206 215.73 48.9698 216.45C49.3646 222.243 53.3063 228.946 60.016 233.923C65.2823 237.829 68.092 237.584 68.8144 237.495C69.2397 237.443 70.5246 237.315 71.7635 236.755C70.6135 242.101 69.6083 247.472 68.7394 252.866C67.0017 246.832 61.0988 239.304 55.5278 241.699C45.642 245.949 34.0214 239.421 32.7424 242.275C32.4096 243.018 32.6851 243.784 33.0036 244.615C35.5647 251.302 42.6383 257.782 52.3508 261.222C59.9738 263.923 63.1988 262.618 64.0183 262.252C64.5616 262.009 66.3541 261.26 67.6894 259.871C66.7295 266.802 65.9937 273.768 65.4755 280.764C63.4144 276.264 57.6089 271.523 52.174 269.079C42.6406 264.791 30.1716 265.73 28.7868 269.67C28.5099 270.458 28.7284 271.219 29.055 272.072C31.684 278.936 38.944 285.586 48.9131 289.118C56.7373 291.889 60.0473 290.55 60.8887 290.174C61.5032 289.9 63.674 288.993 65.0582 287.271C64.8809 290.505 64.744 293.745 64.6574 296.991C64.6327 297.916 64.6182 298.84 64.6003 299.765C64.488 299.947 64.39 300.132 64.3248 300.326C64.0577 301.12 64.2394 301.883 64.553 302.716C64.5461 303.303 64.5424 303.89 64.5386 304.477C62.7943 302.896 60.7137 300.519 58.211 297.131C55.9528 294.075 53.8084 296.318 52.4309 298.92C50.2714 298.439 48.2115 298.737 46.5916 300.25C35.7282 310.398 23.5437 305.014 23.3713 308.04C23.3216 308.913 23.7893 309.607 24.3788 310.36C29.1221 316.42 38.4338 320.84 49.4963 321.306C58.1786 321.671 61.0784 319.312 61.8046 318.678C62.0597 318.455 62.6315 317.973 63.2508 317.296C63.748 317.694 64.2319 318.054 64.7173 318.382C64.9082 324.191 65.2499 329.994 65.7565 335.785C65.3447 335.822 64.9508 335.89 64.6574 335.92C60.4518 336.348 59.0348 330.674 52.6818 328.601C50.572 327.913 46.5074 327.162 44.3655 328.601C44.0569 328.809 43.0045 329.588 41.3715 330.265C40.4063 330.665 39.6688 330.85 39.3756 330.93C36.769 331.643 34.3548 333.599 32.7226 334.922C29.6543 337.408 28.1203 338.651 27.4 340.909C27.1734 341.62 26.5359 343.619 27.4 345.566C27.8084 346.487 28.7561 347.855 32.3899 349.226C34.5496 350.04 40.8488 352.416 48.3572 349.891C50.067 349.316 48.7619 349.522 55.343 346.232C60.5207 343.643 63.5489 342.406 63.9921 339.911C64.1479 339.035 63.9908 337.965 64.6574 337.583C65.0278 337.371 65.4757 337.474 65.9228 337.635C66.3584 342.291 66.9025 346.94 67.5619 351.579H61.6371C53.7701 351.579 46.7124 355.957 43.2191 363.006L21.0577 407.714C19.6586 410.536 18.9189 413.693 18.9189 416.843V531.805C18.9189 543.139 28.1407 552.361 39.4759 552.361H91.2037C102.539 552.361 111.761 543.139 111.761 531.805V425.947C111.761 423.366 111.282 420.84 110.339 418.437L89.2186 364.625C86.6568 358.099 81.1087 353.482 74.4765 352.053C76.6038 349.531 78.7344 347.012 80.8817 344.5C83.5853 345.804 86.5594 346.875 89.7572 347.627C98.2167 349.616 101.508 347.842 102.34 347.355C103.135 346.89 106.582 344.999 107.166 341.845C107.229 341.507 107.253 341.165 107.248 340.821C115.914 347.865 120.434 351.337 123.737 350.179C126.576 349.184 128.197 345.922 129.125 342.995C130.094 343.13 131.122 343.268 132.218 343.414C144.086 344.999 150.067 345.734 152.354 342.923C155.52 339.032 152.515 331.531 151.687 329.464C149.887 324.97 147.117 322.236 145.397 320.573C143.163 318.413 136.796 312.257 126.772 311.436C124.593 311.257 122.635 311.394 120.641 311.811C119.946 311.176 119.213 310.553 118.405 309.962C116.867 308.834 115.347 308 113.712 307.347C116.221 304.599 118.736 301.859 121.264 299.13C121.664 299.312 122.044 299.488 122.393 299.65C130.673 303.496 132.492 307.261 140.455 309.244C144.068 310.143 148.158 311.162 149.17 309.631C150.969 306.911 143.334 295.721 131.536 288.15C132.331 287.308 133.129 286.468 133.926 285.628C135.005 286.08 135.956 286.522 136.766 286.898C145.046 290.743 146.865 294.509 154.828 296.492C158.441 297.391 162.531 298.409 163.543 296.878C165.148 294.452 159.243 285.279 149.571 277.952C152.228 277.108 155.75 276.173 160.312 276.293C167.231 276.475 172.636 278.985 175.845 280.476C184.125 284.321 185.944 288.087 193.907 290.069C197.52 290.969 201.61 291.987 202.622 290.456C205.296 286.413 187.134 263.634 165.408 261.886C163.722 261.75 162.206 261.761 160.835 261.863C160.646 261.549 160.44 261.227 160.224 260.899C167.575 261.136 181.931 259.034 194.15 267.613C197.673 270.086 204.518 275.905 215.972 280.686C219.633 282.214 221.474 282.965 221.981 282.337C223.796 280.091 208.705 261.608 187.473 252.502C179.055 248.892 173.854 248.55 170.155 249.097C170.725 248.447 171.28 247.776 171.815 247.102C180.083 238.994 188.454 230.97 196.901 223.055C196.492 224.319 196.506 224.992 196.952 225.483ZM90.8563 326.4C81.5182 323.377 70.2108 325.001 67.2623 328.441C66.8466 325.392 66.4853 322.34 66.1876 319.281C70.4419 321.657 74.8809 322.293 83.3016 323.417C86.8881 323.896 89.9285 324.295 92.5002 324.544C92.8456 325.481 93.214 326.323 93.6415 327.129C93.691 327.223 93.7442 327.312 93.7948 327.404L93.7202 327.489C92.7612 327.073 91.8005 326.706 90.8563 326.4ZM66.0462 285.446C66.3125 284.563 66.318 283.622 66.1147 282.652C66.4052 279.138 66.7679 275.634 67.1971 272.142C67.1861 272.676 67.3556 273.211 67.5867 273.791C70.1827 280.311 77.1972 286.569 86.7587 289.815C88.5423 290.421 90.0724 290.803 91.3903 291.036C90.8104 292.046 90.3662 293.031 90.0718 293.942C86.8121 291.323 82.6161 289.419 77.8553 291.439C76.5598 291.989 75.7908 294 75.1228 296.405C70.7247 296.481 67.0496 297.399 65.2992 298.951C65.3086 298.303 65.3053 297.657 65.3226 297.009C65.4213 293.312 65.6034 289.628 65.8602 285.955C65.9303 285.79 65.9934 285.621 66.0462 285.446ZM65.3116 304.459C65.5011 304.847 65.7088 305.233 65.9244 305.618C65.7287 305.474 65.5284 305.319 65.3228 305.151C65.3173 304.921 65.3159 304.69 65.3116 304.459ZM72.8208 351.769C72.3088 351.702 71.792 351.653 71.2704 351.623C70.0665 345.647 68.9548 339.674 68.0244 333.69C70.4712 337.573 74.4648 341.128 79.5519 343.824C77.2945 346.466 75.056 349.116 72.8208 351.769ZM112.234 306.818C109.049 305.795 105.312 305.306 100.14 304.705C98.8298 302.884 97.4789 301.542 96.4802 300.576C95.9392 300.053 95.1088 299.016 94.033 297.802C96.8207 296.908 100.981 295.313 106.86 295.468C112.203 295.608 116.638 297.136 119.861 298.512C117.308 301.27 114.768 304.04 112.234 306.818ZM130.281 287.367C127.152 285.476 123.758 283.857 120.186 282.719C120.533 282.716 120.873 282.706 121.233 282.716C125.663 282.832 129.469 283.903 132.478 285.05C131.746 285.822 131.012 286.593 130.281 287.367Z" fill="#94A3B8"/>
</g>
<defs>
<clipPath id="clip0_110_601">
<rect width="714" height="569" fill="white"/>
</clipPath>
</defs>
</svg>
