<svg width="35" height="35" viewBox="0 0 35 35" fill="none" xmlns="http://www.w3.org/2000/svg">
<g clip-path="url(#clip0_110_495)">
<path fill-rule="evenodd" clip-rule="evenodd" d="M14.2133 3.55323C8.32599 3.55323 3.55323 8.32599 3.55323 14.2133C3.55323 20.1006 8.32599 24.873 14.2133 24.873C20.1006 24.873 24.873 20.1006 24.873 14.2133C24.873 8.32599 20.1006 3.55323 14.2133 3.55323ZM0 14.2133C0 6.36344 6.36344 0 14.2133 0C22.0631 0 28.4266 6.36344 28.4266 14.2133C28.4266 22.0631 22.0631 28.4266 14.2133 28.4266C6.36344 28.4266 0 22.0631 0 14.2133Z" fill="#9468F1"/>
<path fill-rule="evenodd" clip-rule="evenodd" d="M20.4312 14.213C20.4312 10.7786 17.6469 7.99464 14.2129 7.99464V4.44141C19.6095 4.44141 23.9845 8.81604 23.9845 14.213H20.4312Z" fill="#9468F1"/>
<path fill-rule="evenodd" clip-rule="evenodd" d="M24.3535 21.8398L35.0132 32.4999L32.5009 35.0126L21.8408 24.3526L24.3535 21.8398Z" fill="#9468F1"/>
</g>
<defs>
<clipPath id="clip0_110_495">
<rect width="35" height="35" fill="white"/>
</clipPath>
</defs>
</svg>
