<svg width="37" height="35" viewBox="0 0 37 35" fill="none" xmlns="http://www.w3.org/2000/svg">
<path d="M25.1069 10.5314C24.025 4.34418 21.4733 0 18.5037 0C15.5342 0 12.9825 4.34418 11.9006 10.5314H25.1069ZM11.341 17.1827C11.341 18.7209 11.4305 20.1966 11.5872 21.617H25.4128C25.5695 20.1966 25.659 18.7209 25.659 17.1827C25.659 15.6446 25.5695 14.1688 25.4128 12.7485H11.5872C11.4305 14.1688 11.341 15.6446 11.341 17.1827ZM35.5675 10.5314C33.4336 5.82689 29.1135 2.18941 23.7788 0.720566C25.5993 3.06241 26.8528 6.58902 27.5094 10.5314H35.5675ZM13.2212 0.720566C7.89393 2.18941 3.56644 5.82689 1.44001 10.5314H9.49809C10.1472 6.58902 11.4007 3.06241 13.2212 0.720566ZM36.3658 12.7485H27.8078C27.9645 14.2035 28.054 15.6931 28.054 17.1827C28.054 18.6724 27.9645 20.162 27.8078 21.617H36.3583C36.7687 20.1966 37 18.7209 37 17.1827C37 15.6446 36.7687 14.1688 36.3658 12.7485ZM8.95342 17.1827C8.95342 15.6931 9.04295 14.2035 9.19964 12.7485H0.641662C0.238758 14.1688 0 15.6446 0 17.1827C0 18.7209 0.238758 20.1966 0.641662 21.617H9.19218C9.04295 20.162 8.95342 18.6724 8.95342 17.1827ZM11.9006 23.8341C12.9825 30.0213 15.5342 34.3655 18.5037 34.3655C21.4733 34.3655 24.025 30.0213 25.1069 23.8341H11.9006ZM23.7862 33.6449C29.1135 32.1761 33.441 28.5386 35.5749 23.8341H27.5168C26.8603 27.7764 25.6068 31.3031 23.7862 33.6449ZM1.44001 23.8341C3.57391 28.5386 7.89393 32.1761 13.2287 33.6449C11.4081 31.3031 10.1547 27.7764 9.49809 23.8341H1.44001Z" fill="#7351BD"/>
</svg>
